<?xml version="1.0" encoding="UTF-8"?>
<svg xmlns="http://www.w3.org/2000/svg" xmlns:xlink="http://www.w3.org/1999/xlink" width="587.0098" height="176.20426" viewBox="0 0 587.0098 176.20426">
<path fill-rule="nonzero" fill="rgb(44.560242%, 5.92804%, 20.330811%)" fill-opacity="1" d="M 47.414062 95.746094 L 51.414062 95.746094 C 52.714844 95.746094 53.765625 94.691406 53.765625 93.390625 L 53.765625 43.339844 C 53.765625 42.035156 52.714844 40.984375 51.414062 40.984375 L 47.414062 40.984375 C 46.113281 40.984375 45.058594 42.035156 45.058594 43.339844 L 45.058594 93.390625 C 45.058594 94.691406 46.113281 95.746094 47.414062 95.746094 M 94.285156 111.367188 C 94.285156 115.539062 92.152344 116.578125 84.964844 116.578125 L 13.863281 116.578125 C 6.675781 116.578125 4.808594 115.539062 4.808594 111.367188 L 4.808594 25.355469 C 4.808594 21.1875 6.675781 20.148438 13.863281 20.148438 L 84.964844 20.148438 C 92.152344 20.148438 94.285156 21.1875 94.285156 25.355469 Z M 94.285156 111.367188 "/>
<path fill-rule="nonzero" fill="rgb(44.560242%, 5.92804%, 20.330811%)" fill-opacity="1" d="M 143.246094 43.339844 L 143.246094 93.386719 C 143.246094 94.6875 144.300781 95.746094 145.601562 95.746094 L 149.597656 95.746094 C 150.898438 95.746094 151.953125 94.6875 151.953125 93.386719 L 151.953125 43.339844 C 151.953125 42.039062 150.898438 40.984375 149.597656 40.984375 L 145.601562 40.984375 C 144.300781 40.984375 143.246094 42.039062 143.246094 43.339844 M 107.707031 3.980469 L 140.890625 3.980469 C 143.492188 3.980469 145.601562 6.089844 145.601562 8.695312 L 145.601562 20.148438 L 183.148438 20.148438 C 190.335938 20.148438 192.46875 21.1875 192.46875 25.355469 L 192.46875 111.367188 C 192.46875 115.539062 190.335938 116.578125 183.148438 116.578125 L 112.046875 116.578125 C 104.859375 116.578125 102.992188 115.539062 102.992188 111.367188 L 102.992188 8.695312 C 102.992188 6.089844 105.101562 3.980469 107.707031 3.980469 "/>
<path fill-rule="nonzero" fill="rgb(44.560242%, 5.92804%, 20.330811%)" fill-opacity="1" d="M 280.007812 20.148438 C 287.460938 20.148438 289.320312 21.1875 289.320312 25.355469 L 289.320312 71.242188 C 289.320312 73.84375 287.210938 75.953125 284.609375 75.953125 L 254.847656 75.953125 C 252.246094 75.953125 250.136719 73.84375 250.136719 71.242188 L 250.136719 43.339844 C 250.136719 42.039062 249.082031 40.980469 247.78125 40.980469 L 243.785156 40.980469 C 242.484375 40.980469 241.429688 42.039062 241.429688 43.339844 L 241.429688 111.867188 C 241.429688 114.46875 239.320312 116.578125 236.71875 116.578125 L 205.890625 116.578125 C 203.289062 116.578125 201.179688 114.46875 201.179688 111.867188 L 201.179688 24.859375 C 201.179688 22.257812 203.289062 20.148438 205.890625 20.148438 Z M 280.007812 20.148438 "/>
<path fill-rule="nonzero" fill="rgb(44.560242%, 5.92804%, 20.330811%)" fill-opacity="1" d="M 343.304688 76.425781 L 339.3125 76.425781 C 338.011719 76.425781 336.957031 77.480469 336.957031 78.78125 L 336.957031 93.386719 C 336.957031 94.6875 338.011719 95.746094 339.3125 95.746094 L 343.304688 95.746094 C 344.605469 95.746094 345.660156 94.6875 345.660156 93.386719 L 345.660156 78.78125 C 345.660156 77.480469 344.605469 76.425781 343.304688 76.425781 M 306.824219 116.578125 C 299.636719 116.578125 297.769531 115.539062 297.769531 111.367188 L 297.769531 67.867188 C 297.769531 63.847656 299.636719 62.65625 306.824219 62.65625 L 343.304688 62.65625 C 344.605469 62.65625 345.660156 61.601562 345.660156 60.300781 L 345.660156 43.339844 C 345.660156 42.039062 344.605469 40.984375 343.304688 40.984375 L 339.3125 40.984375 C 338.011719 40.984375 336.957031 42.039062 336.957031 43.339844 L 336.957031 51 C 336.957031 53.605469 334.847656 55.710938 332.246094 55.710938 L 302.480469 55.710938 C 299.878906 55.710938 297.769531 53.605469 297.769531 51 L 297.769531 25.355469 C 297.769531 21.1875 299.636719 20.148438 306.824219 20.148438 L 376.597656 20.148438 C 384.050781 20.148438 385.910156 21.1875 385.910156 25.355469 L 385.910156 111.867188 C 385.910156 114.46875 383.800781 116.578125 381.199219 116.578125 Z M 306.824219 116.578125 "/>
<path fill-rule="nonzero" fill="rgb(44.560242%, 5.92804%, 20.330811%)" fill-opacity="1" d="M 473.707031 20.148438 C 481.167969 20.148438 483.03125 21.1875 483.03125 25.355469 L 483.03125 71.242188 C 483.03125 73.84375 480.921875 75.953125 478.320312 75.953125 L 448.558594 75.953125 C 445.957031 75.953125 443.847656 73.84375 443.847656 71.242188 L 443.847656 43.339844 C 443.847656 42.039062 442.792969 40.980469 441.492188 40.980469 L 437.492188 40.980469 C 436.191406 40.980469 435.136719 42.039062 435.136719 43.339844 L 435.136719 111.867188 C 435.136719 114.46875 433.027344 116.578125 430.425781 116.578125 L 399.597656 116.578125 C 396.996094 116.578125 394.886719 114.46875 394.886719 111.867188 L 394.886719 24.859375 C 394.886719 22.257812 396.996094 20.148438 399.597656 20.148438 Z M 473.707031 20.148438 "/>
<path fill-rule="nonzero" fill="rgb(44.560242%, 5.92804%, 20.330811%)" fill-opacity="1" d="M 540.699219 93.386719 L 540.699219 43.339844 C 540.699219 42.039062 539.644531 40.980469 538.34375 40.980469 L 534.34375 40.980469 C 533.042969 40.980469 531.988281 42.039062 531.988281 43.339844 L 531.988281 93.386719 C 531.988281 94.691406 533.042969 95.742188 534.34375 95.742188 L 538.34375 95.742188 C 539.644531 95.742188 540.699219 94.691406 540.699219 93.386719 M 576.503906 171.429688 L 543.054688 171.429688 C 540.453125 171.429688 538.34375 169.320312 538.34375 166.71875 L 538.34375 116.578125 L 500.792969 116.578125 C 493.605469 116.578125 491.738281 115.539062 491.738281 111.371094 L 491.738281 25.355469 C 491.738281 21.1875 493.605469 20.148438 500.792969 20.148438 L 571.894531 20.148438 C 579.085938 20.148438 581.214844 21.1875 581.214844 25.355469 L 581.214844 166.71875 C 581.214844 169.320312 579.105469 171.429688 576.503906 171.429688 "/>
<path fill-rule="nonzero" fill="rgb(44.560242%, 5.92804%, 20.330811%)" fill-opacity="1" d="M 24.664062 168.792969 L 8.375 168.792969 L 8.375 142.632812 L 24.105469 142.632812 L 24.105469 145.074219 L 10.992188 145.074219 L 10.992188 153.445312 L 23.550781 153.445312 L 23.550781 155.886719 L 10.992188 155.886719 L 10.992188 166.351562 L 24.664062 166.351562 Z M 24.664062 168.792969 "/>
<path fill-rule="nonzero" fill="rgb(44.560242%, 5.92804%, 20.330811%)" fill-opacity="1" d="M 29.71875 168.792969 L 29.71875 142.632812 L 35.542969 142.632812 L 46.636719 166.351562 L 48.207031 166.351562 L 48.207031 142.632812 L 50.820312 142.632812 L 50.820312 168.792969 L 44.996094 168.792969 L 33.90625 145.074219 L 32.335938 145.074219 L 32.335938 168.792969 Z M 29.71875 168.792969 "/>
<path fill-rule="nonzero" fill="rgb(44.560242%, 5.92804%, 20.330811%)" fill-opacity="1" d="M 69.6875 169.316406 C 61.910156 169.316406 56.152344 163.386719 56.152344 155.75 C 56.152344 148.074219 61.910156 142.144531 69.6875 142.144531 C 75.828125 142.144531 80.78125 145.949219 82.523438 151.703125 L 79.734375 151.703125 C 78.128906 147.515625 74.570312 144.65625 69.6875 144.65625 C 63.375 144.65625 58.875 149.367188 58.875 155.75 C 58.875 162.097656 63.375 166.804688 69.6875 166.804688 C 74.640625 166.804688 78.300781 163.839844 79.804688 159.480469 L 82.523438 159.480469 C 80.746094 165.375 75.929688 169.316406 69.6875 169.316406 "/>
<path fill-rule="nonzero" fill="rgb(44.560242%, 5.92804%, 20.330811%)" fill-opacity="1" d="M 96.785156 169.316406 C 90.957031 169.316406 87.226562 165.445312 87.226562 159.097656 L 87.226562 142.632812 L 89.84375 142.632812 L 89.84375 159.339844 C 89.84375 163.804688 92.355469 166.804688 96.785156 166.804688 C 101.25 166.804688 103.726562 163.804688 103.726562 159.339844 L 103.726562 142.632812 L 106.339844 142.632812 L 106.339844 159.097656 C 106.339844 165.445312 102.644531 169.316406 96.785156 169.316406 "/>
<path fill-rule="nonzero" fill="rgb(44.560242%, 5.92804%, 20.330811%)" fill-opacity="1" d="M 128.554688 168.792969 L 112.265625 168.792969 L 112.265625 142.632812 L 128 142.632812 L 128 145.074219 L 114.882812 145.074219 L 114.882812 153.445312 L 127.441406 153.445312 L 127.441406 155.886719 L 114.882812 155.886719 L 114.882812 166.351562 L 128.554688 166.351562 Z M 128.554688 168.792969 "/>
<path fill-rule="nonzero" fill="rgb(44.560242%, 5.92804%, 20.330811%)" fill-opacity="1" d="M 133.609375 168.792969 L 133.609375 142.632812 L 139.433594 142.632812 L 150.527344 166.351562 L 152.097656 166.351562 L 152.097656 142.632812 L 154.710938 142.632812 L 154.710938 168.792969 L 148.886719 168.792969 L 137.796875 145.074219 L 136.226562 145.074219 L 136.226562 168.792969 Z M 133.609375 168.792969 "/>
<path fill-rule="nonzero" fill="rgb(44.560242%, 5.92804%, 20.330811%)" fill-opacity="1" d="M 165.800781 168.792969 L 165.800781 145.074219 L 159.070312 145.074219 L 159.070312 142.632812 L 175.183594 142.632812 L 175.183594 145.074219 L 168.417969 145.074219 L 168.417969 168.792969 Z M 165.800781 168.792969 "/>
<path fill-rule="nonzero" fill="rgb(44.560242%, 5.92804%, 20.330811%)" fill-opacity="1" d="M 182.15625 145.074219 L 182.15625 155.886719 L 188.785156 155.886719 C 193.316406 155.886719 195.0625 153.34375 195.0625 150.445312 C 195.0625 147.691406 193.351562 145.074219 188.921875 145.074219 Z M 182.15625 158.332031 L 182.15625 168.792969 L 179.539062 168.792969 L 179.539062 142.632812 L 188.746094 142.632812 C 194.46875 142.632812 197.78125 145.949219 197.78125 150.445312 C 197.78125 153.832031 195.96875 156.550781 192.691406 157.703125 L 197.675781 168.792969 L 194.816406 168.792969 L 190.074219 158.261719 C 189.65625 158.296875 189.238281 158.332031 188.785156 158.332031 Z M 182.15625 158.332031 "/>
<path fill-rule="nonzero" fill="rgb(44.560242%, 5.92804%, 20.330811%)" fill-opacity="1" d="M 215.183594 166.804688 C 221.53125 166.804688 226.066406 162.097656 226.066406 155.75 C 226.066406 149.367188 221.53125 144.65625 215.183594 144.65625 C 208.835938 144.65625 204.300781 149.367188 204.300781 155.75 C 204.300781 162.097656 208.835938 166.804688 215.183594 166.804688 M 215.183594 169.316406 C 207.371094 169.316406 201.582031 163.386719 201.582031 155.75 C 201.582031 148.074219 207.371094 142.144531 215.183594 142.144531 C 223.03125 142.144531 228.785156 148.074219 228.785156 155.75 C 228.785156 163.386719 223.03125 169.316406 215.183594 169.316406 "/>
<path fill-rule="nonzero" fill="rgb(44.560242%, 5.92804%, 20.330811%)" fill-opacity="1" d="M 255.078125 169.316406 C 247.300781 169.316406 241.546875 163.386719 241.546875 155.75 C 241.546875 148.074219 247.300781 142.144531 255.078125 142.144531 C 261.21875 142.144531 266.171875 145.949219 267.914062 151.703125 L 265.125 151.703125 C 263.519531 147.515625 259.960938 144.65625 255.078125 144.65625 C 248.765625 144.65625 244.265625 149.367188 244.265625 155.75 C 244.265625 162.097656 248.765625 166.804688 255.078125 166.804688 C 260.03125 166.804688 263.695312 163.839844 265.195312 159.480469 L 267.914062 159.480469 C 266.136719 165.375 261.320312 169.316406 255.078125 169.316406 "/>
<path fill-rule="nonzero" fill="rgb(44.560242%, 5.92804%, 20.330811%)" fill-opacity="1" d="M 285.628906 166.804688 C 291.976562 166.804688 296.511719 162.097656 296.511719 155.75 C 296.511719 149.367188 291.976562 144.65625 285.628906 144.65625 C 279.28125 144.65625 274.746094 149.367188 274.746094 155.75 C 274.746094 162.097656 279.28125 166.804688 285.628906 166.804688 M 285.628906 169.316406 C 277.816406 169.316406 272.027344 163.386719 272.027344 155.75 C 272.027344 148.074219 277.816406 142.144531 285.628906 142.144531 C 293.476562 142.144531 299.234375 148.074219 299.234375 155.75 C 299.234375 163.386719 293.476562 169.316406 285.628906 169.316406 "/>
<path fill-rule="nonzero" fill="rgb(44.560242%, 5.92804%, 20.330811%)" fill-opacity="1" d="M 304.5625 168.792969 L 304.5625 142.632812 L 310.386719 142.632812 L 321.480469 166.351562 L 323.050781 166.351562 L 323.050781 142.632812 L 325.664062 142.632812 L 325.664062 168.792969 L 319.839844 168.792969 L 308.75 145.074219 L 307.179688 145.074219 L 307.179688 168.792969 Z M 304.5625 168.792969 "/>
<path fill-rule="nonzero" fill="rgb(44.560242%, 5.92804%, 20.330811%)" fill-opacity="1" d="M 330.371094 168.792969 L 330.371094 166.210938 L 340.660156 166.210938 C 345.335938 166.210938 347.289062 163.527344 347.289062 160.632812 C 347.289062 157.878906 345.855469 155.332031 340.660156 155.332031 L 337.519531 155.332031 C 333.507812 155.332031 330.546875 152.785156 330.546875 149.085938 C 330.546875 145.25 333.507812 142.632812 337.730469 142.632812 L 348.332031 142.632812 L 348.332031 145.214844 L 337.589844 145.214844 C 334.660156 145.214844 333.265625 146.957031 333.265625 149.085938 C 333.265625 151.074219 334.660156 152.75 337.589844 152.75 L 340.660156 152.75 C 347.253906 152.75 350.007812 156.410156 350.007812 160.597656 C 350.007812 164.921875 347.183594 168.792969 340.484375 168.792969 Z M 330.371094 168.792969 "/>
<path fill-rule="nonzero" fill="rgb(44.560242%, 5.92804%, 20.330811%)" fill-opacity="1" d="M 359.175781 168.792969 L 359.175781 145.074219 L 352.445312 145.074219 L 352.445312 142.632812 L 368.558594 142.632812 L 368.558594 145.074219 L 361.792969 145.074219 L 361.792969 168.792969 Z M 359.175781 168.792969 "/>
<path fill-rule="nonzero" fill="rgb(44.560242%, 5.92804%, 20.330811%)" fill-opacity="1" d="M 375.535156 145.074219 L 375.535156 155.886719 L 382.160156 155.886719 C 386.695312 155.886719 388.4375 153.34375 388.4375 150.445312 C 388.4375 147.691406 386.730469 145.074219 382.300781 145.074219 Z M 375.535156 158.332031 L 375.535156 168.792969 L 372.917969 168.792969 L 372.917969 142.632812 L 382.125 142.632812 C 387.847656 142.632812 391.160156 145.949219 391.160156 150.445312 C 391.160156 153.832031 389.347656 156.550781 386.066406 157.703125 L 391.054688 168.792969 L 388.195312 168.792969 L 383.449219 158.261719 C 383.03125 158.296875 382.613281 158.332031 382.160156 158.332031 Z M 375.535156 158.332031 "/>
<path fill-rule="nonzero" fill="rgb(44.560242%, 5.92804%, 20.330811%)" fill-opacity="1" d="M 405.109375 169.316406 C 399.28125 169.316406 395.550781 165.445312 395.550781 159.097656 L 395.550781 142.632812 L 398.164062 142.632812 L 398.164062 159.339844 C 398.164062 163.804688 400.675781 166.804688 405.109375 166.804688 C 409.574219 166.804688 412.046875 163.804688 412.046875 159.339844 L 412.046875 142.632812 L 414.664062 142.632812 L 414.664062 159.097656 C 414.664062 165.445312 410.96875 169.316406 405.109375 169.316406 "/>
<path fill-rule="nonzero" fill="rgb(44.560242%, 5.92804%, 20.330811%)" fill-opacity="1" d="M 433.007812 169.316406 C 425.230469 169.316406 419.472656 163.386719 419.472656 155.75 C 419.472656 148.074219 425.230469 142.144531 433.007812 142.144531 C 439.144531 142.144531 444.101562 145.949219 445.84375 151.703125 L 443.054688 151.703125 C 441.449219 147.515625 437.890625 144.65625 433.007812 144.65625 C 426.695312 144.65625 422.195312 149.367188 422.195312 155.75 C 422.195312 162.097656 426.695312 166.804688 433.007812 166.804688 C 437.960938 166.804688 441.621094 163.839844 443.125 159.480469 L 445.84375 159.480469 C 444.066406 165.375 439.25 169.316406 433.007812 169.316406 "/>
<path fill-rule="nonzero" fill="rgb(44.560242%, 5.92804%, 20.330811%)" fill-opacity="1" d="M 452.921875 168.792969 L 452.921875 145.074219 L 446.1875 145.074219 L 446.1875 142.632812 L 462.300781 142.632812 L 462.300781 145.074219 L 455.535156 145.074219 L 455.535156 168.792969 Z M 452.921875 168.792969 "/>
<path fill-rule="nonzero" fill="rgb(44.560242%, 5.92804%, 20.330811%)" fill-opacity="1" d="M 467.007812 142.632812 L 469.625 142.632812 L 469.625 168.792969 L 467.007812 168.792969 Z M 467.007812 142.632812 "/>
<path fill-rule="nonzero" fill="rgb(44.560242%, 5.92804%, 20.330811%)" fill-opacity="1" d="M 481.515625 168.792969 L 474.890625 142.632812 L 477.644531 142.632812 L 483.644531 166.351562 L 485.285156 166.351562 L 491.246094 142.632812 L 494.003906 142.632812 L 487.414062 168.792969 Z M 481.515625 168.792969 "/>
<path fill-rule="nonzero" fill="rgb(44.560242%, 5.92804%, 20.330811%)" fill-opacity="1" d="M 510.011719 166.804688 C 516.359375 166.804688 520.890625 162.097656 520.890625 155.75 C 520.890625 149.367188 516.359375 144.65625 510.011719 144.65625 C 503.664062 144.65625 499.128906 149.367188 499.128906 155.75 C 499.128906 162.097656 503.664062 166.804688 510.011719 166.804688 M 510.011719 169.316406 C 502.199219 169.316406 496.40625 163.386719 496.40625 155.75 C 496.40625 148.074219 502.199219 142.144531 510.011719 142.144531 C 517.859375 142.144531 523.613281 148.074219 523.613281 155.75 C 523.613281 163.386719 517.859375 169.316406 510.011719 169.316406 "/>
</svg>
