<?xml version="1.0" encoding="UTF-8"?>
<svg id="Capa_2" data-name="Capa 2" xmlns="http://www.w3.org/2000/svg" viewBox="0 0 210.94 72.57">
  <defs>
    <style>
      .cls-1 {
        fill: #fff;
      }

      .cls-2 {
        fill: #238035;
      }
    </style>
  </defs>
  <g id="Capa_1-2" data-name="Capa 1">
    <g>
      <path class="cls-2" d="M15.26,48.84c-.39-.82-2.99-3.77-3.65-4.06-.42-.19-1.79.17-2.6.12-6.34-.45-8.46-4.26-8.84-10.15C-.42,25.76-.04,16.77,11.49,17.84c7.45.69,8.24,7.15,8.22,13.27,0,2.67-.1,6.34-1.18,8.88-.43,1.01-1.14,1.64-1.62,2.58.73,1.2,1.62,2.31,2.8,3.07l-4.46,3.21ZM8.76,22.39c-.57.15-1.22.79-1.49,1.3-1.04,2.01-.92,11.96-.27,14.27.93,3.31,5.01,2.98,5.94-.22.66-2.26.65-11.45-.26-13.55-.73-1.69-2.11-2.27-3.92-1.8Z"/>
      <polygon class="cls-2" points="114.07 19.25 119.65 34.04 119.65 19.25 125.24 19.25 125.52 44.09 118.54 44.09 112.82 28.46 112.95 44.09 107.09 44.09 107.09 19.66 107.51 19.25 114.07 19.25"/>
      <path class="cls-2" d="M28.93,38.09c.6,3.36,5.3,2.56,5.3.28v-18.71l.42-.42h5.72v18.85c0,.36-.7,2.54-.91,3-2.08,4.48-10.84,4.77-14.31,1.89-1.01-.84-2.37-3.63-2.37-4.89v-18.85h5.72l.42.42v18.43Z"/>
      <path class="cls-2" d="M207.87,27.62h-5.16c-.37,0-4.41-4.47-5.16-5.17-6.28-5.83-12.58-11.63-18.89-17.43-6.71,6.2-13.52,12.32-20.2,18.54-.59.55-3.76,4.05-4.04,4.05h-5.44l10.05-9.63V7.24c1.66,0,3.84-.86,5.3.14v5.72l14.34-13.1,29.21,27.62Z"/>
      <path class="cls-2" d="M201.45,43.54h9.49v1.68h-11.86l-.42-.42v-16.89c.79.34,2.63,1.84,2.79,2.66v12.98Z"/>
      <polygon class="cls-2" points="158.74 27.9 158.74 44.65 146.45 44.65 146.87 43.26 155.94 43.26 155.94 29.99 158.74 27.9"/>
      <path class="cls-2" d="M177.72,20.08c-.09.27.28.61.28.7v4.47c0,1.04-6.14,1.04-6.14,0v-4.75l.42-.42h5.44Z"/>
      <path class="cls-2" d="M185.54,25.67c-.27-.09-.61.28-.7.28h-4.75c-.98,0-.81-5.04-.42-5.86h5.44l.42.42v5.17Z"/>
      <path class="cls-2" d="M179.81,27.34h5.3l.42.42v4.75l-.42.42h-5.02c-.99,0-.41-1.74-.42-2.1-.02-.53-.51-3.49.14-3.49Z"/>
      <path class="cls-2" d="M177.72,27.34v5.17l-.42.42h-4.75c-.09,0-.42-.37-.7-.28v-4.89l.42-.42h5.44Z"/>
      <path class="cls-2" d="M75.97,19.25c3.38.36,6.2,2.15,6.56,5.73.33,3.27-.4,6.33-3.9,7.25.55.52,1.26.43,1.94.85,3.26,2.02.32,8.32,2.8,11.02h-6.28c-2.24-3.76,1.81-10.79-5.72-9.49v9.07l-.42.42h-5.72v-24.85c3.44.26,7.37-.36,10.75,0ZM71.36,23.71l.12,6.44c2.49.75,5.02-.11,5.16-2.99.18-3.65-2.41-3.68-5.29-3.45Z"/>
      <path class="cls-2" d="M84.48,44.09l5.99-24.58,8.08-.28,6.59,24.87h-6.14l-1.28-5.04-6,.14-1.1,4.9h-6.14ZM97.04,34.6l-2.37-10.61-2.09,10.61h4.47Z"/>
      <path class="cls-2" d="M62.99,44.09h-6.14l-1.29-5.04-5.98.15-1.11,4.9h-6.42l6.83-24.87,7.83.29,6.27,24.58ZM54.89,34.6l-2.37-10.61-2.37,10.61h4.75Z"/>
      <g>
        <path d="M37.86,55.26c-5.43-2.32-12.44-1.55-13.08,5.48-.5,5.43,3.09,8.9,8.49,8.49,1.75-.13,3.16-1.03,4.87-1.13.57,3.18.03,3.34-2.96,3.88-8.57,1.53-15.26-2.91-14.34-12.11.75-7.49,9.78-10.56,16.13-8.04,1.86.73,1.11,1.81.89,3.43Z"/>
        <path d="M46.73,54.5c6.76-.91,10.49,3.98,9.83,10.39-1.05,10.31-18.77,9.82-17-3.6.46-3.49,3.75-6.33,7.17-6.79ZM51.72,58.43c-2.81-2.8-8.24-1.02-8.81,3.14-.64,4.66,1.56,8.65,6.75,7.59,4.06-.83,4.64-8.16,2.06-10.73Z"/>
        <path d="M59.08,54.7c1.09.11,2.44-.39,3.23.54l7.94,11.46v-12.01l2.79.28v16.75l-2.95-.26-8.22-11.75v12.01h-2.79v-17.03Z"/>
        <path d="M141.43,55.12c.19-.61,2.3-.45,2.94-.43,1.57.06,4.46.18,5.89.53,4.61,1.11,4.73,7.57.38,8.98l4.46,7.53-3.35-.14c-2.35-2.71-2.6-7.43-7.26-6.56v6.7h-3.07v-16.61ZM144.5,62.52c2.3-.02,5.88.53,5.88-2.65s-3.73-2.28-5.88-2.37v5.03Z"/>
        <path d="M103.18,54.98c.42-.07.82-.24,1.25-.28,1.71-.17,6.18.09,7.81.57,4.38,1.29,4.44,7.49.15,8.93l4.46,7.53c-.99-.14-2.72.32-3.51-.26-.96-.7-2.76-5.72-4.03-6.3-.67-.3-2.55-.35-3.07.28v6.28h-3.07v-16.75ZM106.25,62.52c2.58.25,7,.14,5.74-3.65-.16-.48-1.34-1.38-1.69-1.38h-4.05v5.03Z"/>
        <path d="M121.33,54.98v11.03c0,3.5,5.46,4.48,6.94,1.92.11-.19.6-1.54.6-1.64v-11.31h3.07c.04,1.44-.06,2.9-.01,4.34.08,2.53.46,6.69-.41,9.05-1.68,4.56-9.93,4.89-12.37.94-.22-.35-.88-1.91-.88-2.19v-12.01l.69-.43,2.38.29Z"/>
        <path d="M86.15,58.06c-1.77-.99-8.78-1.72-7.05,1.89.9,1.87,7.37,1.87,8.1,5.85,1.21,6.57-6.91,7.27-11.32,5.31l-.06-2.72c2.28.88,9.38,2.49,8.03-2.04-.65-2.17-8.14-2.03-8.29-6.78-.15-4.82,5.79-5.84,9.41-4.66,2.16.71,1.34,1.23,1.17,3.15Z"/>
        <polygon points="101.51 54.7 101.79 57.5 96.21 57.5 96.21 71.74 93.13 71.74 93.13 57.5 88.11 57.5 88.11 54.7 101.51 54.7"/>
        <path d="M138.08,71.74h-3.07v-16.61l.46-.37c.35-.08.71-.06,1.07-.06.57,0,1.18-.09,1.54.44v16.61Z"/>
        <g>
          <path d="M185.54,53.87v18.71h-27.08v-18.71h27.08ZM180.69,57.59c-1.66-1.49-4.87-1.45-6.47.17-2.21,2.24-2.13,8.39-.09,10.72,1.62,1.84,5.2,1.86,6.84.09,2.1-2.28,2.07-8.86-.28-10.97ZM169.9,56.66l-3.49.28-5.01,7.55-.15,2.22h5.72c.81.38.22,2.6.42,2.79h2.52s.12-2.53.12-2.53l1.56-.42v-1.8s-1.68,0-1.68,0v-8.1Z"/>
          <path class="cls-1" d="M180.69,57.59c2.35,2.11,2.38,8.69.28,10.97-1.64,1.78-5.22,1.75-6.84-.09-2.05-2.33-2.12-8.48.09-10.72,1.6-1.63,4.81-1.67,6.47-.17ZM178.76,58.98c-.61-.5-1.62-.47-2.27-.05-2.36,1.52-1.47,11.34,2.21,8.35,1.45-1.18,1.41-7.18.05-8.3Z"/>
          <path class="cls-1" d="M169.9,56.66v8.1h1.68s0,1.8,0,1.8l-1.56.42-.12,2.53h-2.52c-.2-.2.39-2.41-.42-2.79h-5.72l.15-2.22,5.01-7.55,3.49-.28ZM163.76,64.75c.74-.12,3.12.29,3.51-.26l.12-5.04c-1.44,1.46-2.48,3.55-3.63,5.3Z"/>
          <path d="M178.76,58.98c1.36,1.11,1.39,7.12-.05,8.3-3.68,2.99-4.58-6.83-2.21-8.35.65-.42,1.66-.45,2.27.05Z"/>
          <path d="M163.76,64.75c1.14-1.75,2.18-3.85,3.63-5.3l-.12,5.04c-.38.55-2.76.14-3.51.26Z"/>
        </g>
      </g>
      <path class="cls-2" d="M144.38,19.51l-.34-.22-16.31.08c-.39.28-.53,4.12.16,4.62h5.16v20.1h6.41v-20.1h4.61c.64-.46.55-4.12.3-4.49Z"/>
    </g>
  </g>
</svg>