<?xml version="1.0" encoding="UTF-8"?>
<svg id="Capa_2" data-name="Capa 2" xmlns="http://www.w3.org/2000/svg" viewBox="0 0 150.35 98.48">
  <defs>
    <style>
      .cls-1 {
        fill: #0d3a31;
      }

      .cls-2 {
        fill: #81c6b2;
      }
    </style>
  </defs>
  <g id="Capa_1-2" data-name="Capa 1">
    <g>
      <polygon class="cls-1" points=".6 54.14 33.9 0 76.61 0 76.61 28.92 53.91 51.62 53.91 42.88 41.5 27.07 53.68 27.07 53.83 6.24 24.31 54.14 .6 54.14"/>
      <polygon class="cls-2" points="55.18 54.14 76.61 32.62 76.61 40.17 62.58 54.14 55.18 54.14"/>
      <polygon class="cls-2" points="66.76 54.14 76.61 54.14 76.61 44.13 66.76 54.14"/>
      <polygon class="cls-2" points="107.01 .11 85.58 21.64 85.58 14.09 99.61 .11 107.01 .11"/>
      <polygon class="cls-2" points="95.42 .11 85.58 .11 85.58 10.13 95.42 .11"/>
      <polygon class="cls-1" points="85.58 25.22 110.63 .11 146.17 .11 146.17 21.64 134.17 33.63 109.29 33.63 126.25 15.66 109.06 15.58 108.99 54.14 85.58 54.14 85.58 25.22"/>
      <g>
        <path class="cls-1" d="M0,78.27l5.66-11.07h6.04l5.66,11.07h-4.98l-.81-1.58h-5.78l-.81,1.58H0ZM7.18,73.51h3.01l-1.5-3.29-1.51,3.29Z"/>
        <path class="cls-1" d="M18.12,67.21h11.9c2.2,0,3.03,1.33,3.03,2.56,0,1.43-.23,2.07-1.07,2.75,1.12.39,1.66,1.24,1.66,2.72,0,1.86-.94,3.04-3.66,3.04h-11.85v-11.07ZM22.9,71.62h5.16c.72,0,.68-1.07,0-1.07-.73,0-3.37.02-5.16.02v1.06ZM22.9,74.94h5.57c.68,0,.78-1.06,0-1.06h-5.57v1.06Z"/>
        <path class="cls-1" d="M34.76,67.21h13.76v3.27h-8.99v.98h8.22v2.59h-8.22v.96h8.99v3.27h-13.76v-11.07Z"/>
        <path class="cls-1" d="M56.76,75.26h-2.3v3.01h-4.79v-11.07h9.96c2.78,0,5.24.13,5.24,4.18,0,2.38-1.12,3.32-3.04,3.58l3.14,3.3h-5.55l-2.67-3.01ZM54.47,72.04h4.74c1.24,0,1.5-.03,1.5-.65s-.26-.67-1.5-.67h-4.74v1.32Z"/>
        <path class="cls-1" d="M82.36,70.84h-5.75v7.44h-4.77v-7.44c-2.44.02-4.62.02-5.73.02v-3.65h16.25v3.63Z"/>
        <path class="cls-1" d="M90.41,75h2.34c1.22,0,1.99-.78,1.99-2.26v-5.53h4.77v5.53c0,3.94-2.75,5.78-5.53,5.78h-4.8c-2.78,0-5.53-1.84-5.53-5.78v-5.53h4.77v5.53c0,1.48.77,2.26,2,2.26Z"/>
        <path class="cls-1" d="M107.88,75.26h-2.3v3.01h-4.79v-11.07h9.96c2.78,0,5.24.13,5.24,4.18,0,2.38-1.12,3.32-3.04,3.58l3.14,3.3h-5.55l-2.67-3.01ZM105.59,72.04h4.74c1.24,0,1.5-.03,1.5-.65s-.26-.67-1.5-.67h-4.74v1.32Z"/>
        <path class="cls-1" d="M116.69,78.27l5.66-11.07h6.04l5.66,11.07h-4.98l-.81-1.58h-5.78l-.81,1.58h-4.98ZM123.87,73.51h3.01l-1.5-3.29-1.51,3.29Z"/>
        <path class="cls-1" d="M150.35,74.73c0,3.04-2,3.81-4.57,3.81h-7.13c-3.34,0-4.66-1.3-4.66-4.15h4.56c.05.62.72.63,1.29.63,1.74,0,4.79.02,5.58.02.44,0,.6-.18.6-.63,0-.29-.2-.42-.63-.42-2.25-.05-4.57-.11-6.82-.18-2.85,0-4.56-.59-4.56-3.03,0-3.04,2-3.81,4.57-3.81h6.89c3.32,0,4.64,1.3,4.64,4.15h-4.56c-.05-.63-.7-.65-1.29-.65h-5.32c-.44,0-.6.16-.6.62,0,.29.16.41.6.41,2.25.05,4.57.11,6.84.18,2.85,0,4.57.62,4.57,3.06Z"/>
      </g>
      <g>
        <path class="cls-1" d="M4.71,98.22H0v-11.07h9.72c2.74,0,5.44.13,5.44,4.18s-2.71,4.17-5.44,4.17h-5.01v2.72ZM4.71,91.99h4.88c1.22,0,1.47-.03,1.47-.65s-.26-.67-1.47-.67h-4.88v1.32Z"/>
        <path class="cls-1" d="M13.82,98.22l5.57-11.07h5.94l5.57,11.07h-4.9l-.8-1.58h-5.68l-.8,1.58h-4.9ZM20.88,93.45h2.96l-1.47-3.29-1.49,3.29Z"/>
        <path class="cls-1" d="M50.4,98.22h-4.71v-6.71l-2.63,6.71h-4.11l-2.61-6.71v6.71h-4.71v-11.07h7.11l2.27,5.81,2.26-5.81h7.12v11.07Z"/>
        <path class="cls-1" d="M56.38,98.22h-4.71v-11.07h9.72c2.74,0,5.44.13,5.44,4.18s-2.71,4.17-5.44,4.17h-5.01v2.72ZM56.38,91.99h4.88c1.22,0,1.47-.03,1.47-.65s-.26-.67-1.47-.67h-4.88v1.32Z"/>
        <path class="cls-1" d="M67.94,87.15h13.53v3.27h-8.84v.98h8.09v2.59h-8.09v.96h8.84v3.27h-13.53v-11.07Z"/>
        <path class="cls-1" d="M82.09,98.22l5.57-11.07h5.94l5.57,11.07h-4.9l-.8-1.58h-5.68l-.8,1.58h-4.9ZM89.15,93.45h2.96l-1.47-3.29-1.49,3.29Z"/>
        <path class="cls-1" d="M104.61,98.22h-4.69v-11.07h5.28l5.88,5.66v-5.66h4.71v11.07h-4.92l-6.26-6.45v6.45Z"/>
        <path class="cls-1" d="M116.52,98.22l5.57-11.07h5.94l5.57,11.07h-4.9l-.8-1.58h-5.68l-.8,1.58h-4.9ZM123.58,93.45h2.96l-1.47-3.29-1.49,3.29Z"/>
        <path class="cls-1" d="M149.63,94.67c0,3.04-1.97,3.81-4.5,3.81h-7.01c-3.28,0-4.58-1.3-4.58-4.15h4.48c.05.62.7.63,1.26.63,1.71,0,4.71.02,5.49.02.43,0,.59-.18.59-.63,0-.29-.19-.42-.62-.42-2.21-.05-4.5-.11-6.71-.18-2.8,0-4.48-.59-4.48-3.03,0-3.04,1.97-3.81,4.5-3.81h6.77c3.27,0,4.56,1.3,4.56,4.15h-4.48c-.05-.63-.69-.65-1.27-.65h-5.24c-.43,0-.59.16-.59.62,0,.29.16.41.59.41,2.21.05,4.5.11,6.72.18,2.8,0,4.5.62,4.5,3.06Z"/>
      </g>
    </g>
  </g>
</svg>