<?xml version="1.0" encoding="UTF-8"?>
<svg id="Capa_2" data-name="Capa 2" xmlns="http://www.w3.org/2000/svg" viewBox="0 0 183.35 68.07">
  <defs>
    <style>
      .cls-1 {
        fill: #426824;
      }

      .cls-2 {
        fill: #89bf59;
      }

      .cls-3 {
        fill: #1d1d1b;
      }
    </style>
  </defs>
  <g id="Capa_1-2" data-name="Capa 1">
    <g>
      <g>
        <path class="cls-1" d="M6.07,37.79l.24-9.03s6.09,3.51,8.96,3.51c2.01,0,3.09-.87,3.09-1.88s.07-1.63-4.94-3.91c-5.52-2.46-7.62-4.66-7.62-9.64,0-5.7,4.52-9.85,12.36-9.85,3.42,0,7.21.33,9.53,1.56l-.25,8.34s-3.71-2.22-7.81-2.54c-2.3-.18-3.21,1.22-3.21,2,0,.91,0,1.1,5.2,3.52,5.66,2.6,7.85,5.7,7.85,9.94,0,6.16-5.6,10.21-13.17,10.21-4.52,0-7.9-.95-10.23-2.23Z"/>
        <path class="cls-1" d="M30.16,33.11c-.39-9.42,13.49-8.98,13.49-8.98-1.42-4.41-11.31.26-11.31.26l-.12-6.54c2.87-1.69,6.72-2.06,10.05-2.06,6.16,0,10.28,3.06,10.28,9.44v14.23h-8.98l.03-2.61c-.6,1.96-4.62,3.09-7.08,3.09-3.92-.09-6.21-3.42-6.36-6.84ZM43.49,29.09c-2.99.57-4.5.73-4.5,2.32,0,1.23.67,2.3,2.78,1.69,2.12-.61,1.72-4.02,1.72-4.02Z"/>
        <path class="cls-1" d="M114.35,33.11c-.39-9.42,13.49-8.98,13.49-8.98-1.42-4.41-11.31.26-11.31.26l-.12-6.54c2.87-1.69,6.72-2.06,10.05-2.06,6.16,0,10.28,3.06,10.28,9.44v14.23h-8.98l.03-2.61c-.6,1.96-4.62,3.09-7.08,3.09-3.92-.09-6.21-3.42-6.36-6.84ZM127.69,29.09c-2.99.57-4.5.73-4.5,2.32,0,1.23.67,2.3,2.78,1.69,2.12-.61,1.72-4.02,1.72-4.02Z"/>
        <path class="cls-1" d="M79.97,24.56v14.91h-9.96v-13.59c0-1.6-.88-2.45-1.78-2.57-1.33-.18-2,.61-2.19,1.53v14.64h-9.67v-22.85h9.13v3.01c2.13-2.46,4.41-3.83,7.42-3.83,4.2,0,7.04,3.1,7.04,8.76Z"/>
        <path class="cls-1" d="M83.01,10.63c0-2.87,2.19-4.83,5.43-4.83s5.38,1.96,5.38,4.83-2.19,4.93-5.38,4.93-5.43-2.05-5.43-4.93ZM83.56,39.47v-22.85h9.67v22.85h-9.67Z"/>
        <path class="cls-1" d="M98.84,31.33v-7.55h-3.01v-7.16h3.19v-4.51l9.44-3.06v7.57h4.88v7.16h-4.88v5.75c0,2.14.68,2.78,2.37,2.78.78,0,2.42-.23,2.42-.23l.23,7.09c-1.14.46-3.51.96-5.47.96-6.2,0-9.17-2.92-9.17-8.8Z"/>
        <path class="cls-1" d="M157.28,16.59l-.08,8.25s-7.33-1.84-7.33,3.25v11.38h-9.67v-22.85h9.45l-.08,3.56c1.78-2.78,3.17-4.24,5.32-4.24.41,0,1.57.14,2.39.65Z"/>
        <path class="cls-1" d="M167.03,16.62s3.25,11.59,3.47,13.46h.35c.27-1.88,2.64-13.46,2.64-13.46h9.84l-8.99,25.71c-1.49,4.27-5.52,7.13-10.05,7.13H6.07v-7.71l158.26-.06,1.29-2.31-8.65-22.21.12-.55h9.95Z"/>
      </g>
      <g>
        <path class="cls-3" d="M15.83,54.29c.79-.17,2.01-.3,3.24-.3,1.78,0,2.92.3,3.78,1,.71.54,1.15,1.36,1.15,2.44,0,1.33-.89,2.5-2.33,3.01v.05c1.31.31,2.84,1.39,2.84,3.45,0,1.17-.47,2.08-1.18,2.74-.95.89-2.49,1.29-4.75,1.29-1.23,0-2.16-.09-2.76-.15v-13.53ZM17.6,59.92h1.63c1.86,0,2.96-.99,2.96-2.32,0-1.59-1.21-2.24-3.01-2.24-.82,0-1.29.06-1.58.13v4.43ZM17.6,66.5c.36.07.85.09,1.5.09,1.84,0,3.54-.68,3.54-2.68,0-1.87-1.62-2.65-3.56-2.66h-1.48v5.24Z"/>
        <path class="cls-3" d="M29.1,63.53l-1.42,4.32h-1.84l4.68-13.75h2.14l4.7,13.75h-1.9l-1.47-4.32h-4.88ZM33.61,62.14l-1.36-3.96c-.3-.9-.5-1.72-.71-2.51h-.05c-.2.8-.41,1.64-.68,2.48l-1.35,3.98h4.15Z"/>
        <path class="cls-3" d="M39.35,67.85v-13.75h1.95l4.41,6.95c1.01,1.61,1.8,3.06,2.45,4.48l.05-.02c-.16-1.84-.19-3.51-.19-5.64v-5.76h1.67v13.75h-1.8l-4.37-6.97c-.95-1.54-1.87-3.11-2.56-4.6l-.06.02c.11,1.74.13,3.4.13,5.67v5.88h-1.67ZM42.09,53.25c-.03-1.24.5-2.08,1.39-2.08.45,0,.78.18,1.21.41.33.18.66.37.98.37s.5-.15.55-.81h.95c.02,1.29-.43,1.98-1.38,1.98-.43,0-.8-.15-1.25-.39-.39-.21-.66-.39-.96-.39-.33,0-.48.35-.53.89h-.96Z"/>
        <path class="cls-3" d="M64.54,60.84c0,4.72-2.88,7.24-6.38,7.24s-6.18-2.82-6.18-6.98,2.7-7.22,6.37-7.22,6.19,2.88,6.19,6.96ZM53.86,61.05c0,2.94,1.6,5.58,4.4,5.58s4.41-2.59,4.41-5.72c0-2.74-1.43-5.6-4.38-5.6s-4.42,2.73-4.42,5.74Z"/>
        <path class="cls-3" d="M66.61,65.68c.79.5,1.95.89,3.17.89,1.82,0,2.88-.95,2.88-2.34,0-1.27-.75-2.03-2.6-2.72-2.24-.8-3.64-1.98-3.64-3.9,0-2.14,1.78-3.73,4.46-3.73,1.4,0,2.43.32,3.03.66l-.5,1.46c-.44-.26-1.36-.65-2.6-.65-1.89,0-2.6,1.12-2.6,2.06,0,1.28.84,1.91,2.73,2.64,2.33.92,3.51,2.03,3.51,4.05s-1.55,3.97-4.81,3.97c-1.33,0-2.78-.4-3.51-.9l.47-1.48Z"/>
        <path class="cls-3" d="M92.83,61.81c-.11-1.91-.23-4.23-.22-5.93h-.06c-.47,1.6-1.04,3.33-1.73,5.21l-2.43,6.67h-1.34l-2.24-6.55c-.66-1.94-1.19-3.71-1.57-5.34h-.05c-.05,1.71-.14,4-.27,6.07l-.37,5.9h-1.69l.96-13.75h2.27l2.34,6.66c.57,1.68,1.03,3.2,1.39,4.63h.05c.36-1.39.84-2.91,1.45-4.63l2.45-6.66h2.27l.85,13.75h-1.75l-.33-6.04Z"/>
        <path class="cls-3" d="M109.39,60.84c0,4.72-2.88,7.24-6.38,7.24s-6.18-2.82-6.18-6.98,2.7-7.22,6.37-7.22,6.19,2.88,6.19,6.96ZM98.71,61.05c0,2.94,1.6,5.58,4.4,5.58s4.41-2.59,4.41-5.72c0-2.74-1.43-5.6-4.38-5.6s-4.42,2.73-4.42,5.74ZM106.08,50.93l-2.6,2.38h-1.46l1.89-2.38h2.17Z"/>
        <path class="cls-3" d="M114.76,67.85l-4.5-13.75h1.93l2.14,6.78c.59,1.85,1.1,3.53,1.47,5.13h.05c.39-1.59.95-3.32,1.57-5.11l2.33-6.8h1.9l-4.91,13.75h-1.96Z"/>
        <path class="cls-3" d="M124.9,54.1v13.75h-1.79v-13.75h1.79Z"/>
        <path class="cls-3" d="M127.99,54.1h1.79v12.25h5.88v1.5h-7.67v-13.75Z"/>
        <path class="cls-3" d="M144.74,61.4h-5.33v4.97h5.96v1.48h-7.75v-13.75h7.43v1.48h-5.65v4.36h5.33v1.47Z"/>
        <path class="cls-3" d="M147.43,65.68c.79.5,1.95.89,3.17.89,1.82,0,2.88-.95,2.88-2.34,0-1.27-.75-2.03-2.6-2.72-2.24-.8-3.64-1.98-3.64-3.9,0-2.14,1.78-3.73,4.46-3.73,1.4,0,2.43.32,3.03.66l-.5,1.46c-.44-.26-1.36-.65-2.6-.65-1.89,0-2.6,1.12-2.6,2.06,0,1.28.84,1.91,2.73,2.64,2.33.92,3.51,2.03,3.51,4.05s-1.55,3.97-4.81,3.97c-1.33,0-2.78-.4-3.51-.9l.47-1.48Z"/>
      </g>
      <g>
        <path class="cls-2" d="M.27,31.99l.24-9.03s6.09,3.51,8.96,3.51c2.01,0,3.09-.87,3.09-1.88s.07-1.63-4.94-3.91C2.1,18.22,0,16.02,0,11.05,0,5.34,4.52,1.19,12.36,1.19c3.42,0,7.21.33,9.53,1.56l-.25,8.34s-3.71-2.22-7.81-2.54c-2.3-.18-3.21,1.22-3.21,2,0,.91,0,1.1,5.2,3.52,5.66,2.6,7.85,5.7,7.85,9.94,0,6.16-5.6,10.21-13.17,10.21-4.52,0-7.9-.95-10.23-2.23Z"/>
        <path class="cls-2" d="M24.36,27.32c-.39-9.42,13.49-8.98,13.49-8.98-1.42-4.41-11.31.26-11.31.26l-.12-6.54c2.87-1.69,6.72-2.06,10.05-2.06,6.16,0,10.28,3.06,10.28,9.44v14.23h-8.98l.03-2.61c-.6,1.96-4.62,3.09-7.08,3.09-3.92-.09-6.21-3.42-6.36-6.84ZM37.7,23.3c-2.99.57-4.5.73-4.5,2.32,0,1.23.67,2.3,2.78,1.69,2.12-.61,1.72-4.02,1.72-4.02Z"/>
        <path class="cls-2" d="M108.55,27.32c-.39-9.42,13.49-8.98,13.49-8.98-1.42-4.41-11.31.26-11.31.26l-.12-6.54c2.87-1.69,6.72-2.06,10.05-2.06,6.16,0,10.28,3.06,10.28,9.44v14.23h-8.98l.03-2.61c-.6,1.96-4.62,3.09-7.08,3.09-3.92-.09-6.21-3.42-6.36-6.84ZM121.89,23.3c-2.99.57-4.5.73-4.5,2.32,0,1.23.67,2.3,2.78,1.69s1.72-4.02,1.72-4.02Z"/>
        <path class="cls-2" d="M74.18,18.77v14.91h-9.96v-13.59c0-1.6-.88-2.45-1.78-2.57-1.33-.18-2,.61-2.19,1.53v14.64h-9.67V10.83h9.13v3.01c2.13-2.46,4.41-3.83,7.42-3.83,4.2,0,7.04,3.1,7.04,8.76Z"/>
        <path class="cls-2" d="M77.22,4.83c0-2.87,2.19-4.83,5.43-4.83s5.38,1.96,5.38,4.83-2.19,4.93-5.38,4.93-5.43-2.05-5.43-4.93ZM77.77,33.68V10.83h9.67v22.85h-9.67Z"/>
        <path class="cls-2" d="M93.05,25.54v-7.55h-3.01v-7.16h3.19v-4.51l9.44-3.06v7.57h4.88v7.16h-4.88v5.75c0,2.14.68,2.78,2.37,2.78.78,0,2.42-.23,2.42-.23l.23,7.09c-1.14.46-3.51.96-5.47.96-6.2,0-9.17-2.92-9.17-8.8Z"/>
        <path class="cls-2" d="M151.49,10.8l-.08,8.25s-7.33-1.84-7.33,3.25v11.38h-9.67V10.83h9.45l-.08,3.56c1.78-2.78,3.17-4.24,5.32-4.24.41,0,1.57.14,2.39.65Z"/>
        <path class="cls-2" d="M161.24,10.83s3.25,11.59,3.47,13.46h.35c.27-1.88,2.64-13.46,2.64-13.46h9.84l-8.99,25.71c-1.49,4.27-5.52,7.13-10.05,7.13H.27v-7.71l158.26-.06,1.29-2.31-8.65-22.21.12-.55h9.95Z"/>
      </g>
    </g>
  </g>
</svg>