<?xml version="1.0" encoding="UTF-8"?>
<svg id="Capa_2" data-name="Capa 2" xmlns="http://www.w3.org/2000/svg" viewBox="0 0 158.88 53.51">
  <defs>
    <style>
      .cls-1 {
        fill: #504e4d;
      }

      .cls-2 {
        fill: #6f8f80;
      }

      .cls-3 {
        fill: #41627b;
      }
    </style>
  </defs>
  <g id="Capa_1-2" data-name="Capa 1">
    <g>
      <polygon class="cls-1" points="81.8 31.19 81.8 37.23 56.76 37.23 56.76 0 81.53 0 81.53 6.04 63.18 6.04 63.18 15.49 79.75 15.49 79.75 21.53 63.18 21.53 63.18 31.19 81.8 31.19"/>
      <path class="cls-1" d="M115.93,29.3h-16.94l-3.02,7.93h-6.91L103.73,0h7.61l14.68,37.23h-7.07l-3.02-7.93ZM113.66,23.37l-6.21-16.35-6.21,16.35h12.41Z"/>
      <path class="cls-1" d="M130.52,31.6l3.23-4.75c2.82,2.82,7.09,4.8,11.37,4.8s7.41-1.93,7.41-4.85c0-3.55-4.85-4.69-8.45-5.48-6.52-1.51-12.36-4.64-12.36-11S137.19,0,145.06,0c5.21,0,9.6,1.88,12.2,4.48l-2.92,4.69c-1.98-2.03-5.63-3.6-9.39-3.6-3.96,0-6.83,1.83-6.83,4.54,0,3.23,4.28,4.59,7.72,5.27,3.39.73,13.04,3.13,13.04,11.16,0,6.36-6,10.69-13.77,10.69-5.48,0-11.11-2.24-14.6-5.63"/>
      <rect class="cls-3" width="6.42" height="37.23"/>
      <path class="cls-2" d="M49.35,18.62c0,10.63-8.09,18.62-18.94,18.62h-14.46V0h14.46C41.25,0,49.35,7.99,49.35,18.62M42.76,18.62c0-7.18-5.34-12.57-12.46-12.57h-7.93v25.15h7.93c7.12,0,12.46-5.4,12.46-12.57Z"/>
      <path class="cls-2" d="M99.61,52.14v-1.97h3.38v-1.23h-3.38v-1.93h3.75v-1.23h-5.06v7.6h5.11v-1.23h-3.8ZM89.58,45.77l-2.35,4.17-2.35-4.17h-1.63v7.6h1.31v-5.56l2.29,4.1h.74l2.29-4.11v5.57h1.31v-7.6h-1.62ZM72.55,52.24c-1.5,0-2.64-1.15-2.64-2.67s1.15-2.67,2.64-2.67,2.65,1.15,2.65,2.67-1.15,2.67-2.65,2.67ZM72.55,53.51c2.28,0,4-1.7,4-3.93s-1.72-3.93-4-3.93-3.99,1.7-3.99,3.93,1.72,3.93,3.99,3.93ZM60.54,45.77v3.16h-3.72v-3.16h-1.31v7.6h1.31v-3.21h3.72v3.21h1.3v-7.6h-1.3Z"/>
    </g>
  </g>
</svg>