<?xml version="1.0" encoding="UTF-8"?>
<svg id="Capa_2" data-name="Capa 2" xmlns="http://www.w3.org/2000/svg" viewBox="0 0 179.9 124.04">
  <defs>
    <style>
      .cls-1 {
        fill: #182d3d;
      }

      .cls-2 {
        fill: #3e6176;
      }

      .cls-3 {
        fill: #102a3b;
      }

      .cls-4 {
        fill: #fdffff;
      }

      .cls-5 {
        fill: #f0eee5;
      }

      .cls-6 {
        fill: #1a5a43;
      }
    </style>
  </defs>
  <g id="Capa_1-2" data-name="Capa 1">
    <g>
      <path class="cls-1" d="M159.49,97.5c.45.01,2.41.17,2.63.34.8.64.1,1.02-.65,1.1.16-.54-.68-.57-.54,0-9.64.39-19.41.57-29.06.73-10.18.17-20.65-.2-30.77.36-.58.03-1.38.11-1.9-.19.08-.02.08-.33.45-.37,3.34-.41,8.16.08,11.71.02,13.77-.22,27.6-.51,41.37-.91,3.1-.09,6.19.04,9.28-.17v-.54c-.63-.02-1.27.02-1.9,0-.35-.01-.72.18-.62-.36Z"/>
      <path class="cls-2" d="M86.43,105.95c-.2-.06-.79,0-1.08,0,.18-.29.91-.29,1.08,0Z"/>
      <path class="cls-3" d="M160.93,98.94c-.14-.57.7-.54.54,0-.18.02-.36,0-.54,0Z"/>
      <path class="cls-3" d="M145.28,105.95v17.62h-4.5v-10.97c-.36.2-.6.74-.79,1.1-1.2,2.24-2.16,4.64-3.37,6.88-.36.47-2.3.43-2.69.03-1.49-2.46-2.36-5.28-3.73-7.78-.11-.21,0-.3-.4-.23v10.97h-4.5v-17.62h5.94l3.74,8.04.48.42,4.08-8.42c1.9,0,3.86-.1,5.73-.03Z"/>
      <path class="cls-3" d="M29.93,106.67c.95.17,2.19,1.41,2.79,2.16,3.5,4.31,2.29,11.78-2.85,14.24-8.23,3.94-15.57-4.92-11.98-12.69.52-1.11,2.95-4.23,4.11-3.89.91.27,2.56-.57,3.87-.55,1.32.02,2.62.74,3.64.88.43.06.38-.16.4-.15ZM25.39,109.95c-5.02.41-4.85,9.06-.04,9.65,5.82.71,6.18-10.15.04-9.65Z"/>
      <path class="cls-3" d="M98.22,105.95c.46.05,2.11.48,2.48.71.16.1.21.38.42.52,1.46.98,2.39,1.79,2.59,3.72.3,2.97-.49,5.28-3.24,6.66-.07.31,3.04,4.55,3.43,5.37.11.22.23.36.17.64h-5.04l-3.15-5.4c-.41-.37-1.34-.1-1.89-.18v5.31s-.25.27-.27.27h-4.41v-17.62c2.84.22,6.12-.3,8.91,0ZM93.81,109.73v4.59s.25.27.27.27h3.06c.44,0,1.57-.85,1.75-1.31.22-.55.23-1.68,0-2.25-.11-.28-1.17-1.3-1.39-1.3h-3.69Z"/>
      <path class="cls-3" d="M111.09,105.95v10.7c0,.1.32,1.21.4,1.4.85,2.11,4.12,1.99,5.26.11.07-.12.46-1.09.46-1.16v-10.79s.25-.27.27-.27h4.41v11.96c0,.89-1.18,3.26-1.8,3.95-2.05,2.29-6.83,2.54-9.53,1.44-6.5-2.64-3.27-12.06-4.32-17.35h4.86Z"/>
      <path class="cls-3" d="M45.4,117.64c-.19-.75-1.76-2.93-2.43-3.6-1.39-1.4-1.47-.31-1.54,1.16-.04.88.18,1.59.19,2.34.02,1.89-.03,3.78,0,5.67h-3.78v-16.91c1.31.05,2.63.14,3.93.02,1.61,2.2,3.1,4.49,4.71,6.68.5.68,1.07,1.32,1.62,2.03.16.2.22.63.36.73.24.17,1.09-.05,1.09-.1v-9.35h3.78v16.91h-3.33c-.72,0-2.44-3.75-3.51-3.96-.02-.06.02-.12,0-.18-.11-.38.1-.11-.29-.61-.22-.28-.07-.79-.79-.65-.01-.06.01-.12,0-.18Z"/>
      <path class="cls-3" d="M162.73,108.47c.48.83,1.03,2.15,1.57,2.83.11.15,0,.33.41.23l2.88-5.57h5.22l-5.24,8.54,5.6,9.08h-5.13c-.62-.57-3.09-5.58-3.42-5.58-.34,0-.86.97-1.06,1.27-.63.97-1.61,3.33-2.26,4-.17.18-.27.08-.37.12h-5.04l5.55-8.77c.11-.53-1.93-2.94-2.22-3.66-.08-.21-.06-.44-.1-.52-.04-.1,0-.35-.08-.54-.54-1.32-1.71-2.27-2.08-3.6h4.32c.07,0-.12,1.17.72,1.08.02.05-.02.12,0,.18.16.55.02,1.07.72.9Z"/>
      <path class="cls-1" d="M68.24,110.25c-1.97-.18-3.56-.95-5.65-.7-1.67.2-2.15,1.5-.57,2.38,2.81,1.57,7.41.69,8.14,5.35,1.22,7.78-8.8,7.63-13.58,5.21-.14-.19,1-3.45,1.37-3.56.24-.08,3.2.96,3.95,1.04,1.25.13,4.74.03,3.65-2.03-.65-1.22-4.45-1.79-5.86-2.42-5.32-2.38-3.54-9.26,2.21-9.9,1.35-.15,5.93.32,6.98,1.08.84.6-.58,2.71-.63,3.56Z"/>
      <path class="cls-3" d="M2.21,108.65c.04-.07,1.08-.67,1.38-.87,3.55-2.39,7.51-2.28,11.23-.29-.32.42-1.08,2.65-1.36,2.77-.46.2-.4-.29-.58-.35-.26-.08-1.33-.33-1.59-.36-.75-.08-4.21-.16-4.56.36-.05.07.17.29.17.34-.02.18-1.98,1.77-1.98,2.97v2.7c0,.5.88,2.24,1.26,2.65,1.3,1.43,4.1,1.23,5.76.58.45-.18,1.62-1.04,1.97-.79.03.72,1.88,3.28,1.61,3.74-3.31,2.19-8.03,2.55-11.48.46-1.27-.77-1.91-1.46-2.53-2.77-.03-.07.05-.27,0-.41-.07-.19-.73-.3-.36-1.03l-.36.18c-.01-.12.01-.24,0-.36-.18-1.63-.59-3.95-.37-5.64.02-.13.35-.1.38-.23.06-.33-.2-.63-.19-.86,0-.12.29-.11.36-.23.29-.54.53-1.09.85-1.63.28-.47.34-.8.42-.94Z"/>
      <path class="cls-3" d="M76.35,105.95c.72-.01,1.44,0,2.16,0,.18,0,.36,0,.54,0,.66,0,1.32,0,1.98,0,.42,0,.84,0,1.26,0,.18,0,.36,0,.54,0,.12,0,.24,0,.36,0,.72,0,1.44-.02,2.16,0,.29,0,.88-.06,1.08,0,.26.08.17.24.19.44.04.64.1,3.15-.19,3.52l-.18.18c-.56.12-1.67-.01-2.34,0l-.27-.18-.09.18c-.57.01-1.25-.06-1.8,0l-.09-.18-.09.18c-.06.02-.14.12-.18.18-.2.28-.16.28-.19.61-.13,1.52,0,3.48,0,5.06,0,.3-.11.8.18.99,0,2.22,0,4.44,0,6.66-.24.01-.48-.02-.72,0-1.15-.41-2.56-.07-3.78-.18-.04-.1,0-.38,0-.54-.26-4.26.27-8.74-.09-12.95-.07.04-.07.18-.09.18-.15.03-.37,0-.54,0-.42-.3-1.52-.31-1.98,0-.3-.02-.61.03-.9,0-.03,0-.14-.14-.29-.17-.48-.07-1.02.15-1.33-.28v-3.24c0-.08-.39-.36.27-.46,1.26.16,2.52.22,3.8.2.33,0,.58-.19.61-.19Z"/>
      <rect class="cls-1" x="148.91" y="105.77" width="4.82" height="17.8"/>
      <path class="cls-1" d="M45.4,117.64c-.47.02-.47-.28-.66-.51-.89-1.1-1.71-2.3-2.76-3.27v9.62c0,.45-1.06.09-1.34.08-1.11-.03-2.23.04-3.34,0v-17.62c1.53-.27,3.22.12,4.82.04,2.16,3.19,4.42,6.34,6.87,9.31v-9.35c.71.05,4.86-.52,4.86.27v17.35c-1.1.22-3.3.39-4.31-.1-.53-.25-2.89-3.58-3.07-4.22,1.07.21,2.79,3.96,3.51,3.96h3.33v-16.91h-3.78v9.35c0,.05-.85.27-1.09.1-.14-.1-.2-.52-.36-.73-.55-.71-1.12-1.35-1.62-2.03-1.61-2.19-3.1-4.48-4.71-6.68-1.3.12-2.62.02-3.93-.02v16.91h3.78c-.02-1.89.03-3.78,0-5.67,0-.75-.24-1.46-.19-2.34.07-1.48.15-2.57,1.54-1.16.67.67,2.23,2.85,2.43,3.6Z"/>
      <path class="cls-1" d="M2.21,108.65c3.11-3.39,7.34-3.89,11.66-2.22.25.1,1.44.72,1.47.88l-1.46,3.47c-1.27-.18-2.34-.77-3.67-.87-1.18-.09-2.21,0-3.33.36,0-.05-.22-.27-.17-.34.36-.53,3.82-.44,4.56-.36.27.03,1.33.27,1.59.36.17.05.11.54.58.35.28-.12,1.04-2.35,1.36-2.77-3.72-1.99-7.67-2.1-11.23.29-.3.2-1.34.8-1.38.87-.08.14-.14.47-.42.94-.32.53-.56,1.08-.85,1.63-.07.13-.36.11-.36.23,0,.23.25.53.19.86-.02.13-.36.1-.38.23-.23,1.69.19,4.01.37,5.64-.47.1-.37-.23-.45-.54-.32-1.19-.51-4.36-.08-5.44.05-.13.35-.14.35-.24,0-.23-.24-.52-.19-.85.02-.14,1.18-2.01,1.44-2.33.13-.16.35-.11.36-.13Z"/>
      <path class="cls-1" d="M162.01,107.39c-.84.09-.65-1.08-.72-1.08h-4.32c.37,1.33,1.54,2.27,2.08,3.6.08.19.04.44.08.54-.39.08-.39-.21-.54-.44-.81-1.28-1.56-2.61-2.52-3.79-.07-.15.21-.45.27-.45h4.68c.54,0,.85,1.18.99,1.62Z"/>
      <path class="cls-1" d="M29.93,106.67s.03.21-.4.15c-1.02-.15-2.33-.86-3.64-.88-1.31-.02-2.96.82-3.87.55.68-.34,1.34-.74,2.12-.85,1.9-.27,4.19-.08,5.8,1.03Z"/>
      <path class="cls-2" d="M76.89,122.86l-.18-12.77s.02-.14.09-.18c.36,4.21-.17,8.68.09,12.95Z"/>
      <path class="cls-2" d="M76.35,105.95s-.28.19-.61.19c-1.28.02-2.53-.04-3.8-.2-.66.1-.27.38-.27.46v3.24c.31.43.86.21,1.33.28.15.02.25.16.29.17-.51-.08-1.98.3-1.98-.45v-3.69c1.29-.29,2.72-.2,4.05-.18.3,0,.8-.12.99.18Z"/>
      <path class="cls-2" d="M81.39,116.92c-.3-.19-.18-.68-.18-.99-.02-1.57-.14-3.53,0-5.06.03-.33,0-.33.19-.61v6.65Z"/>
      <path class="cls-2" d="M160.93,123.4c-.89.33-3.34.24-4.41.18-.22-.01-.62.11-.63-.18h5.04Z"/>
      <path class="cls-1" d="M45.4,117.82c.71-.14.57.37.79.65.39.49.18.22.29.61-.66-.1-.94-.67-1.08-1.26Z"/>
      <path class="cls-1" d="M80.67,123.58c-.94.06-2.63.12-3.52,0-.19-.02-.19,0-.26-.18,1.21.11,2.63-.23,3.78.18Z"/>
      <path class="cls-1" d="M162.01,107.57c.37-.1.54.59.72.9-.7.17-.56-.35-.72-.9Z"/>
      <path class="cls-2" d="M76.17,110.09c-.63.03-1.35.03-1.98,0,.46-.31,1.56-.3,1.98,0Z"/>
      <path class="cls-2" d="M82.29,105.95c-.42,0-.84,0-1.26,0,.23-.3,1.03-.3,1.26,0Z"/>
      <path class="cls-1" d="M.77,118.54l.36-.18c-.37.72.29.83.36,1.03.05.14-.03.34,0,.41-.46-.3-.67-.73-.72-1.26Z"/>
      <path class="cls-2" d="M79.05,105.95c-.18,0-.36,0-.54,0,.03-.27.51-.27.54,0Z"/>
      <path class="cls-2" d="M83.19,105.95c-.12,0-.24,0-.36,0l.27-.18.09.18Z"/>
      <path class="cls-2" d="M83.91,110.09c-.12,0-.24,0-.36,0l.09-.18.27.18Z"/>
      <path class="cls-2" d="M81.75,110.09c-.06,0-.13-.01-.18,0l.09-.18.09.18Z"/>
      <path class="cls-2" d="M86.25,110.09l.18-.18c-.05.06-.09.16-.18.18Z"/>
      <path class="cls-3" d="M16.97,71.06c.67.24,1.75-.07,2.23-.55.62-.61.83-1.48,1.35-2.11.32-1.37.66-2.84.75-4.25.19-3.19-.62-6.2.04-9.31.45-2.08,1.54-3.92,1.74-6.17.08-.9.06-2.3-.02-3.21-.2-2.16-1.36-4.66-1.43-6.67-.02-.54.07-1.57.31-2.03.02-.04.68-.56.73-.57.88-.19,2.55.06,3.57,0,14.8-.88,29.27-2.05,43.82,1.88,1.42.38,3.27.98,4.5,1.44s3.14,1.68,4.31,1.72c.06,0,.12,0,.18,0-.09.55.15.31.54.36.03.07-.09.21.11.37.37.31.96.25,1.33.35.22.73,1.08.75,1.73,1.16.78.49.74.86,1.87,1,.06,0,.12,0,.18,0,.12.99.31.6.9.72.52.87,1.8,1.81,2.71,2.42.18.12.5.07.52.1.14.12-.34.19.36.36.39,1.09.95.81,1.34,1.27s-.03.42.82.89c.16.37-.05.74.72.9,0,.06,0,.12,0,.18.06.63.11,2.52,0,3.14-.06.32-.34.43-.36.72-.01.2.3.04.36.09.04.03-.03.26,0,.36-.69-.13-.34.71-.36.9,0,.06,0,.12,0,.18-.48-.11-.34.25-.46.52-.58,1.34-.43,1.38-.62,2.71,0,.06,0,.12,0,.18-.99-.02-.85,1.98-.45,1.98h3.33s.05-.4.18-.59c.08-.11.33-.11.36-.25.17-.78-.22-2.97.73-3.38.19-.08,1.62-.29,1.62-.45v-5.04c.25-.06,2.16.04,2.16.18v8.54s.27.35.32.58c.12.55-.21,1.28.4,1.13.04.44.16.86.18,1.26-.54-.1-.35.27-.36.62-.03.89-.19,1.9-.19,2.7,0,.59.22,3.81.37,4.1.22.4,2.2.42,2.59.29.45-.15.19-.65.3-.92.07-.16.32-.13.35-.25.09-.39-.18-.94-.19-1.4-.13-6.09-.12-12.26-.35-18.26-.04-.95,0-1.92,0-2.88.8.28.85-1.15,0-.9,0-.3-.02-.6,0-.9.74.05.44.02.53-.45.06-.31.65-2.33.73-2.43s1.82-.35,1.44-1.08c.11-.02.24,0,.36,0,6.54-.54,15.94-1.07,22.31,0,.11.02.25-.02.36,0-.02.41.25.48.48.69.87.78,1.93,1.46,2.7,2.24.61.62,1.64,3.09,2.26,3.96.2.28.35.39.68.49.01.06-.01.12,0,.18.56,2.37,2.66,6.45,3.91,8.77.11.2.34.22.36.27.11.23,0,.62.05.67.04.05.55-.03.72,0,.12.21,0,.36.37.62.53.36.79.09.89.1.06,0,.12-.01.18,0-.08.42.41.54.69.66.99.41,2.18.55,3.14.82,1.66.47,3.59.84,5.02,1.78.3.19,1.03,1.22,1.23,1.54.15.23.12.67.2.76.07.08.26-.01.34.02.78,3.66.59,6.96.55,10.71-.02,1.7-.55,3.09.38,4.78.18.34,1.02.81,1.07,1.14.09.7.09,3.1-.02,3.77-.11.63-.92,1.44-.71,2.08-2.11,2.06-6.27.61-9.01,1.16-.42.88-.61,1.86-1.04,2.74-.98,2.01-2.74,3.48-4.53,4.73,5.68.22,11.4.16,17.1.36.59.16,1.66.37,2.25.38.44,0,.59-.2.63-.2.6,0,1.2-.01,1.8,0-.1.54.28.35.62.36.63.02,1.27-.02,1.9,0v.54c-3.09.21-6.18.08-9.28.17-13.77.4-27.6.7-41.37.91-3.54.06-8.37-.43-11.71-.02-.37.05-.37.35-.45.37-.45.15-.8.15-1.26.18.02-.63.11-.5-.44-.54-1.01-.08-2.22-.02-3.26,0-15.92.16-32.08-.16-48.03-.36-10.94-.14-21.86.07-32.75-.54-.9-.05-2.37.32-2.98-.35,1.71-.25,3.44-.08,5.14-.36.34-.06.72.2.62-.36.12,0,.24,0,.36,0-.1.54.28.35.62.36,4.53.18,9.81-.21,14.4-.32.88-.02,2.05.33,3.02-.04.22-.09.4-.75.3-.89-.04-.05-.43-.08-.6-.21-.48-.39-.89-.84-1.24-1.17s-.6-.54-.96-.92c-.3-.31-.36-.26-.78-.22-1.42-1.85-2.13-3.32-2.51-5.68-.39-.28-5.21.04-6.22-.07-1.27-.15-1.28-1.54-1.35-2.6-.13-1.82-.2-5.46,0-7.2.23-1.99,3.49-.95,4.87-1.08,1.87-2.62,4.3-4.51,7.47-5.29-.17-1.66-.19-3.37.06-5.02-.75-.07-4.56-3.74-4.84-3.45-.55,2.62-1.95,5.21-3.45,7.43-1.72,2.54-2.78,4.15-6.18,3.91-1.64-.12-3.63-.78-3.31-2.78.14-.9.61-.83,1.07-1.18ZM87.08,50.28c-14.89-11.95-34.35-13.26-52.74-12.13-.77.14-.34,1.37-.49,2.03-.13.58-1.38,1.58-.41,1.74,2.34.4,4.81.42,7.18.74,7.79,1.06,16,2.54,23.62,4.45,8.06,2.02,15.82,4.93,23.53,7.95l1.53-2.77c-.04-.26-1.85-1.73-2.22-2.02ZM26.33,44.27c.39.47,1.32-2.29,1.36-2.51.23-1.28-1.07-2.1-2.26-1.98l.9,4.49ZM87.14,57.76c-17.81-6.06-36.22-10.62-54.89-13.24l-1.66,4.1c-.11.28-.42.55-.48.78-.11.36.1.21.24.28,3.36,1.48,7.68,2.72,11.23,3.89,11.5,3.81,25.07,8.41,37.04,9.92.97.12,5.44.64,6.01.3.36-.22,2.72-5.73,2.51-6.02ZM107.85,44.81c-1.38.08-2.52.01-2.84,1.57-.5,2.46.21,6.06-.22,8.86-.05.34-.49,1.03,0,1.44v1.08c-.3.19-.18.68-.18.99-.01,1.18-.14,2.58.18,3.69v2.88c-.3.77-.3,2.15,0,2.88,0,1.02,0,2.04,0,3.06-.3.7-.3,2.03,0,2.7,0,3.58-.15,7.24.18,10.79h13.5c1.48-7.35,9.09-12.64,16.56-11.07,4.88,1.03,7.44,4.18,8.45,8.91.05.24.16.59.18.72.04.22-.03.49,0,.72.02.14.18.17.18.18.02.12-.01.24,0,.36,0,.01-.14.1-.12.23.05.39.07,1.25.42,1.37,1.01.34,3.29-.46,4.48-.15.16.03.2-.13.26-.18.03-.02-.02-.12,0-.18.07-.2,0-.15,0-.18.04-.89,0-1.8,0-2.7,0-.06,0-.12,0-.18,0-.96,0-1.92,0-2.88,0-.06,0-.12,0-.18,0-.84.01-1.68,0-2.52,0-.06,0-.12,0-.18-.01-.66,0-1.32,0-1.98h-3.69c-.05,0-.91-.38-.99-.45-.77-.73-.18-1.75.72-2.07.71-.12,3.93.23,4.23-.18.12-.16.19-.73.2-.96.03-1.56-.3-4.16-1.19-5.43-1.17-1.67-6.64-2.4-8.68-2.98-.07-.02-.9-.83-1.4-.35-1.32-.76-1.49-.95-2.3-2.28-2.31-3.81-3.59-8.48-6.08-12.27-.94-1.43-1.95-2.66-3.78-2.87-2.03-.24-5.11-.16-7.27-.2h-10.8ZM29.57,53.89c-.2.69.15,2.25,0,3.06,2.23,1.6,4.67,3.12,7.08,4.44,12.05,6.6,25.99,12.11,39.99,11.49,1.58-.07,3.21-.48,4.82-.4.67-.23,1.33-3.79,1.56-4.55-9.99-.99-19.77-3.37-29.36-6.27-6.84-2.07-13.73-4.47-20.33-6.84-.83-.3-2.57-1.24-3.32-1.19-.17.01-.39.11-.43.26ZM96.24,72.5h-6.75c-.01.7-.15.99.62,1.09,1.21.15,4.53.13,5.75-.03.94-.12.79-.93.37-1.06ZM35.29,75.25c-2.63.21-4.89,1.3-6.3,3.6-.4.65-2.46,4.66-.38,3.77.92-.39,1.46-2.29,2.06-3.16,2.28-3.3,5.13-2.31,8.51-2.27,8.38.09,16.77-.12,25.16.03,2.39.59,3.51,1.72,4.66,3.79.51.92.83,2.89,1.99,2.6,1.69-.43.14-2.83-.44-3.79-4.42-7.33-11.47-3.14-18.4-4.45-5.4.47-11.59-.55-16.87-.12ZM99.9,77.51c.16-.27.05-1.1-.42-1.06l-9.09.18c0,.45-.13,1.02.45,1.08,1.11-.12,8.79.24,9.06-.2ZM140.06,86.35c-.42-6.91-8.49-10.17-13.49-5.3-.04.46.06.2.31.13,1.38-.38,2.31-1,3.92-1.12,5.02-.37,6.56,2.19,8.82,5.94.14.23-.04.46.45.35ZM48.46,86.17c-.68-5.17-5.89-8.73-10.92-6.51-.26.12-2.13,1.2-2.21,1.3-.66.78,1.63-.23,1.8-.27,3.02-.81,5.55-.75,8.01,1.35,1.34,1.14,1.74,2.47,2.75,3.73.17.21.2.49.58.41ZM69.16,86.89c.22-5.63-5.64-9.8-10.81-7.11-.24.13-1.91,1.34-1.97,1.45-.16.31.11.29.37.19,2.88-1.11,5.13-2.01,8.07-.18,2.26,1.41,2.6,3.12,3.79,5.21.14.25.15.52.55.44ZM24.35,80.5c-.18.6,0,3.59,0,4.5,0,.27.27.56.6.42.84-.33.3-1.23.29-1.86,0-.49.13-3.22,0-3.34-.1-.09-.82,0-.9.27ZM73.93,82.03h25.73s.45-.19.46-.3c-.01-2-1.67-1.16-2.97-1.14-7.67.16-15.36.08-23.04.17-.62-.03-.58,1.13-.18,1.26ZM44.46,87.8c0-2.54-2.06-4.6-4.6-4.6s-4.6,2.06-4.6,4.6,2.06,4.6,4.6,4.6,4.6-2.06,4.6-4.6ZM65.31,87.84c0-2.56-2.07-4.63-4.63-4.63s-4.63,2.07-4.63,4.63,2.07,4.63,4.63,4.63,4.63-2.07,4.63-4.63ZM136.29,87.8c0-2.54-2.06-4.59-4.6-4.59s-4.6,2.06-4.6,4.59,2.06,4.59,4.6,4.59,4.6-2.06,4.6-4.59ZM102.81,89.95c-.75-.36-.82-1.4-1.02-1.45l-27.66.03c-.39.13-.7,2.26-.93,2.85-.72,1.92-2.69,4.31-4.59,5.04.32.58,1.4,0,2.06.37h54.98c-1.76-1.33-3.29-2.84-4.23-4.86-.22-.46-.36-1.54-.63-1.8-.65-.62-15.89.1-18-.18ZM55.3,96.42s-.41-.07-.6-.21c-.72-.53-1.52-1.18-2.1-1.86s-1.08-1.94-1.53-2.43c-.5-.55-.49.22-.77.65-1.17,1.86-2.07,2.41-3.51,3.87-.16.16-.39.15-.3.51,1.88-.05,3.78.08,5.67,0,.31-.01.6-.16.9-.18.64-.04,1.37.08,1.98,0,.25-.03.53-.1.27-.36Z"/>
      <path class="cls-1" d="M16.97,71.06s-.05-.25.03-.32c.17-.14,1.24.05,2.02-.78,2.89-3.03,1.22-9.95,1.55-13.74.22-2.57,1.78-5.11,1.98-7.91.29-3.97-1.8-7.64-1.22-11.11.39-2.32,3.82-1.47,5.63-1.56,15.11-.77,35.02-2.62,48.9,4.18.64.31,1.41.32,2.14.69.17.08.59.59.87.7-1.17-.03-3.13-1.27-4.31-1.72s-3.08-1.05-4.5-1.44c-14.55-3.93-29.02-2.76-43.82-1.88-1.02.06-2.69-.19-3.57,0-.05.01-.71.53-.73.57-.24.46-.33,1.49-.31,2.03.07,2.01,1.23,4.52,1.43,6.67.08.91.1,2.31.02,3.21-.2,2.25-1.3,4.09-1.74,6.17-.67,3.1.15,6.11-.04,9.31-.09,1.42-.42,2.88-.75,4.25-.52.63-.73,1.5-1.35,2.11-.49.48-1.56.79-2.23.55Z"/>
      <path class="cls-1" d="M16.25,97.5c.1.57-.28.31-.62.36-1.7.28-3.43.11-5.14.36.61.67,2.08.3,2.98.35,10.89.61,21.81.4,32.75.54,15.96.2,32.11.52,48.03.36,1.03-.01,2.25-.07,3.26,0,.55.04.46-.09.44.54-7.73.47-15.75-.13-23.48-.19-17.4-.12-34.81-.12-52.19-.54-4.06-.1-8.1-.12-12.16-.35-.06-.64-.03-1.07.67-1.22,1.53-.32,3.83-.15,5.45-.22Z"/>
      <path class="cls-1" d="M102.09,50.92c.24,6,.22,12.17.35,18.26,0,.45.28,1.01.19,1.4-.03.13-.29.09-.35.25-.11.27.15.77-.3.92-.39.13-2.37.11-2.59-.29-.16-.29-.37-3.51-.37-4.1,0-.8.16-1.81.19-2.7.01-.35-.18-.72.36-.62.1,2.4-.1,4.8.18,7.19h2.16s.18-20.32.18-20.32Z"/>
      <path class="cls-1" d="M99.39,62.79c-.61.15-.28-.59-.4-1.13-.05-.23-.32-.54-.32-.58v-8.54c0-.14-1.91-.24-2.16-.18v5.04c0,.16-1.43.37-1.62.45-.95.41-.55,2.6-.73,3.38-.03.15-.28.14-.36.25-.13.19-.15.59-.18.59h-3.33c-.4,0-.54-2,.45-1.98-.07.6-.33,1.04-.36,1.62h3.06c.1-1.11.13-3.87,1.3-4.36.42-.18,1.12-.08,1.4-.31.16-.14.21-.2.19-.43l-.19-1.55c0,.54,0,1.08,0,1.62-.43-.56-.14-1.38,0-1.98.05-.2.34-.51.18-.9l-.18.18c-.04-.47-.36-1.83-.01-2.08.46-.33,2.83-.15,3.04.77-.02,1.48.06,2.97.04,4.46-.03,2.14,0,3.57.17,5.66Z"/>
      <path class="cls-1" d="M140.42,60.27c1.75.3,6.11,1.45,7.68,2.12.38.17,1.82,1.07,2.04,1.38.53.74.72,1.27.89,2.07.07.03.25-.06.33.02.04.04.29.86.33,1.02,1.18,4.24-.31,8.98.25,13.06.21,1.57,1.42,1.38,1.6,3.25.18,1.87.13,3.77-1.26,5.12-.21-.64.6-1.45.71-2.08.11-.68.11-3.07.02-3.77-.04-.33-.88-.8-1.07-1.14-.92-1.69-.4-3.09-.38-4.78.04-3.75.24-7.04-.55-10.71-.07-.03-.27.06-.34-.02-.08-.09-.05-.53-.2-.76-.21-.32-.94-1.35-1.23-1.54-1.44-.94-3.36-1.31-5.02-1.78-.96-.27-2.14-.41-3.14-.82-.28-.12-.77-.24-.69-.66Z"/>
      <path class="cls-1" d="M31.37,94.08c.43-.04.48-.09.78.22.37.38.6.58.96.92s.76.79,1.24,1.17c.17.14.57.16.6.21.1.13-.08.8-.3.89-.96.37-2.14.02-3.02.04-4.59.11-9.87.5-14.4.32-.35-.01-.72.18-.62-.36,3.51-.13,7.16-.26,10.7-.37,2.31-.07,4.63,0,6.94-.17-.8-.96-1.89-1.46-2.71-2.43-.13-.16-.13-.39-.17-.45Z"/>
      <path class="cls-1" d="M105.15,42.29c-.14-.47.59-.45.86-.49,5.9-.72,13.83-.76,19.74-.23.31.03,1.8.2,1.71.72-6.37-1.07-15.78-.54-22.31,0Z"/>
      <path class="cls-1" d="M133.94,49.84c.96.03.47,1.38.54,1.44.05.04.37-.1.56.11.28.31.89,2.27,1.08,2.8,1.05,1.66,1.87,3.59,2.86,5.36.45.08,1.03.31,1.26.72-.1-.01-.36.26-.89-.1-.37-.25-.25-.4-.37-.62-.17-.03-.68.05-.72,0s.06-.44-.05-.67c-.02-.05-.26-.08-.36-.27-1.25-2.32-3.35-6.4-3.91-8.77Z"/>
      <path class="cls-1" d="M133.94,49.66c-.32-.1-.48-.21-.68-.49-.62-.87-1.65-3.34-2.26-3.96-.77-.77-1.83-1.46-2.7-2.24-.23-.21-.5-.28-.48-.69,2.12.37,5.72,5.41,6.12,7.37Z"/>
      <path class="cls-1" d="M92.19,51.28c.43-.09.41.19.49.49.28,1.08.11,1.81-.09,2.87-.06.29.1.66-.39.59-.07-.06-.37.1-.36-.09.02-.29.3-.4.36-.72.11-.62.06-2.52,0-3.14Z"/>
      <path class="cls-1" d="M85.71,45.17c.81.16,2.13,1.22,2.79,1.8.34.3.42.69.45.72.21.17.13-.29.36.36.97.23,1.79,1.3,2.16,2.16.52.29.66.06.72.9-.77-.16-.56-.52-.72-.9-.85-.47-.42-.43-.82-.89s-.95-.18-1.34-1.27c-.7-.17-.22-.24-.36-.36-.03-.03-.35.02-.52-.1-.91-.61-2.2-1.55-2.71-2.42-.59-.12-.78.27-.9-.72.76.08.64.28.9.72Z"/>
      <path class="cls-1" d="M79.59,41.57c.84.11,1,.46,1.44.36.02.11-.03.27,0,.36,1.01.28,1.73.65,2.64,1.22.3.18.98.52.96.93-1.13-.15-1.09-.51-1.87-1-.65-.41-1.51-.42-1.73-1.16-.36-.1-.95-.04-1.33-.35-.2-.17-.08-.3-.11-.37-.39-.05-.63.19-.54-.36.34,0,.12-.47.54.36Z"/>
      <path class="cls-1" d="M104.79,42.29c.38.73-1.36.98-1.44,1.08s-.67,2.12-.73,2.43c-.09.47.21.5-.53.45.07-1.1.23-1.84.9-2.75.13-.17.35-.11.36-.12.07-.08.04-.36.36-.62.25-.21.75-.4,1.08-.46Z"/>
      <path class="cls-1" d="M91.83,56.68c-.13,1.09-.39,2.36-1.08,3.24.19-1.33.05-1.37.62-2.71.12-.27-.02-.63.46-.52Z"/>
      <path class="cls-1" d="M157.69,97.5s-.19.2-.63.2c-.59,0-1.66-.22-2.25-.38.94.03,2.05-.18,2.88.18Z"/>
      <path class="cls-1" d="M102.09,47.14c.85-.25.8,1.18,0,.9,0-.3,0-.6,0-.9Z"/>
      <path class="cls-1" d="M92.19,55.6c.15.46.13.6-.36.9.02-.19-.33-1.03.36-.9Z"/>
      <path class="cls-3" d="M96.15,57.03v-.36c0-.54,0-1.08,0-1.62l.19,1.55c.02.23-.03.29-.19.43Z"/>
      <path class="cls-3" d="M96.15,54.7c-.02-.24.02-.48,0-.72l.18-.18c.16.39-.13.69-.18.9Z"/>
      <path class="cls-4" d="M107.85,44.81c3.38-.2,7.37-.07,10.8,0,2.16.04,5.23-.04,7.27.2,1.83.22,2.84,1.44,3.78,2.87,2.49,3.79,3.76,8.46,6.08,12.27.81,1.34.98,1.53,2.3,2.28,2.29,1.31,4.88,1.41,7.37,2.26,1.54.52,2.36.86,2.92,2.48.21.6.64,4.51.43,4.81-.24.34-3.02.04-3.88.35s-1.49,1.33-.72,2.07c.08.07.93.45.99.45h3.69c0,.66-.01,1.32,0,1.98v.18c.01.84,0,1.68,0,2.52v.18c0,.96,0,1.92,0,2.88v.18c0,.89.04,1.81,0,2.7v.18c-.02.06.03.16,0,.18-.65-.13-4.69.17-4.86,0-.1-.1.2-1.07-.18-1.26-.01-.12.02-.24,0-.36l-.18-.18c-.03-.22.04-.5,0-.72l-.18-.72c-1.01-4.73-3.57-7.88-8.45-8.91-7.48-1.57-15.08,3.72-16.56,11.07h-13.5c-.33-3.55-.17-7.21-.18-10.79,0-.9,0-1.8,0-2.7,0-1.02,0-2.04,0-3.06,0-.96,0-1.92,0-2.88v-10.07c.43-2.8-.28-6.4.22-8.86.32-1.56,1.46-1.49,2.84-1.57ZM112.71,48.22c-.65.15-.85,1.14-.91,1.7-.31,3.33.55,7.21.18,10.62.13,1.08.78,1.73,1.89,1.71,5.35-.31,11.09.38,16.39,0,1.39-.1,2.41-.32,1.98-1.99-1.99-3.15-3.33-7.4-5.45-10.38-.25-.35-.89-1.11-1.24-1.29-.35-.18-.53,0-.66-.03-.12-.03-.02-.3-.66-.35h-11.52ZM118.1,67.29c-.04-.41.17-2.34-.27-2.34h-5.67c-.16,0-.23,2.06-.18,2.34h6.12ZM118.82,77.18h-13.68v7.19h9.99l1.64-3.75,2.05-3.44ZM148.7,82.39v-4.95s-.25-.27-.27-.27h-3.69c.31,1.03.72,2.01.99,3.06.11.42.25,1.84.35,1.99.25.37,2.09.08,2.62.17Z"/>
      <path class="cls-5" d="M87.14,57.76c.21.29-2.15,5.8-2.51,6.02-.57.34-5.03-.18-6.01-.3-11.97-1.51-25.55-6.11-37.04-9.92-3.54-1.17-7.87-2.41-11.23-3.89-.15-.06-.35.09-.24-.28.07-.23.37-.5.48-.78l1.66-4.1c18.67,2.62,37.08,7.18,54.89,13.24Z"/>
      <path class="cls-6" d="M87.08,50.28c.36.29,2.17,1.76,2.22,2.02l-1.53,2.77c-7.72-3.02-15.48-5.92-23.53-7.95-7.62-1.91-15.83-3.39-23.62-4.45-2.36-.32-4.83-.34-7.18-.74-.97-.17.28-1.16.41-1.74.15-.66-.29-1.89.49-2.03,18.4-1.13,37.85.18,52.74,12.13Z"/>
      <path class="cls-6" d="M29.57,53.89c.04-.15.26-.25.43-.26.75-.05,2.49.89,3.32,1.19,6.61,2.37,13.49,4.77,20.33,6.84,9.59,2.9,19.37,5.28,29.36,6.27-.24.77-.89,4.32-1.56,4.55-1.61-.09-3.25.33-4.82.4-14,.63-27.94-4.89-39.99-11.49-2.41-1.32-4.85-2.84-7.08-4.44.15-.81-.2-2.37,0-3.06Z"/>
      <path class="cls-5" d="M35.29,75.25c5.28-.43,11.47.59,16.87.12,6.94,1.31,13.99-2.88,18.4,4.45.58.96,2.13,3.36.44,3.79-1.16.29-1.48-1.68-1.99-2.6-1.16-2.08-2.28-3.2-4.66-3.79-8.38-.15-16.77.06-25.16-.03-3.38-.04-6.22-1.03-8.51,2.27-.6.87-1.14,2.77-2.06,3.16-2.09.89-.02-3.11.38-3.77,1.41-2.3,3.67-3.38,6.3-3.6Z"/>
      <path class="cls-5" d="M65.31,87.84c0,2.56-2.07,4.63-4.63,4.63s-4.63-2.07-4.63-4.63,2.07-4.63,4.63-4.63,4.63,2.07,4.63,4.63ZM59.93,85.13c-.4.09-1.21.71-1.47,1.05-2.3,3.07,2.48,6.21,4.48,3.21,1.46-2.19-.67-4.8-3.01-4.27Z"/>
      <path class="cls-5" d="M44.46,87.8c0,2.54-2.06,4.6-4.6,4.6s-4.6-2.06-4.6-4.6,2.06-4.6,4.6-4.6,4.6,2.06,4.6,4.6ZM42.57,87.8c0-1.5-1.22-2.72-2.72-2.72s-2.72,1.22-2.72,2.72,1.22,2.72,2.72,2.72,2.72-1.22,2.72-2.72Z"/>
      <path class="cls-5" d="M136.29,87.8c0,2.54-2.06,4.59-4.6,4.59s-4.6-2.06-4.6-4.59,2.06-4.59,4.6-4.59,4.6,2.06,4.6,4.59ZM134.39,87.83c0-1.51-1.22-2.73-2.73-2.73s-2.73,1.22-2.73,2.73,1.22,2.73,2.73,2.73,2.73-1.22,2.73-2.73Z"/>
      <path class="cls-2" d="M73.93,82.03c-.4-.13-.44-1.29.18-1.26,7.68-.09,15.37-.01,23.04-.17,1.3-.03,2.96-.87,2.97,1.14-.01.1-.43.3-.46.3h-25.73Z"/>
      <path class="cls-2" d="M69.16,86.89c-.4.08-.41-.2-.55-.44-1.18-2.09-1.53-3.79-3.79-5.21-2.94-1.84-5.19-.93-8.07.18-.26.1-.53.12-.37-.19.06-.11,1.73-1.32,1.97-1.45,5.16-2.69,11.03,1.48,10.81,7.11Z"/>
      <path class="cls-5" d="M140.06,86.35c-.48.1-.31-.13-.45-.35-2.26-3.75-3.8-6.3-8.82-5.94-1.61.12-2.54.74-3.92,1.12-.25.07-.35.33-.31-.13,5-4.87,13.07-1.61,13.49,5.3Z"/>
      <path class="cls-2" d="M48.46,86.17c-.37.08-.41-.2-.58-.41-1.01-1.26-1.4-2.59-2.75-3.73-2.46-2.1-5-2.15-8.01-1.35-.16.04-2.45,1.06-1.8.27.08-.1,1.95-1.18,2.21-1.3,5.03-2.22,10.24,1.33,10.92,6.51Z"/>
      <path class="cls-2" d="M99.9,77.51c-.27.44-7.95.08-9.06.2-.58-.05-.46-.63-.45-1.08l9.09-.18c.48-.04.59.79.42,1.06Z"/>
      <path class="cls-1" d="M138.08,62.43c.5-.48,1.32.33,1.4.35,2.04.58,7.51,1.31,8.68,2.98.89,1.27,1.22,3.87,1.19,5.43,0,.24-.08.8-.2.96-.3.41-3.52.06-4.23.18.86-.31,3.64,0,3.88-.35.21-.3-.22-4.2-.43-4.81-.55-1.61-1.38-1.96-2.92-2.48-2.49-.85-5.08-.95-7.37-2.26Z"/>
      <path class="cls-2" d="M96.24,72.5c.41.13.56.94-.37,1.06-1.22.15-4.54.18-5.75.03-.77-.09-.63-.38-.62-1.09h6.75Z"/>
      <path class="cls-5" d="M26.33,44.27l-.9-4.49c1.19-.12,2.5.7,2.26,1.98-.04.22-.97,2.98-1.36,2.51Z"/>
      <path class="cls-2" d="M24.35,80.5c.08-.26.8-.36.9-.27.12.12-.02,2.84,0,3.34.01.63.55,1.53-.29,1.86-.33.13-.6-.15-.6-.42,0-.9-.18-3.9,0-4.5Z"/>
      <path class="cls-2" d="M120.8,90.13h-17.38c-.3.1-.43-.09-.61-.18,2.11.28,17.34-.44,18,.18Z"/>
      <path class="cls-2" d="M118.64,44.81c-3.42-.07-7.42-.2-10.8,0h10.8Z"/>
      <path class="cls-2" d="M143.84,84.55c.38.19.08,1.16.18,1.26.17.17,4.21-.13,4.86,0-.06.05-.1.21-.26.18-1.2-.31-3.47.49-4.48.15-.34-.11-.37-.98-.42-1.37-.02-.13.12-.22.12-.23Z"/>
      <path class="cls-1" d="M104.79,62.43c-.32-1.11-.2-2.51-.18-3.69,0-.3-.11-.8.18-.99v4.68Z"/>
      <path class="cls-1" d="M104.79,68.18c-.3-.73-.3-2.11,0-2.88,0,.96,0,1.92,0,2.88Z"/>
      <path class="cls-1" d="M104.79,73.94c-.3-.67-.3-1.99,0-2.7,0,.9,0,1.8,0,2.7Z"/>
      <path class="cls-1" d="M104.79,56.68c-.49-.41-.05-1.09,0-1.44v1.44Z"/>
      <path class="cls-2" d="M143.66,83.29c-.02-.13-.13-.48-.18-.72l.18.72Z"/>
      <path class="cls-2" d="M148.88,85.63v-.18s.07-.02,0,.18Z"/>
      <path class="cls-2" d="M143.84,84.19s-.16-.04-.18-.18l.18.18Z"/>
      <path class="cls-2" d="M148.88,82.75v-.18c0,.06,0,.12,0,.18Z"/>
      <path class="cls-2" d="M148.88,79.69v-.18c0,.06,0,.12,0,.18Z"/>
      <path class="cls-2" d="M148.88,77v-.18c0,.06,0,.12,0,.18Z"/>
      <path class="cls-3" d="M124.22,48.22c.64.05.54.31.66.35.13.03.31-.16.66.03.36.18.99.94,1.24,1.29,2.12,2.98,3.46,7.23,5.45,10.38.44,1.67-.58,1.89-1.98,1.99-5.3.38-11.04-.31-16.39,0-1.11.02-1.76-.63-1.89-1.71.37-3.42-.5-7.29-.18-10.62.05-.56.26-1.55.91-1.7h11.52ZM124.13,50.74h-9.27v8.36s.25.27.27.27h13.14c.11,0,.38-.37.19-.55l-3.87-7.78c-.07-.11-.35-.29-.46-.31Z"/>
      <polygon class="cls-5" points="118.82 77.18 116.78 80.62 115.13 84.37 105.15 84.37 105.15 77.18 118.82 77.18"/>
      <path class="cls-5" d="M148.7,82.39c-.53-.09-2.37.2-2.62-.17-.1-.15-.24-1.57-.35-1.99-.27-1.04-.68-2.03-.99-3.06h3.69s.27.25.27.27v4.95Z"/>
      <path class="cls-1" d="M118.1,67.29h-6.12c-.05-.28.02-2.34.18-2.34h5.67c.44,0,.23,1.93.27,2.34ZM117.74,65.31h-5.4c-.04.78-.16,1.73.79,1.81,1.53.13,3.08-.17,4.61-.19v-1.62Z"/>
      <path class="cls-1" d="M59.93,85.13c2.34-.53,4.47,2.07,3.01,4.27-2,2.99-6.77-.14-4.48-3.21.25-.34,1.07-.96,1.47-1.05Z"/>
      <circle class="cls-1" cx="39.85" cy="87.8" r="2.72"/>
      <circle class="cls-1" cx="131.66" cy="87.83" r="2.73"/>
      <path class="cls-2" d="M124.13,50.74c.11.02.39.2.46.31l3.87,7.78c.19.18-.08.55-.19.55h-13.14s-.27-.25-.27-.27v-8.36h9.27Z"/>
      <path class="cls-2" d="M117.74,65.31v1.62c-1.52.02-3.07.33-4.61.19-.95-.08-.83-1.03-.79-1.81h5.4Z"/>
      <path class="cls-1" d="M117.56,4.25c.18-.56,3.57-.51,4.23-.45,3.07.3,4.9,2.86,2.43,5.3,2.33,1.38,1.74,4.2-.73,5.03-1.84.62-3.6.29-5.48.27-.15,0-.45-.17-.45-.27V4.25ZM120.08,8.12c3.67.61,3.66-2.91,0-2.34v2.34ZM120.17,9.96c-.4.07-.37,2.2-.09,2.39.22.16,1.7.12,2.04.04,1.06-.24,1.39-1.78.49-2.21-.11-.05-2.32-.25-2.44-.22Z"/>
      <path class="cls-1" d="M43.42,8.84c-.19.46-1.65,3.64-1.83,3.75-.23.15-1.11-.03-1.47.04l-2.28-4.32-.44,5.95c-.17.25-2.73.48-2.46-.46l.99-9.63c.18-.27,2.13-.32,2.45.09l2.33,5.14c.27.21,1.95-3.77,2.12-4.09.12-.23.34-.31.4-.4.63.54.74-.53.82-.55.3-.08,1.29-.11,1.25.36l.81,9.18h-1.44s-.54-5.94-.54-5.94c-.55-.47-.6.61-.72.9Z"/>
      <path class="cls-1" d="M24.33,9.17c0,3.03-2.45,5.48-5.48,5.48s-5.48-2.45-5.48-5.48,2.45-5.48,5.48-5.48,5.48,2.45,5.48,5.48ZM16.67,6.73c-1.09,1.28-.88,4.66.89,5.38,5.36,2.18,5.88-7.43.3-6.08-.29.07-1.01.49-1.19.7Z"/>
      <path class="cls-1" d="M179.9,9.17c0,3.01-2.44,5.45-5.45,5.45s-5.45-2.44-5.45-5.45,2.44-5.45,5.45-5.45,5.45,2.44,5.45,5.45ZM173.66,6c-2.78.51-2.93,6.7,1.01,6.42,3.87-.27,3.67-7.28-1.01-6.42Z"/>
      <path class="cls-1" d="M158.77,3.98c3.92-.87,9.44.39,9.37,5.31-.06,4.85-5.01,5.83-8.92,5.12-.15-.03-.45-.14-.45-.27V3.98ZM161.11,6.23v5.93c0,.58,2.43.17,2.95-.11,2.17-1.21,1.95-5.05-.42-5.82-.46-.15-2.37-.5-2.52,0Z"/>
      <path class="cls-1" d="M73.68,9.17c0,3-2.43,5.43-5.44,5.43s-5.44-2.43-5.44-5.43,2.43-5.43,5.44-5.43,5.44,2.43,5.44,5.43ZM67.49,6c-2.59.48-2.7,5.55-.32,6.17,5.31,1.38,5.38-7.1.32-6.17Z"/>
      <path class="cls-1" d="M25.61,4.16c1.8-.38,4.92-.71,6.47.46.13.1,1.13,1.13,1.16,1.21.14.36-.08.57-.06.74.01.13.35.09.37.22,0,.06,0,1.13,0,1.22,0,.12-.34.08-.36.21-.03.2.26.44,0,.84s-1.47,1.07-1.42,1.63c.04.53,2.49,3.37,2.13,3.71-.68-.11-1.94.19-2.52-.09-.54-.26-1.78-3.16-2.01-3.3s-.91.03-1.23-.03v3.42c-.39-.05-2.52.18-2.52-.27V4.16ZM28.13,5.96v2.88c1.4,0,2.96.38,2.9-1.53-.05-1.56-1.72-1.39-2.9-1.35Z"/>
      <path class="cls-1" d="M137,7.76c.08,1.05-.09,1.9-.18,2.88-.01.15.16.38.1.72-.02.1-.72,1.23-.81,1.34-.61.72-1.04.72-1.8,1.17-.31-.03-.63.03-.72.36-.28.03-.61-.01-.9,0-.47.02-.97.02-1.44,0-.24-.01-.49.02-.72,0l-.72-.18c-3.87-1.41-3.96-7.47-.6-9.51,2.93-1.78,7.51-.52,7.8,3.21ZM134.06,6.56c-.77-.8-2.89-.86-3.73-.16-2.51,2.07-.48,7.65,3.14,5.65,1.51-.84,1.65-4.39.59-5.49Z"/>
      <path class="cls-1" d="M138.98,3.98c1.68-.13,3.42-.4,5.08.05,2.4.66,3.5,3.37,1.94,5.43-.24.32-1.08.85-1.09.92-.12.74,2.37,3.25,1.92,3.85-.23.31-1.95.22-2.32,0-.47-.28-1.64-2.97-1.97-3.21-.17-.12-1.22-.31-1.22.05v3.06c0,.44-1.93.23-2.34.27V3.98ZM141.32,8.84c3.91.69,3.9-3.57,0-2.88v2.88Z"/>
      <path class="cls-1" d="M61.6,8.66c.02.93-.02,1.86,0,2.79.02,1.64.72,2.27-1.43,2.87-4.73,1.33-8.4-1.47-7.73-6.46.25-1.81,2.42-3.81,4.23-4.04,1.19-.15,4.59-.28,4.35,1.46-.27,1.97-1.21.8-2.39.67-2.03-.22-3.37.58-3.64,2.65-.26,1.95.45,3.49,2.55,3.65.32.02,1.82.06,1.9-.31.38-1.65-.42-.93-1.15-1.16-.52-.17-.36-2.13-.02-2.13h3.33Z"/>
      <path class="cls-1" d="M92.55,5.96v2.16h3.96c.14,0,.41,2.16-.27,2.16h-3.69v2.16h4.41c.4,0,.4,1.98,0,1.98h-6.93V4.25c0-.24,1.85-.42,2.25-.45.8-.05,3.68-.14,4.28.03.79.23.54,2.12.22,2.12h-4.23Z"/>
      <path class="cls-1" d="M116.66,14.41c-.58-.1-1.89.19-2.34-.09-.38-.23-.83-1.99-.92-2.05-.15-.1-3.39-.08-3.64,0-.58.2-.71,1.84-1.01,2.05-.26.17-2.08.16-2.27-.09-.33-.44,3.59-9.01,4.06-10.17.31-.19,1.91-.23,2.14.2l3.98,10.14ZM112.71,10.46l-1.17-3.42c-.59,1.07-1.05,2.22-1.35,3.42h2.52Z"/>
      <path class="cls-1" d="M79.95,11.17c-.5-1.43-.5-.96-1.26-1.93-.14-.18-.1-.52-.24-.71-.24-.32-.99-.48-1.39-.41v5.75c-1.06-.06-1.54.41-1.57-.86-.05-2.07-.12-6.11.12-8.05.08-.62.18-.64.81-.63.99.02.69.44.99.77.85.97,1.68,2.03,2.43,3.02.63.82.87,1.96,2.26,1.97v-5.75c.57-.02,1.49-.06,1.62.63-.12,1.12.24,8.6-.21,8.88-.11.07-1.11.07-1.3.02-.15-.04-.1-.36-.21-.36-.34-.02-.25.19-.27.18-.39-.03-1.64-2.06-1.8-2.52Z"/>
      <path class="cls-1" d="M8.15,10.28c.21-.39,1-.06,1.26-.18v-.18s-4.41,0-4.41,0c-.02,0-.27.25-.27.27v3.69h-1.44V4.97c0-.58.97-.75,1.44-.63v3.96s.35-.08.49.05c.1.09.04.31.05.31h3.15c.05,0,1-.19.99-.36-1.22-.12-2.69.15-3.88,0-.18-.02-.2,0-.26-.18,1.37-.05,2.77.07,4.14,0,.12,0,.24,0,.36,0,.14-.69-.22-3.19.08-3.61.23-.33,1.3-.11,1.72-.17-.27,1.18.35,9.21,0,9.53-.07.06-.57-.09-.71.02-.07.05.02.28-.01.34-.13.28-.43.18-.72.18.29-.65-.35-.91-.37-1.16-.1-.89.1-1.97.02-2.89-.24-.29-.18.13-.18.27-.38-.09-1.11-.33-1.44-.36Z"/>
      <path class="cls-1" d="M106.05,12.43c-.02.36.14,1.98-.27,1.98h-6.93c-.16-1.2-.44-10.06-.01-10.35.18-.12,1.62-.13,1.9-.08,1,.19.45,2.32.44,2.96-.02,1.43-.16,3.53,0,4.87.02.18.08.62.28.62h4.59Z"/>
      <path class="cls-3" d="M150.32,12.61c-.08.05-.31-.02-.45.18-.16.23-.16.97-.3,1.06-.08.05-1.78.2-1.59-.24l3.95-9.18c1.95-.66,2.02,1.94,2.54,3.18.02.05.5.83.7.69,0,.06,0,.12,0,.18.03.39.57,2.32.75,2.5.08.08.23,0,.33.02.11.48.04,1.63.72,1.62,0,.06,0,.12,0,.18.01.36,0,.72,0,1.08-.4-.06-.97.09-1.32,0s-.19-1.7-1.33-1.95c-.36-.08-3.69-.16-3.83-.04-.06.05.04.41,0,.54s-.09.12-.18.18ZM151.22,10.46h2.52c-.16-.74-.56-2.51-.9-3.11-.11-.19-.31-.18-.45-.12-.16.07-1.07,2.82-1.17,3.24Z"/>
      <path class="cls-1" d="M50.8,3.98v10.16c0,.31-2.45.56-2.43-.08V4.15c.25-.36,1.91-.08,2.43-.17Z"/>
      <path class="cls-3" d="M79.95,11.17c-.36.03-.7-.55-.9-.81-.44-.57-.92-1.66-1.62-1.89v5.67c0,.51-1.48-.06-1.72-.07-.06,0-.44,1-.75-.15l.12-9.85c.65-.11,1.71-.24,2.28.08,1.45,1.64,2.56,3.57,3.89,5.28.16.2.18.37.51.3V3.98h2.34v10.43c-.9-.1-2.06.42-2.34-.72.02,0-.07-.2.27-.18.11,0,.06.33.21.36.18.05,1.19.04,1.3-.02.45-.28.08-7.76.21-8.88-.13-.69-1.05-.65-1.62-.63v5.75c-1.39-.02-1.63-1.15-2.26-1.97-.75-.99-1.58-2.05-2.43-3.02-.29-.33,0-.75-.99-.77-.63-.01-.74,0-.81.63-.24,1.94-.17,5.99-.12,8.05.03,1.26.51.8,1.57.86v-5.75c.39-.07,1.15.09,1.39.41.14.19.09.53.24.71.76.97.75.5,1.26,1.93Z"/>
      <path class="cls-3" d="M5.27,8.12c.06.18.08.16.26.18,1.19.15,2.66-.12,3.88,0,.01.17-.94.36-.99.36h-3.15s.04-.22-.05-.31c-.14-.13-.49-.03-.49-.05v-3.96c-.47-.12-1.44.05-1.44.63v8.9h1.44v-3.69s.25-.27.27-.27h4.41v.18c-.26.12-1.05-.21-1.26.18-.49-.05-1.12-.02-1.62,0-.25-.34-.87-.14-1.26-.18,0,.12,0,.24,0,.36-.06,1.31.05,2.65,0,3.96-.58-.05-2.11.19-2.43-.36.06-1.3-.4-9.35,0-9.9.19-.27,2.18-.27,2.36,0,.34.49-.16,3.25.08,3.97Z"/>
      <path class="cls-1" d="M150.32,12.61c.03.44-.23,1.62-.66,1.77-.44.15-2.48.24-2.22-.59l3.98-9.8c.77.06,1.55-.29,2.28.02.32,1.25,1.19,2.59,1.55,3.78.12.4-.07.46-.07.49-.19.15-.68-.64-.7-.69-.52-1.24-.6-3.84-2.54-3.18l-3.95,9.18c-.18.45,1.51.3,1.59.24.14-.09.14-.83.3-1.06.14-.2.37-.12.45-.18Z"/>
      <path class="cls-1" d="M70.6.03c.07.29-.06.42-.17.63-.14.26-1.67,2.43-1.81,2.51-.41.25-1.3.02-1.8.09-.17-.16,1.44-2.88,1.7-3.07.5-.36,1.46-.09,2.08-.17Z"/>
      <path class="cls-3" d="M45.58,4.16c.12.58-.33,1.95.36,1.8.13,1.41.08,2.95.18,4.32s.25,2.64.36,3.96c-.24.25-1.52.27-1.86.19-.26-.06-.24-.69-.3-.91v-.18c-.06-.23-.15-.5-.18-.72v-3.6c0-.18,0-.36,0-.54,0-.14.02-.52,0-.54l.54,5.94h1.44s-.81-9.18-.81-9.18c.04-.47-.95-.44-1.25-.36-.08.02-.19,1.1-.82.55.11-.16.04-.66.3-.73.52-.12,1.45.1,2.04,0Z"/>
      <path class="cls-1" d="M150.5,12.43c.04-.13-.06-.49,0-.54.14-.13,3.47-.04,3.83.04,1.14.25.97,1.86,1.33,1.95s.92-.07,1.32,0c0-.36.01-.72,0-1.08.59-.17.79,1.55.72,1.62-.63-.1-1.98.22-2.43-.18-.31-.27-.41-1.19-.64-1.52-.44-.61-3.25-.14-4.12-.28Z"/>
      <path class="cls-3" d="M11.75,4.16l.18.72c.07.92-.01,1.94,0,2.88-.32,1.17-.2,2.63-.18,3.87,0,.3-.11.8.18.99,0,.54,0,1.08,0,1.62h-1.08c.03-.07-.06-.29.01-.34.14-.1.64.05.71-.02.35-.32-.27-8.35,0-9.53-.42.06-1.49-.16-1.72.17-.29.42.06,2.92-.08,3.61-.12,0-.24,0-.36,0,.09-.63-.1-3.84.18-4.13.08-.08,1.89-.07,2.16.18Z"/>
      <path class="cls-1" d="M155.17,8.48c.86.64.87,1.59,1.08,2.52.11.02.24-.01.36,0-.22.61.27.72.36,1.62-.68,0-.61-1.13-.72-1.62-.1-.01-.25.06-.33-.02-.17-.17-.72-2.11-.75-2.5Z"/>
      <path class="cls-3" d="M9.59,10.64c0-.14-.06-.55.18-.27.09.92-.12,2-.02,2.89.03.24.67.51.37,1.16-.14,0-.52.02-.54,0-.12-.14-.02-3.26,0-3.78Z"/>
      <path class="cls-2" d="M46.12,10.28c.54-.1.35.27.36.62.03.69.34,2.99,0,3.34-.11-1.32-.27-2.64-.36-3.96Z"/>
      <path class="cls-1" d="M11.93,12.61c-.3-.19-.18-.68-.18-.99-.01-1.24-.13-2.7.18-3.87.02,1.61.02,3.24,0,4.86Z"/>
      <path class="cls-2" d="M44.14,9.02v3.6c-.14-1.15-.31-2.48-.18-3.6h.18Z"/>
      <path class="cls-1" d="M137,7.76c.41.67.25,1.52.17,2.25-.04.34.22.73-.35.63.09-.98.26-1.82.18-2.88Z"/>
      <path class="cls-1" d="M132.68,14.23c-.02.1.03.34,0,.36-.07.05-1.74.18-1.44-.36.47.02.97.02,1.44,0Z"/>
      <path class="cls-2" d="M45.94,5.96c-.69.15-.24-1.22-.36-1.8l.16.1c-.05.59.14,1.13.2,1.7Z"/>
      <path class="cls-2" d="M44.14,7.94s0,.4,0,.54c-.08.03-.16.1-.18.18l-.54.18c.12-.29.17-1.37.72-.9Z"/>
      <path class="cls-1" d="M6.53,10.28s-.13.16-.28.17c-.33.02-.68-.26-.98.01,0-.12-.01-.24,0-.36.39.04,1.01-.16,1.26.18Z"/>
      <path class="cls-2" d="M134.3,13.87c-.26.15-.05.28-.72.36.09-.33.41-.39.72-.36Z"/>
      <path class="cls-2" d="M130.52,14.23c-.41-.04-.38-.06-.72-.18l.72.18Z"/>
      <path class="cls-1" d="M11.93,4.88l-.18-.72c.28.26.16.41.18.72Z"/>
      <path class="cls-1" d="M44.14,9.02h-.18c.01-.12-.02-.26,0-.36.02-.08.1-.15.18-.18,0,.18,0,.36,0,.54Z"/>
      <path class="cls-2" d="M44.32,13.51c-.04-.16,0-.17,0-.18v.18Z"/>
      <path class="cls-1" d="M154.81,12.64c-.03.44.24,1.62.69,1.77s2.58.24,2.31-.59l-4.15-9.8c-.8.06-1.62-.29-2.37.02-.33,1.25-1.24,2.59-1.62,3.78-.13.4.07.46.07.49.2.15.71-.64.73-.69.54-1.24.62-3.84,2.65-3.18l4.12,9.18c.19.45-1.58.3-1.66.24-.14-.09-.14-.83-.31-1.06-.14-.2-.38-.12-.47-.18Z"/>
      <path class="cls-1" d="M127.23,11.15c-.07-1.05.11-1.9.22-2.88.02-.15-.16-.38-.09-.72.02-.1.73-1.22.83-1.33.62-.71,1.05-.7,1.82-1.15.31.03.63-.02.72-.35.28-.03.61.02.9.01.47-.01.97,0,1.44.02.24.01.49-.02.72,0l.72.19c3.85,1.46,3.87,7.52.49,9.51-2.96,1.74-7.52.43-7.76-3.31ZM130.15,12.38c.76.81,2.87.89,3.73.21,2.54-2.04.57-7.64-3.07-5.69-1.52.82-1.7,4.37-.66,5.48Z"/>
    </g>
  </g>
</svg>