<?xml version="1.0" encoding="UTF-8"?>
<svg id="Capa_2" data-name="Capa 2" xmlns="http://www.w3.org/2000/svg" viewBox="0 0 226.12 77.89">
  <defs>
    <style>
      .cls-1 {
        fill: #fff;
      }

      .cls-2 {
        fill: #1d4363;
      }

      .cls-3 {
        fill: #00a3d4;
      }
    </style>
  </defs>
  <g id="Capa_1-2" data-name="Capa 1">
    <g>
      <g>
        <polygon class="cls-2" points="24.6 0 18.16 0 28.59 36.63 20.39 36.63 35.94 66.41 36.31 66.41 36.31 56.8 36.31 0 24.6 0"/>
        <rect class="cls-2" x="38" y="33.71" width="188.13" height="32.63"/>
        <polygon class="cls-3" points="18.08 29.59 0 0 0 9.61 0 66.41 11.71 66.41 34.57 66.41 8.34 29.58 18.08 29.59"/>
        <rect class="cls-3" x="38" y="0" width="187.61" height="31.35"/>
        <path class="cls-1" d="M68.59,62.06h-4.74l-11.64-18.86h-.12l.08,1.05c.15,2.01.23,3.84.23,5.51v12.3h-3.51v-23.67h4.69l11.61,18.76h.1c-.02-.25-.06-1.15-.13-2.71-.06-1.56-.09-2.78-.09-3.65v-12.4h3.54v23.67Z"/>
        <polygon class="cls-1" points="86.58 62.06 73.19 62.06 73.19 38.4 86.58 38.4 86.58 41.67 77.06 41.67 77.06 48.11 85.98 48.11 85.98 51.35 77.06 51.35 77.06 58.78 86.58 58.78 86.58 62.06"/>
        <path class="cls-1" d="M110.88,50.2c0,3.85-.97,6.85-2.89,8.98-1.92,2.14-4.66,3.2-8.18,3.2s-6.32-1.06-8.23-3.18c-1.92-2.12-2.87-5.14-2.87-9.04s.96-6.91,2.89-9c1.92-2.09,4.67-3.14,8.25-3.14s6.24,1.07,8.15,3.19c1.92,2.13,2.88,5.12,2.88,8.98M92.81,50.2c0,2.91.59,5.12,1.76,6.63,1.18,1.51,2.92,2.26,5.23,2.26s4.03-.75,5.2-2.23c1.17-1.49,1.76-3.71,1.76-6.65s-.58-5.1-1.74-6.6c-1.16-1.5-2.89-2.25-5.19-2.25s-4.07.75-5.25,2.25c-1.19,1.5-1.78,3.7-1.78,6.6"/>
        <path class="cls-1" d="M119.28,52.98v9.08h-5.02v-23.67h6.89c3.22,0,5.6.58,7.14,1.76,1.54,1.17,2.32,2.95,2.32,5.34,0,1.39-.38,2.62-1.15,3.71-.78,1.08-1.85,1.93-3.26,2.55,3.56,5.33,5.88,8.76,6.96,10.32h-5.57l-5.64-9.08h-2.67ZM119.28,48.9h1.62c1.58,0,2.75-.26,3.51-.79.75-.53,1.13-1.36,1.13-2.5s-.38-1.92-1.15-2.39c-.77-.48-1.96-.71-3.59-.71h-1.52v6.39Z"/>
        <polygon class="cls-1" points="148.71 62.06 135.08 62.06 135.08 38.4 148.71 38.4 148.71 42.51 140.1 42.51 140.1 47.71 148.11 47.71 148.11 51.82 140.1 51.82 140.1 57.92 148.71 57.92 148.71 62.06"/>
        <path class="cls-1" d="M171.9,50c0,3.9-1.11,6.88-3.32,8.95-2.22,2.07-5.42,3.11-9.61,3.11h-6.7v-23.67h7.43c3.86,0,6.86,1.02,9,3.06,2.13,2.04,3.2,4.89,3.2,8.54M166.69,50.14c0-5.08-2.25-7.63-6.73-7.63h-2.67v15.41h2.15c4.83,0,7.25-2.59,7.25-7.78"/>
        <path class="cls-1" d="M62.88,11.19c0,2.27-.76,4-2.29,5.21-1.52,1.21-3.69,1.81-6.5,1.81h-2.32v8.12h-3.64V4.63h6.41c2.78,0,4.86.55,6.25,1.66,1.39,1.11,2.08,2.74,2.08,4.9M51.77,15.22h1.94c1.87,0,3.24-.32,4.11-.95.87-.63,1.31-1.62,1.31-2.97,0-1.25-.39-2.17-1.18-2.79-.78-.61-2-.92-3.65-.92h-2.53v7.63Z"/>
        <path class="cls-1" d="M77.76,26.32l-2.22-6.02h-8.51l-2.18,6.02h-3.84l8.33-21.78h3.96l8.33,21.78h-3.87ZM74.58,17.24l-2.09-5.9c-.15-.4-.36-1.02-.63-1.87-.27-.85-.46-1.48-.56-1.87-.27,1.22-.67,2.54-1.2,3.99l-2.01,5.66h6.49Z"/>
        <path class="cls-1" d="M96.55,20.43c0,1.93-.72,3.44-2.15,4.54-1.43,1.1-3.4,1.65-5.92,1.65s-4.58-.38-6.18-1.14v-3.35c1.02.47,2.09.83,3.23,1.1,1.14.27,2.21.4,3.19.4,1.44,0,2.5-.26,3.19-.8.68-.53,1.03-1.25,1.03-2.15,0-.81-.32-1.5-.95-2.06-.63-.56-1.93-1.23-3.9-2-2.03-.8-3.46-1.71-4.3-2.74-.83-1.03-1.25-2.26-1.25-3.71,0-1.81.65-3.23,1.98-4.27,1.32-1.03,3.09-1.56,5.32-1.56s4.25.45,6.37,1.37l-1.16,2.89c-1.98-.81-3.75-1.22-5.3-1.22-1.18,0-2.08.25-2.68.75-.61.5-.91,1.16-.91,1.98,0,.56.12,1.04.36,1.45.24.4.64.78,1.21,1.13.55.36,1.56.83,3.01,1.41,1.63.66,2.83,1.28,3.59,1.85.77.58,1.32,1.22,1.68,1.94.35.72.53,1.57.53,2.55"/>
        <polygon class="cls-1" points="107.42 26.32 103.78 26.32 103.78 7.67 97.23 7.67 97.23 4.63 113.97 4.63 113.97 7.67 107.42 7.67 107.42 26.32"/>
        <path class="cls-1" d="M134.92,15.45c0,3.53-.91,6.27-2.72,8.23-1.81,1.96-4.38,2.94-7.7,2.94s-5.95-.97-7.75-2.91c-1.8-1.95-2.71-4.7-2.71-8.29s.91-6.33,2.72-8.25c1.81-1.92,4.4-2.88,7.76-2.88s5.87.97,7.68,2.92c1.8,1.95,2.71,4.69,2.71,8.23M117.92,15.45c0,2.67.55,4.7,1.66,6.08,1.11,1.38,2.75,2.07,4.92,2.07s3.79-.68,4.9-2.05c1.1-1.36,1.66-3.4,1.66-6.1s-.55-4.68-1.64-6.06c-1.09-1.37-2.71-2.06-4.88-2.06s-3.83.69-4.94,2.06c-1.11,1.38-1.67,3.4-1.67,6.06"/>
        <path class="cls-1" d="M142.32,18v8.32h-4.72V4.63h6.49c3.03,0,5.27.53,6.72,1.61,1.45,1.07,2.18,2.7,2.18,4.88,0,1.28-.36,2.41-1.09,3.41-.71.99-1.74,1.77-3.06,2.33,3.35,4.88,5.54,8.03,6.55,9.45h-5.24l-5.32-8.32h-2.51ZM142.32,14.26h1.53c1.49,0,2.59-.24,3.3-.72.71-.49,1.07-1.24,1.07-2.29s-.37-1.77-1.09-2.19c-.72-.44-1.85-.65-3.37-.65h-1.43v5.86Z"/>
        <path class="cls-1" d="M173.99,4.63v14.03c0,1.6-.37,3.01-1.11,4.21-.73,1.21-1.8,2.13-3.19,2.78-1.39.64-3.04.96-4.94.96-2.86,0-5.08-.71-6.67-2.14-1.59-1.43-2.37-3.38-2.37-5.87V4.63h4.71v13.28c0,1.67.35,2.9,1.03,3.68.7.78,1.84,1.17,3.44,1.17s2.66-.39,3.36-1.18c.7-.79,1.05-2.02,1.05-3.7V4.63h4.71Z"/>
        <polygon class="cls-1" points="186.28 26.32 181.56 26.32 181.56 8.46 175.51 8.46 175.51 4.63 192.33 4.63 192.33 8.46 186.28 8.46 186.28 26.32"/>
        <polygon class="cls-1" points="203.66 26.32 198.94 26.32 198.94 8.46 192.89 8.46 192.89 4.63 209.71 4.63 209.71 8.46 203.66 8.46 203.66 26.32"/>
        <rect class="cls-1" x="211.33" y="4.63" width="4.73" height="21.69"/>
      </g>
      <g>
        <path class="cls-2" d="M44.06,75.26c-.04-.81-.09-1.78-.08-2.5h-.03c-.2.68-.44,1.4-.73,2.2l-1.02,2.81h-.57l-.94-2.76c-.27-.82-.51-1.56-.67-2.25h-.02c-.02.72-.06,1.69-.11,2.56l-.15,2.48h-.71l.4-5.79h.95l.99,2.8c.24.71.44,1.35.59,1.95h.02c.15-.58.35-1.22.61-1.95l1.03-2.8h.95l.36,5.79h-.73l-.15-2.54Z"/>
        <path class="cls-2" d="M51.24,75.98l-.6,1.82h-.77l1.97-5.79h.9l1.98,5.79h-.8l-.62-1.82h-2.05ZM53.13,75.39l-.57-1.67c-.13-.38-.22-.72-.3-1.06h-.02c-.08.34-.18.7-.29,1.05l-.57,1.68h1.74Z"/>
        <path class="cls-2" d="M60.29,72.64h-1.76v-.64h4.29v.64h-1.77v5.15h-.76v-5.15Z"/>
        <path class="cls-2" d="M70.76,75.08h-2.25v2.09h2.51v.63h-3.26v-5.79h3.13v.63h-2.38v1.83h2.25v.62Z"/>
        <path class="cls-2" d="M76.28,72.09c.38-.08.92-.12,1.44-.12.8,0,1.31.15,1.68.47.29.26.46.65.46,1.1,0,.77-.48,1.27-1.09,1.48v.02c.45.15.71.57.85,1.17.19.81.33,1.37.45,1.59h-.77c-.09-.16-.22-.66-.39-1.38-.17-.8-.48-1.1-1.16-1.12h-.7v2.51h-.75v-5.71ZM77.03,74.72h.76c.8,0,1.31-.44,1.31-1.1,0-.75-.54-1.08-1.33-1.08-.36,0-.62.03-.74.07v2.11Z"/>
        <path class="cls-2" d="M85.95,72.01v5.79h-.75v-5.79h.75Z"/>
        <path class="cls-2" d="M92.48,75.98l-.6,1.82h-.77l1.97-5.79h.9l1.98,5.79h-.8l-.62-1.82h-2.05ZM94.38,75.39l-.57-1.67c-.13-.38-.22-.72-.3-1.06h-.02c-.09.34-.18.7-.3,1.05l-.57,1.68h1.74Z"/>
        <path class="cls-2" d="M101.1,72.01h.75v5.16h2.47v.63h-3.22v-5.79Z"/>
        <path class="cls-2" d="M112.45,75.08h-2.25v2.09h2.51v.63h-3.26v-5.79h3.13v.63h-2.38v1.83h2.25v.62Z"/>
        <path class="cls-2" d="M117.87,76.89c.33.21.82.38,1.34.38.77,0,1.21-.4,1.21-.99,0-.54-.31-.85-1.09-1.15-.95-.34-1.53-.82-1.53-1.64,0-.9.75-1.57,1.87-1.57.59,0,1.03.14,1.28.28l-.21.61c-.19-.1-.58-.27-1.1-.27-.79,0-1.09.47-1.09.87,0,.54.35.81,1.15,1.12.98.38,1.48.85,1.48,1.7,0,.89-.66,1.67-2.03,1.67-.56,0-1.17-.16-1.48-.37l.19-.63Z"/>
        <path class="cls-2" d="M135.63,75.08h-2.25v2.09h2.51v.63h-3.26v-5.79h3.13v.63h-2.38v1.83h2.25v.62Z"/>
        <path class="cls-2" d="M141.15,72.01h.75v5.16h2.47v.63h-3.22v-5.79Z"/>
        <path class="cls-2" d="M152.5,75.08h-2.25v2.09h2.51v.63h-3.26v-5.79h3.12v.63h-2.38v1.83h2.25v.62Z"/>
        <path class="cls-2" d="M162.07,77.61c-.28.14-.82.28-1.53.28-1.63,0-2.86-1.03-2.86-2.93s1.23-3.04,3.02-3.04c.72,0,1.18.15,1.38.26l-.18.61c-.28-.14-.69-.24-1.17-.24-1.36,0-2.26.87-2.26,2.39,0,1.42.81,2.33,2.22,2.33.45,0,.92-.1,1.22-.24l.16.59Z"/>
        <path class="cls-2" d="M168.64,72.64h-1.76v-.64h4.29v.64h-1.77v5.15h-.76v-5.15Z"/>
        <path class="cls-2" d="M176.11,72.09c.38-.08.92-.12,1.43-.12.8,0,1.32.15,1.68.47.29.26.46.65.46,1.1,0,.77-.48,1.27-1.09,1.48v.02c.45.15.71.57.85,1.17.19.81.33,1.37.45,1.59h-.77c-.1-.16-.22-.66-.39-1.38-.17-.8-.48-1.1-1.16-1.12h-.7v2.51h-.75v-5.71ZM176.86,74.72h.76c.8,0,1.31-.44,1.31-1.1,0-.75-.54-1.08-1.33-1.08-.36,0-.62.03-.74.07v2.11Z"/>
        <path class="cls-2" d="M185.77,72.01v5.79h-.75v-5.79h.75Z"/>
        <path class="cls-2" d="M195.42,77.61c-.28.14-.83.28-1.53.28-1.63,0-2.86-1.03-2.86-2.93s1.23-3.04,3.02-3.04c.72,0,1.18.15,1.37.26l-.18.61c-.28-.14-.69-.24-1.17-.24-1.36,0-2.26.87-2.26,2.39,0,1.42.82,2.33,2.22,2.33.46,0,.92-.1,1.22-.24l.16.59Z"/>
        <path class="cls-2" d="M205.42,74.84c0,1.99-1.21,3.05-2.69,3.05s-2.6-1.19-2.6-2.94,1.14-3.04,2.69-3.04,2.61,1.21,2.61,2.93ZM200.93,74.94c0,1.24.67,2.35,1.85,2.35s1.85-1.09,1.85-2.41c0-1.15-.6-2.35-1.85-2.35s-1.86,1.14-1.86,2.41Z"/>
        <path class="cls-2" d="M210.59,76.89c.33.21.83.38,1.34.38.76,0,1.21-.4,1.21-.99,0-.54-.31-.85-1.09-1.15-.94-.34-1.53-.82-1.53-1.64,0-.9.75-1.57,1.87-1.57.59,0,1.02.14,1.28.28l-.21.61c-.19-.1-.58-.27-1.1-.27-.79,0-1.09.47-1.09.87,0,.54.35.81,1.15,1.12.98.38,1.48.85,1.48,1.7,0,.89-.66,1.67-2.03,1.67-.56,0-1.17-.16-1.48-.37l.19-.63Z"/>
      </g>
    </g>
  </g>
</svg>