<?xml version="1.0" encoding="UTF-8"?>
<svg id="Capa_2" data-name="Capa 2" xmlns="http://www.w3.org/2000/svg" viewBox="0 0 195.19 65.21">
  <defs>
    <style>
      .cls-1 {
        fill: #2eaa5a;
      }

      .cls-1, .cls-2 {
        fill-rule: evenodd;
      }

      .cls-2 {
        fill: #502582;
      }
    </style>
  </defs>
  <g id="Capa_1-2" data-name="Capa 1">
    <g>
      <path class="cls-2" d="M0,21.45h10.19v16.88h16.32v-16.76h16c-6.85,9.08-13.66,17.92-20.66,26.83h-11.66v16.76H0V21.45Z"/>
      <path class="cls-2" d="M36.61,48.34v7.28h12.11c2.92-.09,4.82-1.41,4.73-3.7-.23-2.39-2.18-3.43-5.26-3.59h-11.57ZM26.6,49.05l10.01-12.89v2.38h10.92c2.73-.28,3.91-1.74,3.93-3.7,0-1.98-1.29-3.31-3.74-3.38,0,0-7.36,0-7.36-.06,2.44-3.25,4.88-6.51,7.32-9.76,8.51.31,13.31,5.03,13.81,12.2.2,2.97-.46,5.93-2.78,8.94,3.21,2.16,4.73,5.27,4.76,9.94.04,7.42-6.52,12.77-13.72,12.47h-14.3v-.04h-8.85v-16.11Z"/>
      <polygon class="cls-2" points="64.79 22.39 73.87 22.39 73.87 40.37 90.38 22.38 101.99 22.29 73.87 52.96 73.87 63.81 64.79 63.81 64.79 22.39"/>
      <polygon class="cls-2" points="87.22 44.59 81.72 50.93 91.48 63.89 102.26 63.89 87.22 44.59"/>
      <path class="cls-1" d="M116.1,63.36c0,.17-.05.32-.16.45-.1.13-.27.24-.53.32-.25.08-.58.15-.98.19-.41.04-.94.06-1.57.06s-1.16-.02-1.57-.06c-.4-.04-.74-.11-.98-.19-.25-.09-.43-.19-.53-.32-.11-.13-.16-.28-.16-.45V29.55c0-.18.05-.32.16-.46.1-.13.27-.25.53-.34.25-.1.58-.17.98-.22.41-.05.94-.08,1.57-.08s1.16.03,1.57.08c.4.05.74.12.98.22.25.09.43.21.53.34.11.14.16.29.16.46v33.81ZM127.98,63.36c0,.17-.05.32-.16.45-.1.13-.27.24-.53.32-.25.08-.58.15-.98.19-.41.04-.94.06-1.57.06s-1.16-.02-1.57-.06c-.4-.04-.74-.11-.98-.19-.25-.09-.43-.19-.53-.32-.11-.13-.16-.28-.16-.45v-22.89c0-.17.05-.32.16-.45.1-.13.27-.25.53-.33.25-.1.58-.17.98-.22.41-.05.94-.08,1.57-.08s1.16.03,1.57.08c.4.05.74.12.98.22.25.09.43.2.53.33.11.13.16.28.16.45v22.89ZM128.5,32.63c0,1.31-.26,2.2-.8,2.7-.54.5-1.52.75-2.96.75s-2.45-.24-2.95-.72c-.51-.48-.76-1.35-.76-2.6,0-1.31.26-2.21.79-2.72.52-.5,1.51-.75,2.97-.75s2.42.25,2.94.74c.52.48.77,1.35.77,2.6ZM169.85,63.36c0,.17-.05.32-.16.45-.1.13-.27.24-.51.32-.25.08-.57.15-.98.19-.41.04-.94.06-1.57.06s-1.19-.02-1.61-.06c-.41-.04-.75-.11-.99-.19-.25-.09-.42-.19-.52-.32-.1-.13-.14-.28-.14-.45v-13.59c0-.77-.07-1.47-.22-2.1-.14-.64-.37-1.18-.67-1.63-.3-.46-.68-.81-1.12-1.06-.46-.25-.99-.37-1.62-.37-.77,0-1.55.3-2.33.9-.79.6-1.64,1.47-2.56,2.61v15.24c0,.17-.05.32-.16.45-.1.13-.27.24-.53.32-.25.08-.58.15-.99.19-.41.04-.93.06-1.54.06s-1.17-.02-1.58-.06c-.41-.04-.75-.11-.99-.19-.25-.09-.43-.19-.53-.32-.11-.13-.16-.28-.16-.45v-13.59c0-.77-.07-1.47-.22-2.1-.14-.64-.36-1.18-.66-1.63-.29-.46-.67-.81-1.12-1.06-.46-.25-1.01-.37-1.62-.37-.79,0-1.57.3-2.36.9-.79.6-1.64,1.47-2.54,2.61v15.24c0,.17-.05.32-.16.45-.1.13-.27.24-.53.32-.25.08-.58.15-.98.19-.41.04-.94.06-1.57.06s-1.16-.02-1.57-.06c-.4-.04-.74-.11-.98-.19-.25-.09-.43-.19-.53-.32-.11-.13-.16-.28-.16-.45v-22.94c0-.17.04-.32.13-.45.08-.13.24-.24.46-.32.23-.08.51-.15.86-.19.35-.04.8-.06,1.32-.06.55,0,1,.02,1.36.06.36.04.64.11.84.19.19.09.33.19.42.32.09.13.13.28.13.45v2.65c1.26-1.37,2.53-2.39,3.79-3.07,1.26-.68,2.58-1.03,3.95-1.03.95,0,1.8.1,2.55.3.75.19,1.42.47,2.02.84.59.37,1.1.81,1.53,1.32.43.52.79,1.09,1.08,1.72.69-.74,1.36-1.37,2.02-1.89.67-.53,1.32-.96,1.96-1.3.64-.33,1.28-.58,1.93-.74.64-.17,1.3-.25,1.96-.25,1.52,0,2.81.25,3.85.77,1.04.51,1.89,1.21,2.53,2.1.65.88,1.11,1.91,1.38,3.1.27,1.18.41,2.43.41,3.75v14.67ZM195.19,63.44c0,.24-.09.42-.25.56-.18.14-.45.24-.82.3-.37.06-.91.09-1.64.09-.77,0-1.33-.03-1.68-.09-.35-.06-.61-.16-.75-.3-.15-.14-.22-.32-.22-.56v-1.82c-.95,1.01-2.02,1.79-3.23,2.35-1.2.56-2.54.84-4.02.84-1.21,0-2.33-.16-3.35-.47-1.02-.32-1.89-.79-2.64-1.41-.75-.63-1.32-1.4-1.74-2.32-.41-.93-.61-2.01-.61-3.24,0-1.34.26-2.5.78-3.48.53-.99,1.31-1.8,2.34-2.45,1.03-.64,2.32-1.11,3.86-1.42,1.53-.31,3.32-.46,5.36-.46h2.24v-1.39c0-.72-.07-1.35-.22-1.89-.14-.53-.39-.99-.72-1.35-.33-.36-.77-.62-1.33-.8-.55-.17-1.25-.25-2.06-.25-1.08,0-2.04.12-2.89.36-.85.24-1.6.51-2.25.8-.65.29-1.19.56-1.63.8-.44.24-.79.36-1.06.36-.19,0-.36-.06-.5-.18-.15-.12-.27-.3-.36-.52-.1-.22-.17-.5-.22-.82-.05-.32-.08-.68-.08-1.07,0-.53.04-.96.13-1.26.08-.31.25-.58.48-.83.25-.25.66-.52,1.26-.82.6-.3,1.3-.58,2.1-.83.81-.26,1.68-.47,2.63-.63.96-.17,1.94-.25,2.95-.25,1.8,0,3.33.18,4.61.53,1.27.35,2.32.89,3.14,1.62.82.73,1.43,1.67,1.81,2.82.38,1.14.56,2.51.56,4.08v15.43ZM188.82,53.6h-2.46c-1.04,0-1.93.08-2.67.23-.74.16-1.33.39-1.8.7-.46.31-.8.68-1.01,1.11-.22.44-.32.94-.32,1.5,0,.96.31,1.72.91,2.26.61.55,1.45.82,2.53.82.9,0,1.74-.23,2.5-.69.76-.46,1.53-1.14,2.32-2.03v-3.9Z"/>
      <path class="cls-1" d="M102.26,63.89c-5.27-6.74-10.4-13.4-15.67-20.15-.62-.78-.64-1.49-.04-2.12,5.52-6,10.9-12.09,16.42-18.09,1.25-.89,2.49-.8,3.74.04.82,1.16.99,2.31.59,3.47-4.81,5.21-9.85,10.46-14.66,15.67,4.37,5.98,8.98,11.77,13.35,17.74.5,1.26.19,2.34-.69,3.04-.88.57-1.85.82-3.03.38"/>
      <path class="cls-2" d="M130.87,3.13c2.1-1.87,5.78-3.09,12.36-3.13,6.18.52,12.36,2.66,18.54,5.72,10.61,4.87,20.44,7.63,28.3,5.07,1.1-.21.35.53-.19.8-5.21,2.4-10.81,3.68-17.54,1.6-4.95-1.48-9.7-3.37-14.34-5.45-9.3-4.37-18.42-6.75-27.12-4.61"/>
      <path class="cls-2" d="M112.01,25.95c3.36-6.61,8.31-11.58,15.45-14.19,6.95-2.53,14.3-1.15,21.19,1.77-9.81-1.43-15.63-1.81-20.96.17-6.17,2.29-11.18,6.74-15.68,12.24"/>
      <path class="cls-1" d="M111.88,20.77c3.7-6.19,8.53-11.46,16.09-14.49,6.16-2.7,13.38-2.47,21.47.11,6.19,2.44,12.38,4.88,18.57,7.32,9.53,3.37,18.41,3.36,26.32-1.72.69-.38.6-.02-.04.57-5.8,5.47-12.58,8.27-20.82,7.13-5.2-.88-10.95-2.75-17.16-5.45-4.47-1.63-8.4-3.22-12.87-4.84-5.32-1.59-11.27-1.86-16.8.11-5.74,2.41-10.45,6.51-14.76,11.25"/>
    </g>
  </g>
</svg>