<?xml version="1.0" encoding="UTF-8"?>
<svg id="Capa_2" data-name="Capa 2" xmlns="http://www.w3.org/2000/svg" viewBox="0 0 160.56 38.77">
  <defs>
    <style>
      .cls-1 {
        fill: #45413f;
      }

      .cls-2 {
        fill: #eca939;
      }

      .cls-3 {
        fill: #ffd744;
      }
    </style>
  </defs>
  <g id="Capa_1-2" data-name="Capa 1">
    <g>
      <g>
        <path class="cls-1" d="M45.52,4.63c0-.17.13-.3.3-.3h10.23c5.39,0,9.84,3.88,9.84,9.23,0,4.79-3.41,8.46-7.85,9.28l6.73,11.26c.09.13.09.26-.04.35l-.39.22c-.13.04-.22-.04-.26-.13l-6.86-11.56c-.39.04-.73.04-1.12.04h-9.84v11.22c0,.17-.13.3-.26.3h-.17c-.17,0-.3-.13-.3-.3V4.63ZM56.1,22.27c4.96,0,9.06-3.71,9.06-8.72s-4.1-8.46-9.1-8.46h-9.79v17.17h9.84Z"/>
        <path class="cls-1" d="M73.49,4.63c0-.17.13-.3.3-.3h.17c.17,0,.3.13.3.3v29.6c0,.17-.13.3-.3.3h-.17c-.17,0-.3-.13-.3-.3V4.63Z"/>
        <path class="cls-1" d="M83.93,4.63c0-.17.13-.3.3-.3h17.56c.17,0,.3.13.3.3v.17c0,.17-.13.3-.3.3h-17.09v13.33h15.02c.17,0,.3.13.3.3v.17c0,.17-.13.3-.3.3h-15.02v14.54h17.09c.17,0,.3.13.3.3v.17c0,.17-.13.3-.3.3h-17.56c-.17,0-.3-.13-.3-.3V4.63Z"/>
        <path class="cls-1" d="M110.25,3.89c0-.3.39-.43.56-.17l22.31,29.73V4.63c0-.17.13-.3.3-.3h.17c.17,0,.3.13.3.3v30.25c0,.3-.39.43-.56.17l-22.31-29.73v28.91c0,.17-.13.3-.3.3h-.17c-.17,0-.3-.13-.3-.3V3.89Z"/>
        <path class="cls-1" d="M141.84,30.99l.17-.17c.13-.13.26-.09.39.04.56.47,3.75,3.32,8.63,3.32,4.62,0,8.76-3.06,8.76-6.82,0-4.7-3.75-6.39-9.23-7.85-5.22-1.42-9.02-3.06-9.02-8.07,0-3.5,2.63-7.55,9.41-7.55,4.31,0,7.46,2.2,7.46,2.2.13.09.17.22.09.34l-.17.26c-.09.13-.17.17-.35.09,0,0-3.06-2.11-7.03-2.11-6.26,0-8.63,3.62-8.63,6.77,0,4.4,3.41,5.95,8.46,7.29,6.04,1.68,9.79,3.62,9.79,8.63,0,4.14-4.49,7.59-9.54,7.59s-8.63-3.06-9.19-3.58c-.13-.13-.13-.26,0-.39Z"/>
      </g>
      <g>
        <g>
          <path class="cls-2" d="M21.22,1.97c-9.73,0-17.62,7.89-17.62,17.62,0,2.42.49,4.74,1.38,6.84-1.5-2.59-2.36-5.6-2.36-8.81C2.61,7.89,10.5,0,20.23,0c7.31,0,13.58,4.45,16.25,10.79-3.05-5.27-8.74-8.82-15.26-8.82Z"/>
          <path class="cls-3" d="M1.97,17.53c0,9.73,7.89,17.62,17.62,17.62,2.42,0,4.74-.49,6.84-1.38-2.59,1.5-5.6,2.36-8.81,2.36C7.89,36.14,0,28.25,0,18.51,0,11.21,4.45,4.94,10.79,2.27,5.52,5.31,1.97,11,1.97,17.53Z"/>
        </g>
        <g>
          <path class="cls-2" d="M17.56,36.8c9.73,0,17.62-7.89,17.62-17.62,0-2.42-.49-4.74-1.38-6.84,1.5,2.59,2.36,5.6,2.36,8.81,0,9.73-7.89,17.62-17.62,17.62-7.31,0-13.58-4.45-16.25-10.79,3.05,5.27,8.74,8.82,15.26,8.82Z"/>
          <path class="cls-3" d="M36.81,21.24c0-9.73-7.89-17.62-17.62-17.62-2.42,0-4.74.49-6.84,1.38,2.59-1.5,5.6-2.36,8.81-2.36,9.73,0,17.62,7.89,17.62,17.62,0,7.31-4.45,13.58-10.79,16.25,5.27-3.05,8.82-8.74,8.82-15.26Z"/>
        </g>
      </g>
    </g>
  </g>
</svg>