<?xml version="1.0" encoding="UTF-8"?>
<svg id="Capa_2" data-name="Capa 2" xmlns="http://www.w3.org/2000/svg" viewBox="0 0 141.8 24.36">
  <defs>
    <style>
      .cls-1 {
        fill: #0072bb;
      }
    </style>
  </defs>
  <g id="Capa_1-2" data-name="Capa 1">
    <g>
      <path class="cls-1" d="M32.51,24.36c-1.96-.14-4.67-.35-6.69-2.68-3.11-5.25,1.01-10.51,3.56-15.73h-1.5L30.64.07h9.87l-8,16.5c-.24.5.04,1.05.85,1.15.8.11,1.76-.06,2.61-.94l5.2-10.84h-1.43L42.65.07h9.99l-7.03,14.42c-1.41,3.04-2.96,7.97-7.62,9.25-1.75.58-3.64.61-5.48.61"/>
      <polygon class="cls-1" points="113.96 23.88 120.47 15.4 115.04 6.23 107.79 6.23 106.6 8.51 115.28 8.51 112.54 15.21 103.76 15.23 102.69 17.61 115.15 17.61 112.28 23.88 94.78 23.88 92.67 20.01 99.08 5.95 97.67 5.95 100.6 .07 120.14 .07 125.44 8.38 127.26 6.23 126.03 6.23 130.9 .07 141.8 .07 122.68 23.88 113.96 23.88"/>
      <path class="cls-1" d="M82.16,10.26h2.85c.69,0,1.49-.07,2.1-.56,2.32-1.73.73-3.71-.37-3.71h-2.7l-1.87,4.27M84.22,23.88l-4.35-7.76-3.77,7.76h-14.88l-4.33-7.94-3.79,7.94h-8.66l8.32-17.9h-1.65L53.88.03h11.04c3.34.04,8.95,2.94,8.24,8.17-1.2,4.87-3.58,7.12-7.09,7.97l2.72,5.3,7.13-15.49h-1.76l2.8-5.99h10.84c3.98,0,9.39,3.65,8.12,8.98-1.18,4.99-3.83,6.47-7.2,7.39l-.11.06,4.23,7.45h-8.59ZM59.68,10.26h2.85c.69,0,1.48-.07,2.12-.56,2.3-1.73.58-3.71-.38-3.71h-2.7l-1.89,4.27Z"/>
      <path class="cls-1" d="M13.2,23.8H0l3.5-7.09h8.04l-.31.96,2.43.02c1.21,0,1.46-1.17.94-1.62-2.51-2.19-8.02-4.04-9.22-7.23-.9-2.47.05-5.53,3.51-7.62C11.06.28,11.45.21,13.5.1h15.88l-3.36,6.73-8.14.02.37-.87h-3.65c-.22,0-.52.2-.56.85.17.94,1.73,1,2.49,1.38,5.45,2.08,8.09,3.92,7.24,8.66-.94,5.45-5.25,6.71-10.58,6.94"/>
    </g>
  </g>
</svg>