<?xml version="1.0" encoding="UTF-8"?>
<svg id="Capa_2" data-name="Capa 2" xmlns="http://www.w3.org/2000/svg" viewBox="0 0 306.34 34.36">
  <defs>
    <style>
      .cls-1, .cls-2 {
        opacity: .92;
      }

      .cls-1, .cls-3 {
        fill: #0b0a0a;
      }
    </style>
  </defs>
  <g id="Capa_1-2" data-name="Capa 1">
    <g>
      <g class="cls-2">
        <path class="cls-3" d="M203.55.55c-.07-.23.11-.46.35-.46,6.1-.05,6.15-.05,6.9-.05,6.52-.05,10.98,1.87,9.88,7.58-.55,2.78-3.49,5.73-5.37,6.88-.25.15-.22.52.05.63,3.12,1.24,5.44,4.34,4.64,8.42-1.29,6.72-8.63,10.22-16.79,10.22-1.4,0-3.31-.08-5.66-.09-.29,0-.46-.31-.3-.56.7-1.07,1.3-2.73,1.5-3.81l4.84-24.84c.17-.87.26-2.78-.06-3.9ZM201.78,29.35c-.43,2.25,1.63,2.69,3.26,2.69,4.51,0,10.26-2.45,11.51-8.49.57-3.3-1.61-6.79-5.71-6.76-.03,0-.06,0-.09,0l-6.58,1.38c-.14.03-.25.14-.28.29l-2.11,10.89ZM204.28,16.69c-.05.25.17.48.43.42,2.94-.64,12.21-3.63,13.33-9.49.96-4.89-3.65-5.95-7.63-5.95-1.53,0-3.26,1.01-3.79,2.78l-2.34,12.23Z"/>
      </g>
      <g class="cls-2">
        <path class="cls-3" d="M225.57,15.07c-.05.27.29.41.45.19,1.59-2.26,4.17-4.56,6.35-4.56,1.54,0,2.31,1.15,2.83,1.84.06.08.07.18.02.26l-1.51,2.83h-.96c-.1-1.44-.77-2.54-2.25-2.54-1.97,0-5.23,3.88-5.56,5.28-1.23,6.14-2.13,10.97-2.89,15.15-.02.12-.12.2-.24.2h-2.29c-.15,0-.27-.13-.25-.28.18-1.29.71-3.97,2.94-15.4.45-2.19.48-3.66-.68-4.24-.19-.09-.17-.37.03-.44,1.37-.49,3.29-1.64,4.4-2.47.18-.14.44.02.39.24l-.77,3.95Z"/>
      </g>
      <g class="cls-2">
        <path class="cls-3" d="M252.22,31.99s-.03-.04-.06-.05c-.64-.12-1.05-.74-.69-2.47l3.58-18.65c.04-.19-.19-.32-.33-.19-1.36,1.23-2.31,2.32-3.52,2.66-.13.03-.21.15-.16.28.28.77.07,3.24-.14,4.25-2.16,11.13-5.71,14.58-8.78,14.58s-4.94-2.93-4.17-6.86l2.77-14.29c.03-.18-.17-.31-.31-.2-1.41,1.04-3.38,1.76-4.55,2.11-.17.05-.2.3-.03.37,1.31.54,1.28,2.03.82,4.29l-1.49,7.72c-1.01,5.13,1.53,8.83,5.85,8.83,3.73,0,5.66-2.78,6.93-4.63.12-.18.39-.07.36.14-.28,2.04-.12,4.44,1.97,4.44,1.05,0,1.97-.54,2.68-1.17.03-.03.03-.08,0-.1-.35-.29-.59-.65-.73-1.05Z"/>
      </g>
      <g class="cls-2">
        <path class="cls-3" d="M268.1,28.08c-.57,2.97-2.83,6.28-8.01,6.28-2.73,0-7.72-.62-7.72-3.31,0-1.04.71-1.92,1.39-2.52.19-.16.47-.09.58.14,1.29,2.8,4,4.49,6.23,4.49,2.69,0,4.65-1.82,5.04-3.88.67-3.41-10.7-7.34-9.64-12.76.67-3.45,4.27-5.71,7.82-5.71,1.94,0,4.8.93,6.38,1.92.17.11.21.33.11.5l-1.51,2.57c-.15.25-.52.25-.65-.02-1.25-2.61-3.07-3.77-4.8-3.77-2.64,0-4.56,1.82-4.89,3.74-.72,3.88,10.65,7.19,9.69,12.33Z"/>
      </g>
      <g class="cls-2">
        <path class="cls-3" d="M278.95,32.15c2.43,0,3.93-.81,5.85-2.02.31-.19.64.19.41.47-1.8,2.13-4.14,3.76-7.26,3.76-6.24,0-10.31-5.28-9.02-11.8,1.25-6.52,7.34-11.8,13.57-11.8,1.93,0,4.12.51,5.17,1.24.12.08.15.25.09.38l-1.32,2.98c-.1.24-.43.25-.56.02-1.26-2.12-2.93-2.9-4.87-2.9-4.99,0-9.98,6.28-9.64,11.61.34,5.85,3.98,8.06,7.58,8.06Z"/>
      </g>
      <g class="cls-2">
        <path class="cls-3" d="M306.09,22.56c-1.29,6.52-6.91,11.8-13,11.8s-9.74-5.28-8.44-11.8c1.25-6.52,6.86-11.8,13-11.8s9.69,5.28,8.44,11.8ZM303.07,22.56c.48-5.37-2.25-9.69-6.72-9.69s-8.25,4.32-8.68,9.69c-.53,5.37,2.11,9.74,6.62,9.74s8.3-4.36,8.78-9.74Z"/>
      </g>
      <path class="cls-1" d="M129.58,17.11c.35-2.38,1.76-4.77,3.53-5.97.09-.58.12-1.08.12-1.66,0-5.75-3.96-9.32-10.34-9.32h-13.02s-.05.02-.05.05v33.5s.02.06.06.06h2.36s.06-.03.06-.06v-14.67h10.26c2.92,0,5.22-.63,7.02-1.93ZM112.3,2.39h10.7c4.7,0,7.62,2.75,7.62,7.19,0,3.3-1.36,7.23-7.81,7.23h-10.5V2.39Z"/>
      <path class="cls-1" d="M149.64,21.95c.04-.59.04-1.22.04-1.84,0-4.04-2.05-10.87-9.71-10.87-4.79,0-10.39,3.34-10.39,12.75,0,3.3.83,6.31,2.33,8.48,1.77,2.54,4.45,3.89,7.77,3.89,5.91,0,8.35-3.56,9.36-6.54,0-.03,0-.05,0-.06-.01-.02-.03-.03-.06-.03h-2.14s-.05.01-.06.04c-.93,2.1-2.57,4.5-6.99,4.5-4.76,0-7.86-4-7.91-10.18v-.09s17.72,0,17.72,0c.03,0,.05-.02.06-.05ZM147.28,19.98s-.11.08-.18.08h-15.09v-.1c.6-5.64,3.32-8.62,7.87-8.62s7.36,3.32,7.47,8.46c0,.07-.03.13-.07.18Z"/>
      <path class="cls-1" d="M161.18,11.66s.05-.02.05-.05v-2.32s-.01-.03-.02-.04c0,0-.03-.02-.04-.02-3.57.23-6.46,2.16-7.91,5.31-.05.1-.15.15-.26.13-.1-.02-.17-.11-.17-.22,0-1.61-.03-3.18-.05-4.15-.11-.06-.55-.29-2.21-1.09-.02,0-.03,0-.03.02,0,.2,0,.48,0,.85.01,1.23.04,3.3.04,6.19v17.43s.03.06.06.06h2.12s.06-.03.06-.06v-12.4c0-5.54,3.2-9.23,8.35-9.64Z"/>
      <path class="cls-1" d="M178.47,21.95c.04-.58.04-1.22.04-1.83,0-4.04-2.05-10.87-9.71-10.87-6.31,0-10.39,5.01-10.39,12.75,0,3.31.83,6.32,2.33,8.48,1.77,2.54,4.45,3.89,7.77,3.89,5.91,0,8.35-3.55,9.36-6.53,0-.03,0-.05,0-.06-.01-.02-.04-.03-.06-.03h-2.13s-.05.01-.06.04c-.93,2.09-2.57,4.5-6.99,4.5-4.76,0-7.86-4-7.91-10.18v-.09s17.71,0,17.71,0c.03,0,.06-.02.06-.06ZM176.1,19.98c-.05.05-.11.08-.18.08h-15.09v-.1c.61-5.72,3.26-8.62,7.87-8.62s7.35,3.32,7.47,8.46c0,.07-.03.14-.07.19Z"/>
      <path class="cls-1" d="M190.21,31.69h-.04s-11.93-.01-11.93-.01c-.09,0-.18-.05-.22-.13-.04-.08-.03-.18.03-.25l13.83-17.96v-2.96c0-.31-.25-.57-.57-.57h-.56s-14.7,0-14.7,0c-.04,0-.06.03-.06.04,0,.01-.01.04.01.06.47.51,1.51,1.63,1.82,1.97,0,0,.02.02.05.02h12.02c.09,0,.17.05.21.13.04.08.03.17-.03.24l-11.26,14.5c-.5,2.45-1.87,5.24-3.8,6.21v.78h17.5s.06-.03.06-.04c0-.01.01-.04-.02-.07l-2.35-1.96Z"/>
      <path class="cls-1" d="M26.74,25.61v-9.06c0-1.11-.29-3.84-.76-4.63-.06-.11-.01-.23.11-.26,1.28-.39,2.46-1.9,3.33-2.92.11-.13.33-.05.33.12v4.77c0,.21.28.26.36.07.97-2.5,3.56-4.88,7.06-4.88,4.41,0,7.98,3.99,7.98,9.54v10.68c0,1.28.35,3.31,1.01,4.43.07.13,0,.28-.16.28h-4.7c-.15,0-.23-.16-.16-.29.66-1.17,1.01-3.43,1.01-4.43v-10.68c0-4.25-2.23-6.89-5.49-6.89-4.3,0-6.9,3.53-6.9,7.41,0,0-.16,11.46-.09,12.87,0,.06-.01.16-.1.05-.8-1.02-2.59-5.57-2.59-5.57l-.23-.62Z"/>
      <path class="cls-1" d="M68.28,29.05v-12.49c0-1.14-.31-3.99-.8-4.69-.05-.08-.02-.17.07-.2.89-.36,2.33-1.28,3.27-2.62.08-.12.26-.06.26.08l.04,19.93c0,1.31.36,3.39,1.05,4.5.06.1,0,.21-.12.21h-4.71c-.11,0-.18-.12-.12-.22.68-1.15,1.05-3.48,1.05-4.5Z"/>
      <path class="cls-1" d="M85.58,31.87c2.48,0,4.38-.87,6.36-2.34.33-.25.77.17.51.51-1.8,2.36-4.49,4.32-8.38,4.32-6.74,0-11.66-5.7-11.66-12.75s4.46-12.6,10.63-12.6,9.53,5.56,9.69,10.85c0,.2-.15.36-.35.38l-16.53,1.19c-.21.01-.36.2-.34.41.55,5.58,4.3,10.04,10.08,10.04ZM75.73,19.5l13.49-1.03c.2-.02.36-.18.34-.38-.2-2.6-2.51-7.42-6.67-7.42-5.3,0-7.81,5.16-7.56,8.51.01.2.2.34.4.33Z"/>
      <path class="cls-1" d="M29.69,33.23c-1.72-1.79-2.62-5.12-4.54-9.84L16.25.22c-.04-.13-.17-.22-.3-.22h-2.77c-.17,0-.31.13-.31.31-.04,2.27-8.18,23.08-8.18,23.08C2.89,28.43,1.61,31.42.07,33.25c-.17.21-.02.52.25.52h4.03c.23,0,.36-.24.27-.45-.59-1.43.41-4.91,2.07-9.63,3.15-4.32,8.89-7.1,12.43-4.62.86.6,1.53,1.37,2.03,2.25,0,0,0,0,0,0l.62,1.76c1.73,5.14,2.19,7.69,1.73,10.3-.03.2.11.38.31.38h5.63c.28,0,.42-.33.23-.53ZM8.46,18.35L13.95,3.98c.1-.29.49-.29.61,0,1.49,3.63,3.46,7.59,5.25,13.14-3.66-1.86-7.98-1.27-11.35,1.24Z"/>
      <path class="cls-1" d="M69.11,7.14l-.93-3.26c-.04-.15-.21-.22-.35-.16l-6.62,3.02h-.19c-.33-.12-.67-.23-1.01-.33-.05-.01-.1-.03-.15-.04-.05-.01-.11-.03-.16-.05,0,0,0,0,0,0-.97-.26-2-.37-3.05-.37-6.07,0-9.95,4.1-9.95,9.49,0,2.87,1.71,5.64,3.66,7.31.1.09.12.23.04.34l-3.49,4.53c-.35.45-.45,1.06-.26,1.6l.62,1.77c.07.19.24.33.44.36l10.97,1.36c1.11.18,2.05.54,2.85,1.04.02,0,3.67,0,4.43,0,.06,0,.1-.07.06-.12-1.42-2.38-4.16-3.32-6.5-3.76h-.02s-9.21-1.05-9.21-1.05c-.18-.02-.28-.21-.19-.37l2.25-4.27c.06-.12.21-.17.33-.11,1.01.52,2.34.92,3.98.92,5.96,0,10.37-4.1,10.37-9.54,0-2.34-1.09-4.35-2.52-6.12-.42-.52-.93-.97-1.42-1.33-.06-.15.03-.34.22-.34l5.58-.2c.16,0,.28-.16.23-.32ZM56.59,23.59c-4.2,0-6.69-3.53-6.69-8.14s2.49-8.04,6.69-8.04c1.57,0,2.97.47,4.12,1.3.1.07.19.15.28.22,1.77,1.43,2.86,3.76,2.86,6.52,0,4.61-3.01,8.14-7.26,8.14Z"/>
      <circle class="cls-3" cx="101.28" cy="17.27" r="2.24"/>
    </g>
  </g>
</svg>