<?xml version="1.0" encoding="UTF-8"?>
<svg id="Capa_2" data-name="Capa 2" xmlns="http://www.w3.org/2000/svg" viewBox="0 0 174.87 77.82">
  <defs>
    <style>
      .cls-1 {
        fill: #0055b8;
      }

      .cls-2 {
        fill: none;
        stroke: #2a2f5a;
        stroke-miterlimit: 10;
        stroke-width: .25px;
      }

      .cls-3 {
        fill: #fff;
      }

      .cls-4 {
        fill: #0079c0;
      }

      .cls-5 {
        fill: #2a2f5a;
      }

      .cls-6 {
        fill: #f2902d;
      }
    </style>
  </defs>
  <g id="Capa_1-2" data-name="Capa 1">
    <g>
      <g>
        <path class="cls-5" d="M2.92,77.82c-1.45,0-2.56-.82-2.92-2.28l1.4-.2c.22.81.75,1.23,1.52,1.23s1.19-.44,1.19-.98-.36-.92-1.14-1.06l-.62-.11c-1.41-.25-2.13-.98-2.13-2.2,0-1.15.87-2.2,2.47-2.2,1.39,0,2.39.79,2.66,2.11l-1.39.22c-.15-.66-.57-1.07-1.26-1.07s-1.07.43-1.07.93c0,.54.32.87,1.07,1l.63.11c1.55.27,2.21,1.06,2.21,2.22,0,1.33-.99,2.28-2.6,2.28Z"/>
        <path class="cls-5" d="M15.28,70.15h4.77v1.25h-3.36v1.79h2.92v1.25h-2.92v2h3.36v1.25h-4.77v-7.54Z"/>
        <path class="cls-5" d="M31.07,74.64c0,1.26.51,1.92,1.42,1.92s1.24-.64,1.33-1.77h-1.39v-1.13h2.8v1.16c0,1.85-1.1,3-2.79,3s-2.78-1.25-2.78-3.01v-1.79c0-1.76,1.1-3.01,2.78-3.01,1.51,0,2.55.97,2.77,2.47l-1.4.21c-.12-.92-.61-1.41-1.31-1.41-.92,0-1.42.66-1.42,1.92v1.44Z"/>
        <path class="cls-5" d="M49.01,74.43v-4.28h1.41v4.75c0,1.77-1.01,2.92-2.73,2.92s-2.73-1.15-2.73-2.92v-4.75h1.41v4.28c0,1.42.39,2.13,1.32,2.13s1.31-.71,1.31-2.13Z"/>
        <path class="cls-5" d="M62.88,74.82h-1.05v2.87h-1.41v-7.54h2.77c1.21,0,2.47.71,2.47,2.34,0,1.14-.61,1.83-1.39,2.14l1.71,3.06h-1.52l-1.58-2.87ZM63.02,73.56c.71,0,1.23-.32,1.23-1.08s-.52-1.08-1.23-1.08h-1.19v2.15h1.19Z"/>
        <path class="cls-5" d="M76.99,77.69h-1.41v-7.54h1.41v7.54Z"/>
        <path class="cls-5" d="M92.34,74.82c0,1.77-1.09,2.87-2.78,2.87h-2.45v-7.54h2.45c1.69,0,2.78,1.1,2.78,2.86v1.81ZM90.93,73.19c0-1.24-.5-1.79-1.41-1.79h-.99v5.04h.99c.92,0,1.41-.55,1.41-1.79v-1.46Z"/>
        <path class="cls-5" d="M105.92,76.15h-2.5l-.48,1.54h-1.5l2.5-7.54h1.44l2.5,7.54h-1.5l-.47-1.54ZM103.79,74.94h1.77l-.88-2.94-.88,2.94Z"/>
        <path class="cls-5" d="M122.52,74.82c0,1.77-1.09,2.87-2.78,2.87h-2.45v-7.54h2.45c1.69,0,2.78,1.1,2.78,2.86v1.81ZM121.11,73.19c0-1.24-.5-1.79-1.41-1.79h-.99v5.04h.99c.92,0,1.41-.55,1.41-1.79v-1.46Z"/>
      </g>
      <path class="cls-1" d="M138.97,16.76V5.92c-15.99.23-28.89,13.13-29,29.07h10.89c.11-9.95,8.13-18,18.11-18.22Z"/>
      <path class="cls-5" d="M157.94,34.99c0,.07,0,.13,0,.2,0,10.19-8.3,18.45-18.54,18.45-.15,0-.29-.02-.43-.02v10.85c.14,0,.28.01.43.01,16.25,0,29.43-13.11,29.43-29.28,0-.07,0-.13,0-.2h-10.89Z"/>
      <path class="cls-3" d="M138.93,14.88c-10.99.25-19.84,9.12-19.96,20.09h19.96V14.88Z"/>
      <path class="cls-6" d="M118.97,34.97c0,.08-.01.15-.01.22,0,11.07,8.9,20.06,19.97,20.32v-20.54h-19.96Z"/>
      <path class="cls-4" d="M118.97,34.97c0,.08-.01.15-.01.22,0,11.07,8.9,20.06,19.97,20.32v-20.54h-19.96Z"/>
      <path class="cls-6" d="M139.41,14.85c-.16,0-.32.02-.48.03v20.09h20.91c-.12-11.13-9.22-20.12-20.43-20.12Z"/>
      <path class="cls-4" d="M139.41,14.85c-.16,0-.32.02-.48.03v20.09h20.91c-.12-11.13-9.22-20.12-20.43-20.12Z"/>
      <path class="cls-3" d="M138.93,55.51c.16,0,.31.02.48.02,11.28,0,20.44-9.11,20.44-20.34,0-.07-.01-.15-.01-.22h-20.91v20.54Z"/>
      <line class="cls-2" x1="138.97" y1=".22" x2="138.97" y2="14.85"/>
      <line class="cls-2" x1="138.97" y1="55.51" x2="138.97" y2="77.58"/>
      <line class="cls-2" x1="103.4" y1="34.99" x2="118.97" y2="34.99"/>
      <line class="cls-2" x1="151.52" y1="34.97" x2="174.87" y2="34.97"/>
      <path class="cls-5" d="M139.04,47.83c6.96,0,12.6-5.61,12.6-12.53s-5.64-12.53-12.6-12.53c-1.56,0-3.06.29-4.45.81l4.31,11.32-11.51-4.33c-.6,1.46-.93,3.06-.93,4.73,0,6.92,5.64,12.53,12.59,12.53Z"/>
      <path class="cls-5" d="M7.81,63.55V10.63H1.46c-.85,0-1.27-.42-1.27-1.27V1.28C.18.43.61,0,1.46,0h24.69s0,9.35,0,9.35c0,.85-.42,1.27-1.27,1.27h-6.45v52.92h0s-10.63,0-10.63,0"/>
      <path class="cls-5" d="M54.74,54.2v9.36h0s-22.23,0-22.23,0c0,0,0,0,0,0V1.28C32.5.43,32.93,0,33.77,0h20.55c.04.6-.21.58.42.03v9.32c0,.85-.42,1.27-1.27,1.27h-10.35v13.07h8.99c.85,0,1.27.43,1.27,1.27v8.08c0,.85-.42,1.27-1.27,1.27h-8.99v18.61h10.35c.85,0,1.27.42,1.27,1.27Z"/>
      <path class="cls-5" d="M97.87.04v63.51s-.01,0-.01,0h-11.24v-29.96l-5.99,23.42c-.12.3-.27.46-.45.46s-.33-.15-.46-.46l-5.99-23.42v29.96s0,0,0,0h-11.25V1.28C62.46.43,62.88,0,63.73,0h7.72c.36,0,.68.14.95.41.27.27.47.56.59.86l7.17,32.5L87.34,1.28c.12-.3.32-.59.59-.86.27-.27.59-.41.95-.41h8.94c.06,0,.05.03.05.03Z"/>
    </g>
  </g>
</svg>