<?xml version="1.0" encoding="UTF-8"?>
<svg id="Capa_2" data-name="Capa 2" xmlns="http://www.w3.org/2000/svg" xmlns:xlink="http://www.w3.org/1999/xlink" viewBox="0 0 221.29 55.61">
  <defs>
    <style>
      .cls-1 {
        fill: none;
      }

      .cls-2 {
        fill: #cb9832;
      }

      .cls-3 {
        clip-path: url(#clippath-1);
      }

      .cls-4 {
        clip-path: url(#clippath-3);
      }

      .cls-5 {
        clip-path: url(#clippath-4);
      }

      .cls-6 {
        clip-path: url(#clippath-2);
      }

      .cls-7 {
        clip-path: url(#clippath-5);
      }

      .cls-8 {
        clip-path: url(#clippath);
      }
    </style>
    <clipPath id="clippath">
      <path class="cls-1" d="M123.71,50.05h1.69c1.27,0,1.94.58,1.94,1.6s-.68,1.6-1.94,1.6h-1.69v-3.2ZM123.28,49.67v5.9h.43v-1.93h1.69c.2,0,.39-.02.57-.04l1.41,1.97h.49l-1.48-2.07c.88-.26,1.39-.91,1.39-1.85,0-1.25-.9-1.99-2.38-1.99h-2.12Z"/>
    </clipPath>
    <clipPath id="clippath-1">
      <rect class="cls-1" x="130.92" y="49.67" width=".43" height="5.9"/>
    </clipPath>
    <clipPath id="clippath-2">
      <path class="cls-1" d="M137.33,50.14l1.55,3.41h-3.1l1.55-3.41ZM137.12,49.67l-2.72,5.9h.47l.75-1.66h3.43l.76,1.66h.47l-2.72-5.9h-.43Z"/>
    </clipPath>
    <clipPath id="clippath-3">
      <polygon class="cls-1" points="143.32 49.67 143.32 55.57 147.15 55.57 147.15 55.18 143.75 55.18 143.75 49.67 143.32 49.67"/>
    </clipPath>
    <clipPath id="clippath-4">
      <polygon class="cls-1" points="150.2 49.67 150.2 55.57 154.28 55.57 154.28 55.18 150.63 55.18 150.63 52.76 153.78 52.76 153.78 52.38 150.63 52.38 150.63 50.05 154.15 50.05 154.15 49.67 150.2 49.67"/>
    </clipPath>
    <clipPath id="clippath-5">
      <path class="cls-1" d="M157.48,51.19c0,2.18,3.69,1.11,3.69,2.89,0,.64-.52,1.15-1.71,1.15-.79,0-1.55-.32-1.95-.74l-.19.32c.43.47,1.28.8,2.15.8,1.46,0,2.13-.72,2.13-1.56,0-2.14-3.69-1.1-3.69-2.87,0-.65.51-1.18,1.66-1.18.53,0,1.13.16,1.62.5l.16-.35c-.46-.33-1.13-.53-1.78-.53-1.45,0-2.1.73-2.1,1.57"/>
    </clipPath>
  </defs>
  <g id="Capa_1-2" data-name="Capa 1">
    <g>
      <path d="M166.04,0v52.4l11.53-7.06,11.86-1.69,8.47-7.11h6.78L219.51,0h-53.47ZM202.13,32.51l-5.77.13-8.5,6.71-11.45,1.55-6.23,3.95V4.06h44.2l-12.26,28.45Z"/>
      <polygon class="cls-2" points="166.04 55.16 178.58 47.38 190.1 45.68 199.6 38.24 205.7 38.24 221.29 0 221.29 55.16 166.04 55.16"/>
      <polygon points="96.09 49.67 93.44 54.23 90.8 49.67 90.44 49.67 90.44 55.57 90.86 55.57 90.86 50.53 93.33 54.78 93.55 54.78 96.02 50.52 96.03 55.57 96.45 55.57 96.44 49.67 96.09 49.67"/>
      <polygon points="96.09 49.67 93.44 54.23 90.8 49.67 90.44 49.67 90.44 55.57 90.86 55.57 90.86 50.53 93.33 54.78 93.55 54.78 96.02 50.52 96.03 55.57 96.45 55.57 96.44 49.67 96.09 49.67"/>
      <path d="M102.43,50.14l1.55,3.41h-3.1l1.55-3.41ZM102.22,49.67l-2.72,5.9h.46l.75-1.66h3.43l.76,1.66h.46l-2.72-5.9h-.43Z"/>
      <path d="M102.43,50.14l1.55,3.41h-3.1l1.55-3.41ZM102.22,49.67l-2.72,5.9h.46l.75-1.66h3.43l.76,1.66h.46l-2.72-5.9h-.43Z"/>
      <polygon points="108.42 49.67 108.42 50.05 110.54 50.05 110.54 55.57 110.97 55.57 110.97 50.05 113.1 50.05 113.1 49.67 108.42 49.67"/>
      <polygon points="108.42 49.67 108.42 50.05 110.54 50.05 110.54 55.57 110.97 55.57 110.97 50.05 113.1 50.05 113.1 49.67 108.42 49.67"/>
      <polygon points="116.15 49.67 116.15 55.57 120.23 55.57 120.23 55.18 116.58 55.18 116.58 52.76 119.73 52.76 119.73 52.38 116.58 52.38 116.58 50.05 120.1 50.05 120.1 49.67 116.15 49.67"/>
      <polygon points="116.15 49.67 116.15 55.57 120.23 55.57 120.23 55.18 116.58 55.18 116.58 52.76 119.73 52.76 119.73 52.38 116.58 52.38 116.58 50.05 120.1 50.05 120.1 49.67 116.15 49.67"/>
      <path d="M123.71,50.05h1.69c1.27,0,1.94.58,1.94,1.6s-.68,1.6-1.94,1.6h-1.69v-3.2ZM123.28,49.67v5.9h.43v-1.93h1.69c.2,0,.39-.02.57-.04l1.41,1.97h.49l-1.48-2.07c.88-.26,1.39-.91,1.39-1.85,0-1.25-.9-1.99-2.38-1.99h-2.12Z"/>
      <g class="cls-8">
        <rect x="123.28" y="49.67" width="4.6" height="5.9"/>
      </g>
      <rect x="130.92" y="49.67" width=".43" height="5.9"/>
      <g class="cls-3">
        <rect x="130.92" y="49.67" width=".43" height="5.9"/>
      </g>
      <path d="M137.33,50.14l1.55,3.41h-3.1l1.55-3.41ZM137.12,49.67l-2.72,5.9h.46l.75-1.66h3.43l.76,1.66h.47l-2.72-5.9h-.43Z"/>
      <g class="cls-6">
        <rect x="134.4" y="49.67" width="5.87" height="5.9"/>
      </g>
      <polygon points="143.32 49.67 143.32 55.57 147.15 55.57 147.15 55.18 143.75 55.18 143.75 49.67 143.32 49.67"/>
      <g class="cls-4">
        <rect x="143.32" y="49.67" width="3.83" height="5.9"/>
      </g>
      <polygon points="150.2 49.67 150.2 55.57 154.28 55.57 154.28 55.18 150.63 55.18 150.63 52.76 153.78 52.76 153.78 52.38 150.63 52.38 150.63 50.05 154.15 50.05 154.15 49.67 150.2 49.67"/>
      <g class="cls-5">
        <rect x="150.2" y="49.67" width="4.08" height="5.9"/>
      </g>
      <path d="M157.48,51.19c0,2.18,3.69,1.11,3.69,2.89,0,.64-.52,1.15-1.71,1.15-.79,0-1.55-.32-1.95-.74l-.2.32c.43.47,1.28.8,2.15.8,1.46,0,2.13-.72,2.13-1.56,0-2.14-3.69-1.1-3.69-2.87,0-.65.51-1.18,1.66-1.18.53,0,1.13.16,1.62.5l.16-.35c-.46-.33-1.13-.53-1.78-.53-1.45,0-2.1.73-2.1,1.57"/>
      <g class="cls-7">
        <rect x="157.32" y="49.62" width="4.28" height="5.99"/>
      </g>
      <g>
        <path d="M13.57,39.9h-7.98l-1.52,3.68H0l7.66-17.15h3.93l7.68,17.15h-4.17l-1.52-3.68ZM12.32,36.88l-2.72-6.57-2.72,6.57h5.45Z"/>
        <path d="M22.17,41.88l1.35-2.99c1.45,1.05,3.61,1.79,5.67,1.79,2.36,0,3.31-.78,3.31-1.84,0-3.21-9.99-1-9.99-7.37,0-2.92,2.36-5.34,7.24-5.34,2.16,0,4.37.51,5.97,1.52l-1.23,3.01c-1.59-.91-3.24-1.35-4.76-1.35-2.36,0-3.26.88-3.26,1.96,0,3.16,9.99.98,9.99,7.28,0,2.87-2.38,5.32-7.29,5.32-2.73,0-5.47-.81-7-1.99"/>
        <path d="M40.55,35c0-5.17,3.98-8.87,9.33-8.87,2.97,0,5.45,1.08,7.07,3.04l-2.55,2.35c-1.15-1.32-2.6-2.01-4.32-2.01-3.21,0-5.5,2.26-5.5,5.49s2.28,5.49,5.5,5.49c1.72,0,3.17-.69,4.32-2.03l2.55,2.35c-1.62,1.99-4.1,3.06-7.09,3.06-5.32,0-9.3-3.7-9.3-8.87"/>
        <polygon points="75.38 40.39 75.38 43.57 62.08 43.57 62.08 26.42 75.06 26.42 75.06 29.61 66.03 29.61 66.03 33.33 74.01 33.33 74.01 36.42 66.03 36.42 66.03 40.39 75.38 40.39"/>
        <polygon points="96.76 26.42 96.76 43.57 93.5 43.57 84.93 33.16 84.93 43.57 81 43.57 81 26.42 84.29 26.42 92.83 36.83 92.83 26.42 96.76 26.42"/>
        <path d="M103.29,26.42h7.8c5.62,0,9.47,3.38,9.47,8.58s-3.85,8.57-9.47,8.57h-7.8v-17.15ZM110.9,40.31c3.41,0,5.64-2.03,5.64-5.32s-2.23-5.32-5.64-5.32h-3.63v10.63h3.63Z"/>
        <polygon points="139.32 40.39 139.32 43.57 126.02 43.57 126.02 26.42 139 26.42 139 29.61 129.97 29.61 129.97 33.33 137.95 33.33 137.95 36.42 129.97 36.42 129.97 40.39 139.32 40.39"/>
        <path d="M155.89,43.57l-3.31-4.78h-3.66v4.78h-3.98v-17.15h7.44c4.59,0,7.46,2.38,7.46,6.22,0,2.57-1.3,4.46-3.53,5.41l3.85,5.51h-4.27ZM152.16,29.65h-3.24v5.98h3.24c2.43,0,3.66-1.13,3.66-2.99s-1.23-2.99-3.66-2.99"/>
      </g>
    </g>
  </g>
</svg>