<?xml version="1.0" encoding="UTF-8"?>
<svg id="Capa_2" data-name="Capa 2" xmlns="http://www.w3.org/2000/svg" viewBox="0 0 220.33 86.86">
  <defs>
    <style>
      .cls-1 {
        fill: #d7282f;
      }

      .cls-2 {
        fill: #0082ca;
      }

      .cls-3 {
        fill: #00bc70;
      }

      .cls-4 {
        fill-rule: evenodd;
      }

      .cls-5 {
        fill: #ffa400;
      }

      .cls-6 {
        fill: #f6e948;
      }

      .cls-7 {
        fill: #b11cab;
      }

      .cls-8 {
        fill: #cf63ce;
      }

      .cls-9 {
        fill: #ffd600;
      }

      .cls-10 {
        fill: #2c9942;
      }

      .cls-11 {
        fill: #ff4438;
      }

      .cls-12 {
        fill: #f18a00;
      }

      .cls-13 {
        fill: #0075c9;
      }
    </style>
  </defs>
  <g id="Capa_1-2" data-name="Capa 1">
    <g>
      <path d="M71.51,86.74v-6.77h2.55c.45,0,.79.02,1.03.07.33.05.61.16.84.32.22.16.41.37.54.65.14.28.2.59.2.92,0,.57-.18,1.06-.55,1.46-.37.4-1.03.6-1.98.6h-1.74v2.75h-.9ZM72.41,83.19h1.75c.58,0,.99-.11,1.23-.32.24-.22.37-.52.37-.91,0-.28-.07-.53-.22-.73-.14-.2-.33-.34-.57-.4-.15-.04-.43-.06-.84-.06h-1.73v2.42Z"/>
      <rect x="80.8" y="79.97" width=".9" height="6.77"/>
      <polygon points="86.1 86.74 86.1 79.97 87.02 79.97 90.58 85.29 90.58 79.97 91.43 79.97 91.43 86.74 90.52 86.74 86.96 81.42 86.96 86.74 86.1 86.74"/>
      <polygon points="97.5 86.74 97.5 80.77 95.27 80.77 95.27 79.97 100.63 79.97 100.63 80.77 98.39 80.77 98.39 86.74 97.5 86.74"/>
      <path d="M108.82,79.97h.9v3.91c0,.68-.08,1.22-.23,1.62-.15.4-.43.72-.83.98-.4.25-.93.38-1.58.38s-1.15-.11-1.56-.33c-.4-.22-.69-.53-.86-.95-.17-.41-.26-.98-.26-1.69v-3.91h.9v3.9c0,.59.05,1.02.16,1.3.11.28.3.49.56.64.27.15.59.23.98.23.66,0,1.13-.15,1.41-.45.28-.3.42-.87.42-1.72v-3.9Z"/>
      <path d="M114.06,86.74v-6.77h3c.6,0,1.06.06,1.38.18.31.12.56.34.75.64.19.31.28.65.28,1.02,0,.48-.16.89-.47,1.21-.31.33-.79.54-1.44.63.24.11.42.23.54.34.26.24.51.54.74.9l1.18,1.84h-1.13l-.89-1.41c-.26-.41-.48-.72-.65-.93-.17-.21-.32-.37-.45-.45-.13-.09-.27-.15-.41-.18-.1-.02-.27-.03-.5-.03h-1.04v3.01h-.9ZM114.95,82.96h1.92c.41,0,.73-.04.96-.13.23-.08.41-.22.53-.41.12-.19.18-.39.18-.61,0-.32-.12-.58-.35-.79-.23-.21-.6-.31-1.1-.31h-2.14v2.24Z"/>
      <path d="M122.96,86.74l2.6-6.77h.96l2.77,6.77h-1.02l-.79-2.05h-2.83l-.74,2.05h-.95ZM124.91,83.96h2.29l-.71-1.87c-.22-.57-.38-1.04-.48-1.4-.09.43-.21.86-.36,1.29l-.74,1.99Z"/>
      <path d="M132.54,84.57l.84-.07c.04.34.13.62.28.83.15.22.37.39.68.53.31.13.65.2,1.04.2.34,0,.64-.05.9-.15.26-.1.46-.24.58-.42.13-.18.19-.37.19-.58s-.06-.4-.18-.56c-.12-.16-.33-.29-.61-.4-.18-.07-.58-.18-1.2-.33-.62-.15-1.06-.29-1.31-.42-.32-.17-.56-.38-.72-.63-.16-.25-.24-.53-.24-.84,0-.34.1-.66.29-.96.19-.3.48-.52.85-.68.37-.15.79-.23,1.24-.23.5,0,.94.08,1.33.24.38.16.68.4.88.71.21.31.32.67.33,1.07l-.86.06c-.05-.43-.2-.75-.47-.97-.27-.22-.66-.33-1.18-.33s-.94.1-1.18.3c-.25.2-.37.44-.37.72,0,.24.09.44.26.6.17.16.62.32,1.35.48.73.17,1.23.31,1.5.43.39.18.68.41.87.69.19.28.28.6.28.96s-.1.7-.31,1.02c-.21.32-.5.57-.89.74-.39.18-.82.27-1.3.27-.61,0-1.13-.09-1.54-.27-.41-.18-.74-.45-.97-.81-.24-.36-.36-.76-.37-1.22"/>
      <path class="cls-4" d="M6.91,46.72h7.59c.93,0,1.81.19,2.62.52.84.35,1.6.86,2.24,1.5.63.64,1.15,1.39,1.5,2.24.34.81.52,1.7.52,2.62v2.79c0,.93-.19,1.82-.52,2.62-.35.84-.86,1.6-1.5,2.23-.64.64-1.4,1.15-2.24,1.5-.81.34-1.7.53-2.62.53h-7.59c-.29,0-.59-.02-.88-.06-.3-.04-.59-.1-.87-.17-.21-.05-.41-.12-.62-.19l-.26-.1v5.29H0v-14.34h.03v-.1c0-.93.18-1.82.52-2.62.35-.84.86-1.6,1.5-2.24,1.25-1.25,2.97-2.02,4.86-2.02M14.03,51.12h-6.64c-.42,0-.82.08-1.18.23-.38.16-.72.39-1.01.67-.29.28-.52.63-.67,1.01-.15.36-.24.76-.24,1.18v1.58c0,.42.09.81.24,1.18.16.38.39.72.67,1,.56.56,1.33.91,2.19.91h6.64c.42,0,.82-.09,1.18-.23.38-.16.72-.39,1-.67.56-.56.91-1.34.91-2.19v-1.58c0-.42-.08-.82-.23-1.18-.16-.38-.39-.72-.68-1.01-.28-.29-.62-.52-1-.67-.36-.15-.77-.23-1.18-.23"/>
      <path class="cls-4" d="M89.49,46.72h7.59c.93,0,1.81.19,2.62.52.84.35,1.6.86,2.24,1.5.63.64,1.15,1.39,1.5,2.24.34.81.52,1.7.52,2.62v2.79c0,.93-.19,1.82-.52,2.62-.35.84-.86,1.6-1.5,2.23-.64.64-1.39,1.15-2.24,1.5-.81.34-1.7.53-2.62.53h-7.59c-.29,0-.59-.02-.88-.06-.3-.04-.59-.1-.86-.17-.21-.05-.42-.12-.62-.19l-.26-.1v5.29h-4.28v-14.34h.03v-.1c0-.93.19-1.82.52-2.62.35-.84.86-1.6,1.5-2.24,1.25-1.25,2.97-2.02,4.86-2.02M96.61,51.12h-6.65c-.42,0-.81.08-1.18.23-.38.16-.72.39-1.01.67-.29.28-.52.63-.67,1.01-.15.36-.24.76-.24,1.18v1.58c0,.42.09.81.24,1.18.16.38.39.72.67,1,.56.56,1.33.91,2.18.91h6.65c.42,0,.81-.09,1.18-.23.38-.16.72-.39,1.01-.67.56-.56.91-1.34.91-2.19v-1.58c0-.42-.08-.82-.23-1.18-.15-.38-.39-.72-.67-1.01-.28-.29-.63-.52-1.01-.67-.36-.15-.76-.23-1.18-.23"/>
      <path class="cls-4" d="M162.6,46.72h7.59c.97,0,1.89.19,2.73.55.88.36,1.66.9,2.33,1.55.66.66,1.19,1.45,1.55,2.33.35.84.54,1.77.54,2.73v.82h-4.74l-.11-.66c-.05-.33-.17-.64-.33-.93-.17-.29-.38-.55-.64-.77-.25-.21-.54-.38-.85-.5-.3-.11-.63-.17-.97-.17h-6.64c-.34,0-.66.06-.97.17-.31.12-.6.29-.85.5-.25.22-.47.48-.64.77-.16.28-.27.6-.32.93l-.04.26v10.19h-4.84v-10.78h.03c.02-.9.21-1.76.54-2.56.37-.88.9-1.66,1.56-2.33.66-.66,1.45-1.19,2.33-1.55.84-.35,1.77-.55,2.73-.55"/>
      <path class="cls-4" d="M145.8,64.38h-7.6c-.88,0-1.72-.16-2.51-.46-.81-.31-1.55-.76-2.19-1.32-.58-.51-1.08-1.11-1.48-1.79-.5-.86-.89-1.59-1-2.8l.03-4.32c.02-.9.21-1.76.54-2.56.37-.88.9-1.66,1.56-2.33.67-.66,1.45-1.19,2.33-1.55.84-.35,1.77-.55,2.73-.55h7.6c.96,0,1.89.19,2.73.55.88.36,1.67.9,2.33,1.55.66.66,1.19,1.45,1.56,2.33.35.84.54,1.77.54,2.73v.32h-4.82l-.03-.19c-.05-.32-.17-.63-.33-.91-.16-.29-.38-.54-.63-.75-.25-.21-.54-.38-.85-.5-.3-.11-.63-.17-.97-.17h-6.64c-.34,0-.67.06-.97.17-.31.12-.6.29-.85.5-.26.21-.47.48-.64.77-.16.28-.27.6-.33.93l-.04.26v2.52l.04.25c.05.33.17.64.33.93.17.29.38.55.64.77.25.21.54.38.85.5.3.11.63.17.97.17h6.64c.34,0,.67-.06.97-.17.31-.12.6-.29.85-.5.26-.22.47-.48.64-.77.16-.28.27-.59.33-.93,0-.04.03-.15.03-.2h4.81v.36c0,.97-.19,1.89-.54,2.73-.36.88-.9,1.66-1.56,2.33-.66.66-1.45,1.19-2.33,1.56-.84.35-1.76.55-2.73.55"/>
      <path class="cls-4" d="M54.62,46.72h4.3c.49,0,.97.06,1.43.15.47.1.93.25,1.37.45.39.18.77.39,1.12.63.29.2.57.43.83.67.25-.24.53-.47.82-.67.35-.25.73-.46,1.12-.63.44-.2.89-.35,1.36-.45.46-.1.94-.15,1.43-.15h4.3c.93,0,1.81.19,2.63.52.84.35,1.6.86,2.23,1.5.63.64,1.15,1.39,1.5,2.24.34.81.52,1.7.52,2.62v.1h.03v9.65h-4.28v-9.35l-.05-.28c-.06-.36-.18-.71-.36-1.02-.18-.32-.42-.6-.7-.84-.27-.23-.59-.42-.94-.55-.33-.12-.69-.19-1.07-.19h-3.34c-.37,0-.73.07-1.06.19-.34.13-.66.31-.93.54-.27.23-.51.52-.69.83-.18.3-.3.63-.36.98v9.78h-4.34v-9.76c-.06-.35-.18-.68-.36-.98-.18-.31-.41-.6-.69-.83-.27-.23-.59-.42-.93-.55-.33-.12-.69-.19-1.06-.19h-3.34c-.38,0-.73.07-1.07.19-.34.13-.66.31-.93.55-.28.24-.51.52-.69.84-.18.31-.3.66-.36,1.02l-.05.28v9.35h-4.28v-9.65h.03v-.1c0-.93.19-1.81.52-2.62.35-.84.87-1.6,1.5-2.24.63-.63,1.39-1.15,2.23-1.5.81-.33,1.7-.52,2.63-.52"/>
      <polygon class="cls-4" points="205.41 37.61 209.46 37.61 209.46 64.78 204.63 64.78 204.63 37.61 205.41 37.61"/>
      <path class="cls-4" d="M197.09,46.73h4.05v27.83h-4.84v-10.79l-.11.03c-.15.05-.29.09-.43.13-.3.08-.6.14-.91.18-.31.04-.62.06-.92.06h-7.59c-.97,0-1.89-.19-2.73-.54-.88-.36-1.67-.9-2.33-1.56-.66-.66-1.19-1.45-1.55-2.32-.35-.84-.55-1.77-.55-2.73v-.26h0v-10.04s4.85,0,4.85,0v10.19c.06.32.18.63.33.9.16.28.37.54.62.75.25.21.54.38.85.5.3.11.63.17.97.17h6.64c.34,0,.67-.06.97-.17.32-.11.6-.29.85-.5.25-.21.47-.48.63-.77.16-.28.27-.6.33-.93l.04-.26v-9.88h.81Z"/>
      <path class="cls-4" d="M28.85,57.18h11.16c.48,0,.87.39.87.87v.09c0,.48-.39.87-.87.87h-11.16c-.48,0-.87-.39-.87-.87v-.09c0-.48.39-.87.87-.87M26.78,62.88c-.59-.26-1.12-.64-1.57-1.09-.48-.49-.87-1.07-1.14-1.71-.26-.62-.4-1.3-.4-2s.12-1.32.34-1.9c.23-.61.58-1.15,1.01-1.62.43-.47.96-.86,1.55-1.14.58-.28,1.22-.47,1.9-.54h11.5c.46,0,.85-.38.85-.85v-.13c0-.47-.38-.85-.85-.85h-14.14v-4.28s13.02-.05,13.02-.05h.36c.2,0,.4,0,.6,0,.21,0,.41,0,.61.03.65.07,1.27.26,1.83.54.58.29,1.08.69,1.51,1.16.42.47.76,1.01.99,1.62.22.58.34,1.21.34,1.87v6.16c-.01.39-.12,1.21-.5,2.07-.25.57-.62,1.17-1.15,1.69-1.02.98-2.33,1.4-3.72,1.45-2.5.09-5.14.07-7.57.04h-1.69c-.54-.01-1.07-.01-1.57-.01-.75,0-1.4-.14-2.12-.47"/>
      <path class="cls-4" d="M111.65,57.18h11.16c.48,0,.87.39.87.87v.09c0,.48-.39.87-.87.87h-11.16c-.48,0-.87-.39-.87-.87v-.09c0-.48.39-.87.87-.87M109.58,62.88c-.59-.26-1.12-.64-1.57-1.09-.48-.49-.87-1.07-1.14-1.71-.26-.62-.4-1.3-.4-2s.12-1.32.34-1.9c.23-.61.58-1.15,1.01-1.62.43-.47.96-.86,1.55-1.14.58-.28,1.22-.47,1.9-.54h11.5c.46,0,.85-.38.85-.85v-.13c0-.47-.38-.85-.85-.85h-14.14v-4.28s13.02-.05,13.02-.05h.36c.2,0,.4,0,.6,0,.21,0,.41,0,.61.03.65.07,1.27.26,1.83.54.58.29,1.08.69,1.51,1.16.42.47.76,1.01.99,1.62.22.58.34,1.21.34,1.87v6.16c-.01.39-.12,1.21-.5,2.07-.25.57-.62,1.17-1.15,1.69-1.02.98-2.33,1.4-3.72,1.45-2.5.09-5.14.07-7.57.04h-1.69c-.54-.01-1.07-.01-1.57-.01-.75,0-1.4-.14-2.12-.47"/>
      <path d="M214.84,39.08c.33-.05.82-.09,1.37-.09.67,0,1.14.1,1.47.36.27.22.42.53.42.95,0,.58-.41.98-.8,1.12v.02c.32.13.49.43.6.85.14.51.28,1.1.37,1.28h-1.05c-.07-.13-.18-.5-.32-1.06-.12-.57-.32-.72-.73-.73h-.31v1.78h-1.02v-4.47ZM215.86,41.03h.4c.51,0,.81-.26.81-.65s-.28-.62-.75-.63c-.25,0-.39.02-.46.03v1.25Z"/>
      <path d="M216.36,45.34c-2.19,0-3.97-1.82-3.97-4.05s1.78-4.05,3.97-4.05,3.97,1.82,3.97,4.05-1.78,4.05-3.97,4.05M216.36,37.86c-1.85,0-3.36,1.54-3.36,3.43s1.51,3.43,3.36,3.43,3.36-1.54,3.36-3.43-1.51-3.43-3.36-3.43"/>
      <path class="cls-8" d="M56.17,9.63V.01c-3.35.38-5.11,2.41-5.11,6.05v3.58h-.01v18.01c0,.71.29,1.35.75,1.81.46.46,1.11.75,1.81.75,1.42,0,2.56-1.15,2.56-2.56V9.63Z"/>
      <path class="cls-11" d="M169.29,9.68v-3.58c0-3.64-1.86-5.67-5.1-6.09v9.83h0v15.84c0,.71.29,1.35.76,1.81.46.46,1.11.75,1.81.75,1.42,0,2.51-1.16,2.51-2.58l.02-15.98Z"/>
      <path class="cls-7" d="M61.3,0h-5.14s0,9.77,0,9.77h0v7.43c0-1.42,1.15-2.56,2.56-2.56.71,0,1.35.29,1.81.75.46.46.75,1.1.75,1.81v-7.43h0V0Z"/>
      <path class="cls-8" d="M66.43,9.63V0S61.3,0,61.3,0v9.63h0v9.44c0,.71.29,1.35.75,1.81.46.46,1.11.75,1.81.75,1.42,0,2.56-1.15,2.56-2.56v-9.44h0Z"/>
      <path class="cls-13" d="M71.55,9.63V0h-5.13s0,9.8,0,9.8h0v7.1c0-1.41,1.15-2.56,2.57-2.56.71,0,1.35.29,1.81.75.46.46.75,1.1.75,1.81v-7.28s0,0,0,0Z"/>
      <path class="cls-2" d="M76.67,0h-5.12v9.66h-.02v15.18c0,.71.29,1.35.75,1.81.46.46,1.1.75,1.81.75,1.41,0,2.57-1.15,2.57-2.56v-15.03s0-9.8,0-9.8Z"/>
      <path class="cls-13" d="M81.79,9.63V0h-5.1s-.01,0-.01,0v9.8h-.02v5.73c.01-1.42,1.16-2.56,2.58-2.56.71,0,1.35.29,1.81.75.46.46.74,1.1.74,1.81v-5.9h0Z"/>
      <path class="cls-2" d="M86.93,9.66V0h-5.14s.01,9.8.01,9.8v25.54c0,.71.29,1.35.76,1.82.46.46,1.11.75,1.81.75,1.42,0,2.56-1.15,2.56-2.56V9.66h0Z"/>
      <path class="cls-10" d="M92.06,0h-5.14s0,9.8,0,9.8v11.15c0-1.42,1.17-2.56,2.58-2.56.71,0,1.35.29,1.81.75.46.46.74,1.1.74,1.81V0Z"/>
      <path class="cls-10" d="M102.37,0h-5.16v9.63h-.01v7.03c.01-1.42,1.15-2.57,2.56-2.57.71,0,1.35.29,1.81.75.46.46.79,1.1.79,1.81v-6.86s0-9.8,0-9.8Z"/>
      <path class="cls-3" d="M97.21,0h-5.15v9.78h.01v17.84c-.01.71.29,1.36.75,1.83.46.46,1.1.75,1.81.75,1.42,0,2.59-1.16,2.59-2.57V9.79h0V0Z"/>
      <path class="cls-3" d="M107.52,0h-5.15v9.63h0v16c0,.71.29,1.35.75,1.81.46.46,1.11.75,1.81.75,1.42,0,2.59-1.15,2.59-2.56v-15.85s0-9.78,0-9.78Z"/>
      <path class="cls-9" d="M112.68,0h-5.16v18.86c0-1.42,1.16-2.56,2.57-2.56.71,0,1.35.29,1.81.75.46.46.77,1.11.77,1.81v-9.08s0-9.78,0-9.78Z"/>
      <path class="cls-6" d="M117.82,0h-5.15v9.8h0v15.83c0,.71.29,1.35.75,1.81.46.46,1.1.75,1.81.75,1.42,0,2.59-1.15,2.59-2.56v-15.83s0-9.8,0-9.8Z"/>
      <path class="cls-9" d="M122.98,0h-5.16v9.8h0v4.99c0-1.42,1.15-2.57,2.57-2.57.71,0,1.35.29,1.81.75.46.46.78,1.11.78,1.82v-5h0V0Z"/>
      <path class="cls-6" d="M128.13,0h-5.15v18.26c0,.71.29,1.35.75,1.81.47.46,1.11.75,1.81.75,1.42,0,2.59-1.15,2.59-2.56v-8.45s0-9.8,0-9.8Z"/>
      <path class="cls-12" d="M133.29,0h-5.16v9.66h0v6.02c0-1.42,1.15-2.56,2.57-2.56.71,0,1.35.29,1.81.75.46.46.78,1.11.78,1.81v-5.88h0V0Z"/>
      <path class="cls-5" d="M138.4,0h-5.15v9.8h0v20.53c0,.71.29,1.35.75,1.81.46.46,1.1.75,1.81.75,1.42,0,2.59-1.15,2.59-2.56V9.81s0-9.8,0-9.8Z"/>
      <path class="cls-12" d="M143.56,0h-5.16v9.66h0v14.38c0-1.42,1.14-2.56,2.55-2.56.71,0,1.35.29,1.81.75.46.46.79,1.1.79,1.81v-14.24s0-9.8,0-9.8Z"/>
      <path class="cls-5" d="M148.72,0h-5.16v9.66s0,0,0,0v22c0,.71.29,1.35.75,1.81.46.46,1.11.75,1.81.75,1.42,0,2.59-1.15,2.59-2.56V9.81s0-9.8,0-9.8Z"/>
      <path class="cls-1" d="M153.89,0h-5.17v9.66h0v4.92c0-1.42,1.15-2.56,2.56-2.56.71,0,1.35.29,1.81.75.46.46.8,1.1.8,1.81v-4.77s0,0,0,0V0Z"/>
      <path class="cls-1" d="M164.19,0h-5.16v9.66h0v8.03c0-1.42,1.15-2.56,2.56-2.56.71,0,1.35.29,1.81.75.46.46.78,1.1.78,1.81v-7.88s0-9.8,0-9.8Z"/>
      <path class="cls-11" d="M159.03,0h-5.15v20.53c0,.71.28,1.35.74,1.81.47.46,1.11.75,1.81.75,1.42,0,2.6-1.15,2.6-2.56v-10.72h0V0Z"/>
    </g>
  </g>
</svg>