<?xml version="1.0" encoding="UTF-8"?>
<svg id="Capa_2" data-name="Capa 2" xmlns="http://www.w3.org/2000/svg" viewBox="0 0 126 50.41">
  <defs>
    <style>
      .cls-1 {
        fill: #1890d0;
      }
    </style>
  </defs>
  <g id="Capa_1-2" data-name="Capa 1">
    <path class="cls-1" d="M60.15,43.02h4.39v-18.22h-4.39v18.22ZM60.59,18c-.29,0-.44.29-.44.44v3.95h4.39v-3.95c0-.22-.07-.44-.44-.44h-3.51ZM48.29,18c-.37,0-.44.22-.44.44v3.51c0,4.17-.44,10.32-5.49,16.68l-2.85-20.05c-.07-.37-.15-.59-.59-.59h-4.24c-.44,0-.44.29-.44.44-.29,9.73-4.76,22.9-15.37,24.88.37,0,.73.07,1.1.07,6.66,0,13.9-4.46,16.02-13.1l1.76,13.32c-4.17,2.12-8.71,3.15-13.1,3.15-10.1,0-19.83-5.56-24.66-16.46,3.07,13.32,14.05,20.12,24.95,20.12s21.37-6.66,24.22-20.12c0,0,1.98,12.29,1.98,12.73h5.93l-4.17-24.59c-.07-.29-.15-.44-.51-.44h-4.1ZM22.5,5.54c1.76-.37,3.56-.56,5.38-.56,7.68,0,15.51,3.37,20.63,10.83C44.34,4.9,34.98,0,25.68,0,13.54,0,1.54,8.49,1.54,23.27c0,3.29.88,6.8,2.63,9.88-.44-1.54-.66-3.29-.66-4.83h0c.25-12.53,8.88-20.65,18.99-22.78M111.07,29.85l1.76.66c1.23-2.02,2.93-2.93,4.98-2.93,2.2,0,4.24,1.39,4.24,3.95v.29c-1.32-.29-2.56-.51-3.8-.51-4.32,0-7.61,2.12-7.61,6.66,0,3.37,3.22,5.34,6.44,5.34,1.83,0,3.73-.66,4.98-2.05v1.76h3.95v-12.07c0-3.95-3.37-6.44-6.95-6.44-3.29,0-6.8,1.76-7.98,5.34h0ZM122.05,39.07c-1.02.66-2.49,1.1-3.88,1.1-1.9,0-3.59-.8-3.59-2.85,0-2.34,1.9-3.51,4.24-3.51,1.02,0,2.12.22,3.22.66v4.61ZM107.56,34.68c0-5.93-3.15-10.17-8.71-10.17s-9.29,4.24-9.29,9.29c0,6,4.9,9.44,9.66,9.44,3.44,0,6.73-1.76,8.12-5.71l-1.54-.66c-1.1,1.61-3.44,2.56-5.78,2.56-2.78,0-5.49-1.39-5.85-4.76h13.39ZM94.17,32.05c.44-2.78,2.56-4.24,4.68-4.24s4.17,1.39,4.54,4.24h-9.22ZM82.32,18c-.44,0-.44.29-.44.44v7.46c-1.61-.95-3.37-1.39-5.12-1.39-4.46,0-8.71,3.07-8.71,9.51s4.02,9.29,7.9,9.29c2.34,0,4.61-1.02,5.93-2.71v2.41h4.39v-24.59c0-.29-.15-.44-.44-.44h-3.51ZM81.88,37.76c-1.32,1.17-2.78,1.68-4.17,1.68-2.63,0-4.83-1.98-4.83-5.85s2.49-5.49,5.05-5.49c1.46,0,3,.59,3.95,1.54v8.12Z"/>
  </g>
</svg>