<?xml version="1.0" encoding="UTF-8"?>
<svg id="Capa_2" data-name="Capa 2" xmlns="http://www.w3.org/2000/svg" viewBox="0 0 197.88 57.21">
  <defs>
    <style>
      .cls-1 {
        fill: #232856;
      }
    </style>
  </defs>
  <g id="Capa_1-2" data-name="Capa 1">
    <g>
      <path class="cls-1" d="M101.16,32.65c.41-.34,1-1.16,1.5-1.15l10.02.06c-1.4,4.57-4.83,8.15-9.45,9.64-9.16,2.95-19.47-2.16-20.97-11.98-.53-3.48-.18-6.99,1.13-10.25,3.54-8.85,13.98-11.22,22.39-7.3,6.61,3.35,8.44,10.28,7.79,17.38l-21.44.05c0,1.6.94,2.9,2.27,3.72,2.07,1.29,4.76,1.51,6.78-.17ZM103.7,22.99c-.59-3.25-3.19-4.99-5.99-4.92s-5.19,2.16-5.57,4.93h11.57Z"/>
      <path class="cls-1" d="M196.94,31.69c-2.9,8.33-11.66,11.76-19.94,9.79-4.29-1.02-7.81-3.74-9.88-7.62-4.44-8.3-1.56-19.01,7.41-22.61,3.67-1.47,7.62-1.78,11.46-.88,6.6,1.54,11.31,6.99,11.82,13.73.2,2.63,0,5.1-.87,7.59ZM182.87,33.63c2.08-.45,3.68-1.72,4.41-3.63.96-2.49,1.03-5.23.17-7.7-.96-2.74-3.39-4.47-6.23-4.19-3.1.31-5.29,2.29-5.96,5.26-.72,3.18-.15,6.51,2.17,8.92,1.37,1.42,3.45,1.77,5.44,1.33Z"/>
      <path class="cls-1" d="M150.81,33.17c.93-.56,1.61-1.41,2.21-2.2l10.31-.03c-.52,4.1-4.22,8.03-8,9.66-4.43,1.92-9.4,1.87-13.82-.02-7.46-3.2-9.89-11.49-8.23-19.05.96-4.37,3.7-7.99,7.72-9.99,4.88-2.42,10.61-2.34,15.42.16,3.61,1.87,6.06,5.04,6.95,9.16h-10.06c-.36-.27-.8-.79-1.08-1.18-1.26-1.51-3.26-1.92-5.21-1.47-4.31,1-5.22,7.17-3.84,11.53.36,1.14,1.02,2.11,1.89,2.9,1.56,1.41,3.83,1.69,5.74.53Z"/>
      <path class="cls-1" d="M73.21,31.95c.08.93.82,1.33,1.6,1.37l4.49.2v7.98c-5.04.83-13.05-.02-14.93-4.73-.56-1.4-.8-2.98-.84-4.52l-.37-14.1.21-15.59h9.55s.18,7.63.18,7.63h6.13s-.06,8-.06,8l-6.24.02v10.56s.29,3.17.29,3.17Z"/>
      <polygon class="cls-1" points="128.17 41.57 118.53 41.58 118.52 0 128.12 .06 128.17 41.57"/>
      <path class="cls-1" d="M49.77,41.61l-9.63-.09.09-31.33,9.51.12.68,4.63c1.99-3.18,4.77-5.02,8.34-5.05v9.78s-4.93.34-4.93.34c-2.14.47-3.53,1.98-3.84,4.19l-.31,5.5.09,11.91Z"/>
      <path class="cls-1" d="M34,57.1l-.06-3.83-1.67,2.68c-.11.17-.36.4-.52.44s-.53-.18-.61-.32l-1.66-2.65-.11,3.64-1.47.02v-6.69s1.33.02,1.33.02l2.48,4.09,2.43-4.07,1.31-.04v6.69s-1.44.02-1.44.02Z"/>
      <path class="cls-1" d="M63.2,57.12l-1.27-1.85-1.44-.05v1.88s-1.58,0-1.58,0v-6.72s3.51.07,3.51.07c1.06.02,2.01.88,2.21,1.68.29,1.18-.08,2.25-1.25,2.82l1.43,2.11-1.6.07ZM62.53,53.84c.31-.02.62-.71.62-.99s-.25-.98-.53-1.01l-2.13-.21v2.36s2.03-.16,2.03-.16Z"/>
      <path class="cls-1" d="M160.9,50.91c1.4.92,1.83,2.51,1.33,4.01-.45,1.35-1.88,2.31-3.48,2.28-1.65-.03-3-.91-3.45-2.32-.49-1.54.02-3.24,1.48-4.07,1.25-.71,2.85-.73,4.12.1ZM158.33,51.68c-1.28.26-1.85,1.49-1.53,2.69.25.98,1.31,1.71,2.48,1.44,1.07-.25,1.73-1.28,1.55-2.45-.17-1.09-1.15-1.95-2.49-1.68Z"/>
      <path class="cls-1" d="M140.85,57.11l-1.24-1.77-1.46-.13-.02,1.88h-1.56s0-6.7,0-6.7l3.58.08c1.16.03,2.01.94,2.18,1.89.19,1.09-.26,2.05-1.3,2.61l1.45,2.12-1.63.02ZM140.02,53.9c.41-.02.86-.81.8-1.22-.05-.34-.54-.94-.89-.95l-1.78-.09v2.36s1.88-.1,1.88-.1Z"/>
      <polygon class="cls-1" points="106.56 54.3 103.51 54.31 103.47 55.82 107.08 55.82 107.11 57.09 101.92 57.09 101.91 50.39 106.98 50.39 106.99 51.66 103.51 51.67 103.47 53.09 106.55 53.08 106.56 54.3"/>
      <path class="cls-1" d="M120.09,54.29l-3.07.02-.05,1.5h3.6s-.01,1.28-.01,1.28h-5.16s0-6.7,0-6.7h5s.04,1.28.04,1.28h-3.47s.01,1.41.01,1.41h2.82c.14.1.22.57.29,1.21Z"/>
      <path class="cls-1" d="M89.45,54.29l-3.13.03v1.5s3.57,0,3.57,0l.05,1.27h-5.17s0-6.7,0-6.7h5s.03,1.28.03,1.28h-3.47s0,1.41,0,1.41h2.85c.15.09.23.58.28,1.21Z"/>
      <polygon class="cls-1" points="56.52 54.31 53.43 54.3 53.4 55.81 57.03 55.83 57.03 57.09 51.88 57.1 51.88 50.39 56.91 50.39 56.91 51.66 53.43 51.67 53.42 53.09 56.45 53.08 56.52 54.31"/>
      <path class="cls-1" d="M42.09,55.65h-3.12s-.57,1.43-.57,1.43h-1.61s2.94-6.63,2.94-6.63l1.59-.03,2.95,6.65-1.65.03-.55-1.45ZM41.57,54.42l-1.04-2.37-1.04,2.41,2.08-.04Z"/>
      <path class="cls-1" d="M74.81,55.67l-3.08-.04-.62,1.45-1.59-.05,2.94-6.63h1.56s2.97,6.68,2.97,6.68h-1.63s-.57-1.42-.57-1.42ZM74.25,54.46l-1.01-2.47-1.04,2.47h2.04Z"/>
      <path class="cls-1" d="M168.23,56.8c-1.52.73-3.2.41-4.53-.35l.54-1.15c1.69.95,3.55.75,3.49-.05-.01-.19-.33-.54-.52-.59l-2.02-.57c-.77-.22-1.32-.94-1.34-1.6-.02-.84.42-1.6,1.25-1.91,1.25-.46,2.54-.38,3.84.27l-.45,1.16c-1.58-.69-3.1-.5-3.12.28,0,.17.31.52.49.57l1.98.55c.78.22,1.37.8,1.45,1.48s-.28,1.55-1.05,1.92Z"/>
      <path class="cls-1" d="M96.85,55.39c-.27,1.95-3.28,2.35-5.55,1.09l.54-1.19c1.74,1.03,3.6.67,3.48-.06-.04-.22-.42-.54-.64-.61l-2.59-.86c-.59-.2-.74-1.23-.61-1.86.35-1.67,2.96-2.07,5.08-1.08l-.47,1.19c-1.6-.72-3.17-.53-3.12.29.06,1.11,4.24.5,3.88,3.08Z"/>
      <path class="cls-1" d="M152.96,55.07l1.04.97c-.73.76-1.69,1.17-2.81,1.16-1.4-.02-2.6-.71-3.17-1.81-.62-1.2-.57-2.76.37-3.85,1.42-1.63,4.03-1.73,5.59-.11l-1,1c-.9-1.04-2.24-1.05-3.11-.27s-.94,2.24-.09,3.08c.8.79,2.16.95,3.18-.17Z"/>
      <path class="cls-1" d="M127.35,55.1l1.06.86c-.7.87-1.6,1.19-2.68,1.23-2.05.08-3.65-1.42-3.71-3.36-.06-1.94,1.44-3.52,3.51-3.55,1.1-.02,2.03.29,2.85,1.16l-.98.93c-.93-.95-2.27-1.01-3.15-.2-.8.73-.88,2.22-.09,3.04s2.17.98,3.18-.12Z"/>
      <polygon class="cls-1" points="83.22 55.79 83.2 57.09 78.35 57.1 78.35 50.4 79.92 50.44 79.92 55.8 83.22 55.79"/>
      <polygon class="cls-1" points="113.85 55.8 113.85 57.09 108.98 57.1 108.98 50.4 110.54 50.44 110.55 55.79 113.85 55.8"/>
      <polygon class="cls-1" points="132.97 57.02 131.41 57.1 131.4 51.67 129.27 51.67 129.3 50.39 135.07 50.39 135.08 51.65 132.96 51.67 132.97 57.02"/>
      <polygon class="cls-1" points="48.25 57.02 46.69 57.1 46.68 51.67 44.59 51.65 44.59 50.39 50.35 50.39 50.36 51.65 48.24 51.67 48.25 57.02"/>
      <polygon class="cls-1" points="145.81 57.07 144.24 57.09 144.24 50.4 145.81 50.39 145.81 57.07"/>
      <polygon class="cls-1" points="68.17 57.01 66.6 57.1 66.59 50.4 68.15 50.39 68.17 57.01"/>
      <path class="cls-1" d="M33.1,10.2h-9.46s-.19,3.91-.19,3.91l-2.31-2.14c-1.35-1.25-3.19-1.69-4.99-1.96-5.28-.79-10.27,1.46-13.17,5.95-4.18,6.46-4.09,15.62,1.08,21.45,3.7,4.17,9.51,5.73,14.73,3.68,1.92-.75,3.15-2.13,4.55-3.75l.18,4.29,9.58-.06V10.2ZM23.41,27.59c-.23,2.07-1.18,3.69-3,4.91-2.64,1.77-6.15,1.68-8.38-.71-2.79-3-3.16-7.87-.56-11.14,1.87-2.35,5.35-2.91,7.99-1.86,1.48.59,2.42,1.76,3.11,3.09.93,1.79,1.05,3.75.83,5.72Z"/>
    </g>
  </g>
</svg>