<?xml version="1.0" encoding="UTF-8"?>
<svg id="Capa_2" data-name="Capa 2" xmlns="http://www.w3.org/2000/svg" viewBox="0 0 183.67 85.75">
  <defs>
    <style>
      .cls-1 {
        fill: #45266d;
      }

      .cls-2 {
        fill: #882c86;
      }

      .cls-3 {
        fill: #e9556c;
      }
    </style>
  </defs>
  <g id="Capa_1-2" data-name="Capa 1">
    <g>
      <path class="cls-3" d="M84.33,12.34c-3.14-1.94-7.58-2.19-11.1-2.19-4.23,0-9.03.39-12.53,1.03l-.13.02v38.8h7.13v-15.09c1.37.08,3.83.19,5.98.19,7.93,0,15.27-1.52,15.27-12.59,0-4.92-1.51-8.25-4.63-10.17M81.88,22.51c0,5.83-3.31,7-8.65,7-1.88,0-3.72-.02-5.53-.23v-13.2c1.81-.23,3.89-.37,5.73-.37,6.24,0,8.45,1.78,8.45,6.8"/>
      <path class="cls-3" d="M98.31,8.12c-3,0-4.02,1.02-4.02,4.03s.98,4.03,4.02,4.03,4.03-.98,4.03-4.03-1.02-4.03-4.03-4.03"/>
      <path class="cls-3" d="M95.02,23.33v26.67h6.61v-30.23h-3.05c-1.96,0-3.56,1.59-3.56,3.56"/>
      <path class="cls-3" d="M120.4,19.37c-4.54,0-8.85.96-11.83,2.64l-.07.04v.08c-.18,1.89-.26,3.59-.26,5.51v22.36h6.67v-20.38c0-1.05.03-2.57.18-3.92,1.17-.58,3.24-.95,5.32-.95.9,0,1.64.04,2.27.12l.16.02.54-5.38h-.15c-.83-.09-1.74-.13-2.8-.13"/>
      <path class="cls-3" d="M153.58,19.77h-7.67l-11.05,12.98V8.21h-3.1c-1.96,0-3.56,1.59-3.56,3.56v38.23h6.66v-14.42l11.18,14.37.05.06h8.14l-13.12-16.12,12.47-14.1Z"/>
      <path class="cls-3" d="M170.03,19.37c-4.39,0-8.3.55-11.55,1.09l-.14.02.55,4.97.15-.02c4.02-.51,7.41-.76,10.38-.76,4.25,0,6.17,1.83,6.21,5.93h-.22c-3.63.16-7.06.3-10.25.79-5.58.84-8.18,3.87-8.18,9.52,0,6.55,3.52,9.48,11.43,9.48,5.97,0,10.25-.84,13.45-2.64l.07-.04v-.08c.18-1.89.26-3.59.26-5.51v-13.19c0-4.11-1.26-9.58-12.16-9.58M174.94,35.11l.7-.03v5.35c0,1.05-.03,2.57-.17,3.91-1.94.87-4.41.97-6.11.97-3.56,0-5.76-.75-5.76-4.5,0-3.46,1.07-4.32,4.1-5.03,2.16-.51,4.86-.6,7.24-.69"/>
      <path class="cls-1" d="M9.91,35.32s-13.44,2.8-9.02,13.23c4.42,10.43,32.53,11.75,41.23,7.11,8.7-4.64,5.06-18.19-2.38-20.55-3.58-1.13-8.46-1.69-13.6-1.69-5.55,0-11.4.64-16.23,1.9"/>
      <path class="cls-2" d="M6.11,19.57c-.93,6.18,6.65,13.84,19.55,13.37,12.5-.45,30.92-15.59-9.49-18.46-.35-.02-1.16-.11-2.18-.11-2.81,0-7.19.67-7.88,5.2"/>
      <path class="cls-3" d="M13.82,2.21c-1.31,2.23,4.55,9.81,12.38,12.75,1.46.45,4.27,1.59,6.36-1.61,2.09-3.2-.18-9.38-7.48-12.39-1.53-.63-3.43-.96-5.24-.96-2.69,0-5.19.72-6.01,2.21"/>
      <polygon class="cls-3" points="9.56 80.95 7.26 80.95 3.9 73.99 3.44 80.95 .76 80.95 1.49 67.9 4.04 67.9 8.41 77.54 12.77 67.9 15.34 67.9 16.07 80.95 13.36 80.95 12.9 73.99 9.56 80.95"/>
      <path class="cls-3" d="M27.46,75.46c0,.84-.04,1.09-.17,1.86h-6.43c.35.98,1.25,1.59,2.61,1.59.75,0,1.71-.15,3.26-.48l.36,2.09c-1.44.46-2.65.71-3.7.71-3.53,0-5.33-2.15-5.33-4.89,0-2.97,2.09-4.89,4.85-4.89,2.59,0,4.51,1.61,4.55,4.01M20.75,75.43h4.34c-.06-1.13-.92-1.9-2.11-1.9s-1.98.75-2.23,1.9"/>
      <path class="cls-3" d="M31.88,81.01c0,2.96-.73,4.66-4.43,4.74l-.21-2.3c1.73.06,2-.69,2-2.11v-9.57h2.65v9.25ZM32.28,68.82c0,.96-.79,1.67-1.73,1.67s-1.73-.71-1.73-1.67.79-1.71,1.73-1.71,1.73.73,1.73,1.71"/>
      <path class="cls-3" d="M44.37,76.29c0,2.99-2.07,5.01-5.16,5.01s-5.2-2.01-5.2-5.01,2.09-4.93,5.2-4.93,5.16,1.98,5.16,4.93M41.74,76.29c0-1.53-1.02-2.55-2.53-2.55s-2.55,1.02-2.55,2.55,1.04,2.63,2.55,2.63,2.53-1.05,2.53-2.63"/>
      <path class="cls-3" d="M52.29,74.08c-1.11,0-2.21.02-3.26.12v6.75h-2.67v-8.88c1.69-.31,4.14-.59,5.93-.59v2.61Z"/>
      <path class="cls-3" d="M62.96,71.91v9.04h-2.67v-.65c-.75.58-1.65.94-2.76.94-2.55,0-4.41-1.9-4.41-4.93.06-2.92,1.69-4.84,4.6-4.84,1.96,0,3.03.15,5.24.44M55.72,76.38c0,1.53.88,2.63,2.24,2.63.77,0,1.53-.25,2.32-.9v-4.32c-.61-.06-1.3-.12-2.15-.12-1.78,0-2.42,1.17-2.42,2.71"/>
      <path class="cls-3" d="M77.06,80.93c-.92.21-1.4.31-2.63.31-2.24,0-3.53-1.32-3.53-3.72v-3.38h-1.9v-2.38h1.9v-3.28h2.67v3.28h2.9v2.38h-2.9v3.11c0,1.02.4,1.61,1.44,1.61.56,0,1.06-.04,1.8-.13l.25,2.21Z"/>
      <path class="cls-3" d="M87.94,80.76c-1.17.21-3.68.46-5.47.46-2.26,0-3.86-.96-3.86-3.51v-5.95h2.67v5.31c0,1.32.61,1.9,1.82,1.9.67,0,1.4-.06,2.17-.13v-7.08h2.67v9Z"/>
      <path class="cls-3" d="M90.47,78.3c1.55.59,2.84.81,3.72.81s1.57-.21,1.57-.71c0-.73-1.29-.83-2.46-1.06-2.11-.4-3.17-1.17-3.17-2.76,0-1.94,1.55-3.07,4.03-3.07,1.38,0,2.95.35,3.86.69l-.6,2.01c-1.27-.36-2.55-.63-3.36-.63s-1.32.31-1.32.79c0,.71.98.77,2.32,1.04,2.11.42,3.19,1.02,3.19,2.74,0,2.13-1.71,3.09-4.16,3.09-1.07,0-2.61-.19-4.16-.81l.54-2.13Z"/>
      <path class="cls-3" d="M113.7,75.46c0,.84-.04,1.09-.17,1.86h-6.43c.35.98,1.25,1.59,2.61,1.59.75,0,1.71-.15,3.26-.48l.36,2.09c-1.44.46-2.65.71-3.7.71-3.53,0-5.33-2.15-5.33-4.89,0-2.97,2.09-4.89,4.85-4.89,2.59,0,4.51,1.61,4.55,4.01M106.99,75.43h4.34c-.06-1.13-.92-1.9-2.11-1.9s-1.98.75-2.23,1.9"/>
      <path class="cls-3" d="M115.66,78.3c1.55.59,2.84.81,3.72.81s1.57-.21,1.57-.71c0-.73-1.29-.83-2.46-1.06-2.11-.4-3.17-1.17-3.17-2.76,0-1.94,1.55-3.07,4.03-3.07,1.38,0,2.95.35,3.86.69l-.6,2.01c-1.27-.36-2.55-.63-3.36-.63s-1.32.31-1.32.79c0,.71.98.77,2.32,1.04,2.11.42,3.19,1.02,3.19,2.74,0,2.13-1.71,3.09-4.16,3.09-1.07,0-2.61-.19-4.16-.81l.54-2.13Z"/>
      <path class="cls-3" d="M135.27,76.31c0,2.86-1.86,4.76-4.43,4.76-.88,0-1.63,0-2.74-.11v4.43h-2.67v-13.47c1.34-.17,3.28-.44,5.24-.44,2.94,0,4.53,1.92,4.6,4.84M132.67,76.38c0-1.53-.63-2.71-2.44-2.71-.84,0-1.53.06-2.15.12v4.89c1.11.17,1.73.15,2.32.15,1.36,0,2.26-1.09,2.26-2.46"/>
      <path class="cls-3" d="M146.68,71.91v9.04h-2.67v-.65c-.75.58-1.65.94-2.76.94-2.55,0-4.41-1.9-4.41-4.93.06-2.92,1.69-4.84,4.6-4.84,1.96,0,3.03.15,5.24.44M139.45,76.38c0,1.53.88,2.63,2.24,2.63.77,0,1.53-.25,2.32-.9v-4.32c-.61-.06-1.31-.12-2.15-.12-1.78,0-2.42,1.17-2.42,2.71"/>
      <path class="cls-3" d="M156.73,73.99c-1.07-.23-1.94-.38-2.59-.38-1.82,0-2.92,1.11-2.92,2.71s1.13,2.65,2.76,2.65c.63,0,1.71-.15,2.76-.4l.35,2.11c-1.04.34-2.26.58-3.3.58-3.03,0-5.2-1.94-5.2-4.95s2.15-4.91,5.3-4.91c.9,0,2.17.17,3.2.52l-.36,2.09Z"/>
      <path class="cls-3" d="M158.63,68.82c0-.98.75-1.71,1.71-1.71s1.71.73,1.71,1.71-.77,1.67-1.71,1.67-1.71-.71-1.71-1.67M161.68,80.95h-2.67v-9.19h2.67v9.19Z"/>
      <path class="cls-3" d="M173.9,76.29c0,2.99-2.07,5.01-5.16,5.01s-5.2-2.01-5.2-5.01,2.09-4.93,5.2-4.93,5.16,1.98,5.16,4.93M171.28,76.29c0-1.53-1.02-2.55-2.53-2.55s-2.55,1.02-2.55,2.55,1.04,2.63,2.55,2.63,2.53-1.05,2.53-2.63"/>
      <path class="cls-3" d="M175.88,78.3c1.55.59,2.84.81,3.72.81s1.57-.21,1.57-.71c0-.73-1.29-.83-2.46-1.06-2.11-.4-3.17-1.17-3.17-2.76,0-1.94,1.55-3.07,4.03-3.07,1.38,0,2.95.35,3.86.69l-.59,2.01c-1.27-.36-2.55-.63-3.36-.63s-1.32.31-1.32.79c0,.71.98.77,2.32,1.04,2.11.42,3.19,1.02,3.19,2.74,0,2.13-1.71,3.09-4.16,3.09-1.07,0-2.61-.19-4.16-.81l.54-2.13Z"/>
    </g>
  </g>
</svg>