<?xml version="1.0" encoding="UTF-8"?>
<svg id="Capa_2" data-name="Capa 2" xmlns="http://www.w3.org/2000/svg" viewBox="0 0 187.44 53.87">
  <defs>
    <style>
      .cls-1 {
        fill: #e3472a;
      }

      .cls-2 {
        fill: #545350;
      }

      .cls-3 {
        fill: #54534e;
      }

      .cls-4 {
        fill: #54524d;
      }

      .cls-5 {
        fill: #e24628;
      }

      .cls-6 {
        fill: #555450;
      }

      .cls-7 {
        fill: #585652;
      }
    </style>
  </defs>
  <g id="Capa_1-2" data-name="Capa 1">
    <g>
      <path class="cls-5" d="M25.49,11.13c-3.24-2.12-7.21-3.31-11.01-1.94-7.52,2.72-7.46,14.58-.85,18.27,6.5,3.62,17.42-2.03,23.06-5.63,2.38-1.52,4.7-3.21,6.79-5.1v-8.22h-4.5s-.21-.19-.21-.21V2.21s.19-.21.21-.21h12.87s.24.21.27.28l.07,23.16c.57,4.6,6.71,3.62,9.52,1.75,1.37-.91,3.36-3.39,3.36-5.08v-13.62h-4.5s-.21-.19-.21-.21V2.21s.19-.21.21-.21h12.87c.11,0,.41.44.35.62.27,7.81-.38,15.87-.01,23.65.12,2.55.68,5.21.83,7.74.03.53-.02,1.06,0,1.59h-8.37c-.38,0-.84-3.39-.97-3.87-1.2.99-2.35,2.02-3.71,2.79-3.52,1.97-8.74,2.87-12.55,1.29-3.93-1.63-5.32-5.64-5.54-9.6-6.19,5.39-14.06,9.44-22.35,10.23C9.81,37.5.51,31.19.02,19.36-.74,1.14,21.94-5.99,32.14,8.57v7.19s-.19.21-.21.21h-6.23s-.21-.19-.21-.21v-4.63Z"/>
      <path class="cls-5" d="M92.28,2c.39.13.71,3.32.97,3.31,1.26-1.34,2.85-2.35,4.54-3.06,4.35-1.82,10.85-2.11,14.21,1.76.56.64.81,1.26,1.22,1.96.05.08,0,.27.24.18.18-.08.85-.88,1.11-1.1,3.94-3.34,9.17-5.04,14.29-3.64,3.71,1.02,6.67,4.97,6.67,8.82v25.16s-.19.21-.21.21h-8.17s-.21-.19-.21-.21V12.3c0-.75-.77-2.16-1.39-2.62-3.16-2.3-9.39.1-10.96,3.55-.29,7.29.05,14.65-.17,21.95-.03.1-.22.41-.28.41h-8.17s-.21-.19-.21-.21V12.16c0-1.29-1.29-2.67-2.49-3.04-3.74-1.15-8.8,1.02-9.97,4.83-.39,6.78.54,14.18.01,20.89-.02.27-.08.5-.15.75h-8.44c-.06-.25-.12-.49-.15-.75-.62-7.82.36-16.37-.13-24.34-.02-.34.12-2-.21-2h-4.15s-.21-.19-.21-.21V2.21s.19-.21.21-.21h12.18Z"/>
      <path class="cls-4" d="M73.66,49.69c-.11-.1-.61.3-.42-.83.41.07,1.19-.13,1.52.07.54.33,1.56,2.74,2.22,3.25v-3.32c.2-.02.97-.04.97.21v4.63c-.29-.03-.62.05-.9,0-.65-.13-1.75-2.74-2.42-3.18v3.18h-.97c-.11-.52.15-3.87,0-4.01Z"/>
      <path class="cls-3" d="M83.07,48.86v.97s-1.66,0-1.66,0v.97c2.32-.36,2.32,1.32,0,.97v1.11s1.8,0,1.8,0v.83h-2.91v-4.01s-.44.06-.54-.22c-.07-.19.03-.61.2-.61h3.11Z"/>
      <path class="cls-3" d="M115.53,48.86c.24.07.29.64.15.84-.19.27-1.37.07-1.74.13v.97c.94.05,1.89-.39,1.66.97h-1.66s0,1.11,0,1.11h1.8s0,.83,0,.83h-2.77v-4.01c-.78.12-.53-.18-.55-.83.79.15,2.45-.2,3.11,0Z"/>
      <path class="cls-4" d="M110.76,50.8c-1.28.16-.58-.23-.96-.77-.99-1.43-3.58,1.14-1.84,2.57,1.21,1,1.92-.62,2.8.48-2.05,1.92-4.98.04-4.18-2.66.64-2.17,4.5-2.22,4.18.38Z"/>
      <path class="cls-3" d="M71.31,48.86v.97s-1.8,0-1.8,0v.97c.56.11,1.81-.35,1.81.48s-1.25.37-1.81.48v1.11h1.94v.83h-2.7c-.32,0-.07-.7-.06-.89.02-.78.12-2.36,0-3.04-.03-.17-.49,0-.64-.21s-.02-.7.15-.7h3.11Z"/>
      <path class="cls-4" d="M120.86,50.38c-1.05.17-.67-.17-.97-.48-.52-.55-1.71.06-1.07.72.59.61,2.37.32,2.03,2.17-.28,1.56-3.14,1.09-3.32.42-.05-.19.53-.58.65-.6s1.79.9,1.7-.24c-.06-.83-2.48-.65-2.18-2.45.28-1.68,3.5-1.41,3.15.45Z"/>
      <path class="cls-4" d="M87.52,50.37c-.07-.05-.06-.38-.19-.5-.36-.36-1.29-.21-1.22.45s2.21.55,2.23,2.07-2.04,1.85-3.04,1.1c-.43-.32-.28-.61.18-.79s.71.37,1.24.29c.22-.03.65-.32.63-.57-.08-.86-2.04-.63-2.2-1.96-.27-2.33,3.31-1.88,3.19-.42-.03.37-.61.47-.82.33Z"/>
      <path class="cls-2" d="M66.19,53.7h-.97v-4.01c-.78.12-.54-.18-.55-.83.28.02,1.52-.11,1.52.21v4.63Z"/>
      <path class="cls-6" d="M104.53,53.7h-.97v-4.01c-.78.12-.54-.18-.55-.83.28.02,1.52-.11,1.52.21v4.63Z"/>
      <path class="cls-7" d="M104.94,47.76c-.51,0-1.41,1.03-1.8.77-.05-.04-.26-.4-.26-.43,0-.09,1.51-1.01,1.6-1.02.27-.04.47.46.46.68Z"/>
      <path class="cls-5" d="M177.47,18.72c0,9.81-8.07,17.76-18.02,17.76s-18.02-7.95-18.02-17.76S149.5.96,159.45.96s18.02,7.95,18.02,17.76ZM150.07,17.97c-.81,12.46,17.04,14.74,18.82,2.14.06-.41.13-.83.14-1.24,0-.14,0-.28,0-.41-.23-12.55-18.16-12.81-18.96-.48Z"/>
      <path class="cls-4" d="M61.69,48.86c1.21.2,1.64,1.6.62,2.28,1.03.36.83,2.56-.07,2.56h-2.56v-4.01c-.84.32-.58-.83-.35-.83.68,0,1.75-.1,2.35,0ZM60.65,51.77v1.11c.32-.05,1.02.1,1.25-.06s.11-.94-.03-1.03c-.18-.12-.94.04-1.23-.02ZM60.65,49.83v1.11c.3,0,.86.04,1.07-.17.64-.63-.42-1.16-1.07-.93Z"/>
      <path class="cls-4" d="M93.94,48.86c.46.08,1.18.58,1.29,1.07.27,1.2-.74,1.48-.76,1.77-.02.23,1.09,1.87.93,2.01-.25-.05-.77.09-.95-.02-.09-.06-.79-1.84-.87-1.89-.16-.1-.59.02-.81-.02v1.94h-.97v-4.01c-.84.32-.58-.83-.35-.83.71,0,1.85-.11,2.49,0ZM92.76,49.83v1.11c.36-.02,1.09.08,1.35-.17.76-.76-.72-1.15-1.35-.93Z"/>
      <path class="cls-4" d="M99.66,48.89c.22.14,1.63,4.22,1.82,4.81-1.37.19-.79-.22-1.21-.93-.28-.47-1.87-.4-1.98-.23-.44.64.03,1.45-1.37,1.16.05-.56,1.67-3.85,1.52-4.01-.03-.03-.46.04-.55-.23-.03-.1.09-.55.15-.59.08-.05,1.53-.05,1.62,0ZM99.13,50.11l-.42,1.52h1.11c-.29-.46-.23-1.21-.69-1.52Z"/>
      <path class="cls-1" d="M187.44,2.7v2.21c-.77,1.1-1.23,2.02-2.63,2.42-4.31,1.23-6.77-4.71-2.95-6.82,2.3-1.27,4.59-.05,5.58,2.18ZM185.09,6.5c3.06-1.46,1.72-6.25-1.7-5.85-4.7.56-2.7,7.94,1.7,5.85ZM182.59,6.29h1.25v-2.97c0-.1.37-.52.49-.62.4-.09.12.47.2.55.04.04.78-.03.97,0v-1.8c-.64-.23-1.22.46-1.6.55s-.08-.37-.28-.42c-.41-.11-1.25.1-1.72,0-.26,1.21.56.85.69.97s-.1,3.25,0,3.73Z"/>
    </g>
  </g>
</svg>