<?xml version="1.0" encoding="UTF-8"?>
<svg id="Capa_2" data-name="Capa 2" xmlns="http://www.w3.org/2000/svg" viewBox="0 0 200.34 108.26">
  <defs>
    <style>
      .cls-1 {
        fill: #e0081a;
      }

      .cls-2 {
        fill: #1e1e1b;
      }

      .cls-3 {
        fill: #ef8f09;
      }
    </style>
  </defs>
  <g id="Capa_1-2" data-name="Capa 1">
    <g>
      <path class="cls-2" d="M158.18,60.49v1.04c-.51-.42-1.03-.64-1.57-.64-.6,0-1.1.21-1.51.64-.41.43-.62.95-.62,1.56s.21,1.12.62,1.54c.41.42.91.63,1.51.63.31,0,.57-.05.79-.15.12-.05.24-.12.37-.2.13-.09.27-.19.41-.31v1.06c-.5.28-1.03.43-1.58.43-.83,0-1.54-.29-2.12-.87-.58-.58-.88-1.29-.88-2.11,0-.74.24-1.4.73-1.98.6-.71,1.38-1.06,2.34-1.06.52,0,1.02.14,1.51.42"/>
      <path class="cls-2" d="M158.96,63.06c0-.82.3-1.52.9-2.1.6-.59,1.31-.88,2.15-.88s1.54.3,2.13.89c.59.59.89,1.3.89,2.13s-.3,1.54-.89,2.12c-.6.58-1.32.88-2.17.88-.75,0-1.42-.26-2.02-.78-.66-.57-.98-1.33-.98-2.26M159.85,63.07c0,.64.22,1.17.65,1.58.43.41.92.62,1.48.62.61,0,1.12-.21,1.54-.63.42-.43.63-.94.63-1.56s-.21-1.14-.62-1.56c-.41-.42-.92-.63-1.53-.63s-1.11.21-1.53.63c-.42.42-.62.93-.62,1.54Z"/>
      <polygon class="cls-2" points="167.01 60.18 167.01 65.16 168.71 65.16 168.71 65.98 166.13 65.98 166.13 60.18 167.01 60.18"/>
      <path class="cls-2" d="M169.51,65.56c0-.14.05-.26.15-.36.1-.1.23-.15.37-.15s.27.05.37.15c.1.1.15.23.15.37s-.05.27-.15.37c-.1.1-.22.15-.37.15s-.27-.05-.37-.15c-.1-.1-.15-.23-.15-.38"/>
      <path class="cls-2" d="M174.25,59.98l.64.48-1.39,1.89c.07-.01.14-.02.19-.02.05,0,.09,0,.12,0,.47,0,.88.18,1.22.54.34.35.51.78.51,1.29,0,.53-.19.99-.57,1.37-.38.38-.83.57-1.36.57s-.99-.19-1.38-.56c-.39-.37-.58-.82-.58-1.33,0-.46.19-.94.57-1.46l2.03-2.76ZM174.7,64.2c0-.31-.11-.57-.32-.78-.22-.22-.48-.32-.78-.32s-.56.11-.78.32c-.21.21-.32.47-.32.77s.11.56.32.77c.21.21.47.32.78.32s.56-.11.77-.32c.22-.22.32-.47.32-.76Z"/>
      <path class="cls-2" d="M176.3,63.04c0-.93.22-1.66.65-2.21.39-.5.85-.75,1.4-.75s1.02.25,1.4.75c.43.55.65,1.3.65,2.25s-.22,1.7-.65,2.25c-.39.5-.85.75-1.4.75s-1.02-.25-1.41-.75c-.43-.55-.65-1.31-.65-2.29M177.17,63.05c0,.64.11,1.18.33,1.61.22.42.51.63.85.63s.63-.21.85-.63c.23-.42.34-.94.34-1.57s-.11-1.16-.34-1.58c-.23-.42-.51-.62-.85-.62s-.62.21-.85.62c-.23.41-.34.93-.34,1.55Z"/>
      <path class="cls-2" d="M184.39,64.36h.62v.8h-.62v.82h-.88v-.82h-2.85l3.72-5.41v4.62ZM183.51,64.36v-1.94l-1.34,1.94h1.34Z"/>
      <path class="cls-3" d="M80.96,54.16c-1.57.74-3.28,1.12-5.07,1.12-4.19,0-7.89-2.74-11.33-8.36l-1.25-2.05-10.04,5.36,1.41,2.3c2.92,4.75,6.21,8.22,9.78,10.3,3.6,2.1,7.65,3.16,12.03,3.16,1.62,0,3.18-.14,4.67-.42h-.86l14.03-27.25c-.15-.23-.31-.45-.47-.68-2.29-3.17-6.3-6.61-12.25-10.53-6.08-4-7.7-5.21-8.12-5.57-1.31-1.17-2.2-2.21-2.64-3.1-.41-.84-.62-1.67-.62-2.53,0-1.35.5-2.37,1.61-3.31,1.2-1.03,2.77-1.52,4.8-1.52,1.62,0,3.08.35,4.44,1.08.99.53,2.75,1.85,5.52,5.12l1.47,1.74,9.51-6.42-1.77-2.15c-3.24-3.94-6.27-6.59-9.28-8.12-3.03-1.53-6.31-2.31-9.77-2.31-3.27,0-6.34.69-9.13,2.05-2.87,1.39-5.14,3.34-6.75,5.8-1.63,2.49-2.46,5.28-2.46,8.29,0,3.78,1.36,7.31,4.02,10.47,1.51,1.85,5,4.61,10.69,8.43,5.16,3.46,8.72,6.41,10.58,8.77,1.12,1.42,1.66,2.77,1.66,4.14,0,1.21-.35,2.34-1.08,3.45-.76,1.15-1.85,2.05-3.35,2.75"/>
      <polygon class="cls-1" points="81.18 65.56 96.27 65.56 113.69 31.41 131.12 65.56 147.07 65.56 138.13 48.02 138.13 16.42 125.45 16.42 125.45 23.11 113.88 .39 94.35 38.32 80.32 65.56 81.18 65.56"/>
      <path class="cls-2" d="M7.3,83.53c-.27-.34-.63-.66-1.05-.94-.43-.28-1.02-.59-1.79-.92-.77-.33-1.31-.63-1.63-.91-.32-.28-.48-.6-.48-.96,0-.42.18-.76.55-1.02.37-.26.84-.4,1.43-.4.54,0,.95.09,1.23.27.28.18.6.45.95.81l1.32-1.06c-.44-.58-1-1-1.67-1.28-.67-.28-1.33-.42-1.98-.42-.98,0-1.82.3-2.5.91-.69.6-1.03,1.33-1.03,2.19,0,.36.06.69.18,1,.12.31.32.63.58.94.26.32.57.59.94.82.36.23.88.48,1.54.75.67.28,1.16.52,1.46.73.3.21.56.48.77.81.21.33.31.65.31.98,0,.54-.2.99-.59,1.35-.39.35-.89.53-1.48.53-1.23,0-2.14-.67-2.73-2.02l-1.63.46c.41,1.09,1,1.91,1.77,2.46.77.55,1.65.82,2.65.82s1.9-.35,2.62-1.05c.72-.7,1.08-1.55,1.08-2.54,0-.43-.07-.83-.2-1.21-.13-.38-.34-.74-.61-1.09"/>
      <path class="cls-2" d="M9.96,89.01h1.7l1.37-3.06h5.07l1.39,3.06h1.71l-5.64-12.4-5.59,12.4ZM13.64,84.59l1.91-4.26,1.93,4.26h-3.84Z"/>
      <polygon class="cls-2" points="32.11 77.08 30.37 77.08 26.59 85.54 22.84 77.08 21.12 77.08 26.57 89.41 32.11 77.08"/>
      <path class="cls-2" d="M40.18,89.41c1.85,0,3.41-.62,4.68-1.87,1.27-1.25,1.91-2.77,1.91-4.58,0-1.71-.65-3.18-1.93-4.42-1.29-1.24-2.82-1.86-4.6-1.86s-3.39.61-4.69,1.84c-1.3,1.23-1.95,2.71-1.95,4.43s.64,3.31,1.92,4.56c1.28,1.25,2.84,1.88,4.66,1.88M36.72,79.74c.94-.92,2.07-1.38,3.39-1.38,1.39,0,2.56.45,3.51,1.35.95.9,1.43,2.01,1.43,3.33s-.47,2.36-1.4,3.28c-.93.92-2.05,1.38-3.33,1.38-1.4,0-2.58-.45-3.55-1.35-.96-.9-1.45-2-1.45-3.31s.47-2.39,1.41-3.31Z"/>
      <rect class="cls-2" x="49.83" y="77.06" width="1.61" height="11.94"/>
      <path class="cls-2" d="M56.96,85.95h5.07l1.39,3.06h1.71l-5.64-12.4-5.59,12.4h1.7l1.37-3.06ZM59.48,80.33l1.93,4.26h-3.84l1.91-4.26Z"/>
      <path class="cls-2" d="M83.94,89.01l-5.64-12.4-5.59,12.4h1.7l1.37-3.06h5.07l1.39,3.06h1.71ZM76.38,84.59l1.91-4.26,1.93,4.26h-3.84Z"/>
      <polygon class="cls-2" points="92.13 87.4 88.24 87.4 88.24 77.06 86.63 77.06 86.63 89.01 92.13 89.01 92.13 87.4"/>
      <polygon class="cls-2" points="100.74 77.06 93.44 77.06 93.44 78.69 96.28 78.69 96.28 89.01 97.89 89.01 97.89 78.69 100.74 78.69 100.74 77.06"/>
      <path class="cls-2" d="M109.3,76.69c-1.82,0-3.39.62-4.69,1.85-1.3,1.23-1.95,2.71-1.95,4.43s.64,3.31,1.92,4.56c1.28,1.25,2.83,1.88,4.66,1.88s3.41-.62,4.68-1.87c1.27-1.25,1.91-2.77,1.91-4.58,0-1.71-.64-3.18-1.93-4.42-1.29-1.24-2.82-1.86-4.6-1.86M112.7,86.32c-.93.92-2.04,1.38-3.33,1.38-1.4,0-2.58-.45-3.55-1.35-.97-.9-1.45-2-1.45-3.31s.47-2.39,1.41-3.31c.94-.92,2.07-1.38,3.39-1.38,1.39,0,2.56.45,3.51,1.35.95.9,1.42,2.01,1.42,3.33s-.47,2.36-1.4,3.28Z"/>
      <polygon class="cls-2" points="119.15 77.06 119.15 89.01 124.66 89.01 124.66 87.4 120.77 87.4 120.77 77.06 119.15 77.06"/>
      <path class="cls-2" d="M131.72,76.61l-5.59,12.4h1.7l1.37-3.06h5.07l1.39,3.06h1.71l-5.64-12.4ZM129.81,84.59l1.91-4.26,1.93,4.26h-3.84Z"/>
      <path class="cls-2" d="M138.73,83.02c0,1.67.61,3.15,1.84,4.44,1.23,1.3,2.87,1.94,4.94,1.94.9,0,1.68-.1,2.34-.3.65-.2,1.27-.53,1.84-1,.57-.47,1.03-.99,1.37-1.58.34-.59.57-1.12.68-1.61.11-.49.16-1.14.16-1.96h-5.09v1.63h3.23c-.61,2.07-2.11,3.1-4.49,3.1-1.59,0-2.83-.47-3.74-1.42-.9-.95-1.35-2.01-1.35-3.19,0-1.35.47-2.47,1.4-3.37.93-.9,2.1-1.35,3.5-1.35,1.6,0,3.01.6,4.23,1.79l1.21-1.19c-.92-.88-1.82-1.48-2.69-1.81-.88-.32-1.85-.48-2.91-.48-1.79,0-3.31.62-4.57,1.85-1.26,1.23-1.88,2.73-1.88,4.48"/>
      <path class="cls-2" d="M159.64,89.41c1.39,0,2.5-.44,3.33-1.31.83-.87,1.25-2.04,1.25-3.51v-7.51h-1.63v7.62c0,.99-.26,1.76-.79,2.31-.53.55-1.27.82-2.22.82s-1.7-.3-2.22-.89c-.52-.59-.78-1.43-.78-2.52v-7.34h-1.63v7.07c0,1.73.43,3.04,1.28,3.93.85.89,1.99,1.33,3.41,1.33"/>
      <rect class="cls-2" x="167.54" y="77.06" width="1.61" height="11.94"/>
      <path class="cls-2" d="M179.15,82.6c.52-.61.79-1.32.79-2.12,0-1-.4-1.82-1.21-2.46-.81-.64-1.86-.96-3.14-.96h-2.59v11.94h1.63v-4.91h.37l3.31,4.91h1.87l-3.47-5.11c1.11-.25,1.93-.68,2.45-1.29M174.62,82.67v-4.16c.9,0,1.59.06,2.06.17.47.12.84.33,1.13.66.28.32.42.73.42,1.24,0,1.44-1.2,2.14-3.61,2.09Z"/>
      <path class="cls-2" d="M189.71,82.6c.52-.61.78-1.32.78-2.12,0-1-.4-1.82-1.21-2.46-.81-.64-1.86-.96-3.15-.96h-2.59v11.94h1.63v-4.91h.36l3.31,4.91h1.87l-3.47-5.11c1.11-.25,1.93-.68,2.45-1.29M185.18,82.67v-4.16c.91,0,1.59.06,2.06.17.47.12.84.33,1.12.66.28.32.42.73.42,1.24,0,1.44-1.2,2.14-3.61,2.09Z"/>
      <polygon class="cls-2" points="200.34 78.69 200.34 77.06 193.72 77.06 193.72 89.01 200.34 89.01 200.34 87.4 195.34 87.4 195.34 83.29 200.34 83.29 200.34 81.68 195.34 81.68 195.34 78.69 200.34 78.69"/>
      <path class="cls-2" d="M33.62,106.02s.09.03.16.04c.07,0,.15.01.25.01s.19,0,.26-.01c.07-.01.12-.02.16-.04.04-.01.07-.03.09-.06.02-.03.03-.05.03-.08v-4.76c0-.3,0-.6,0-.91,0-.3,0-.6-.02-.9h.01c.11.24.23.49.36.74.13.25.25.5.38.73l2.41,4.49c.08.16.16.29.23.39.07.1.15.18.22.24.07.06.15.1.23.12.08.02.18.03.29.03h.35c.05,0,.11,0,.16-.02.06-.02.1-.04.15-.08.04-.04.08-.08.11-.14.03-.06.04-.13.04-.21v-7.28s0-.06-.03-.08c-.02-.02-.04-.05-.08-.07-.04-.02-.09-.03-.16-.04-.07,0-.15-.01-.24-.01-.11,0-.19,0-.26.01-.07,0-.12.02-.16.04-.04.02-.07.04-.09.07-.02.02-.03.05-.03.08v4.28c0,.32,0,.66,0,1,0,.35,0,.68.02,1h0c-.1-.19-.19-.38-.29-.57-.1-.19-.19-.38-.29-.58-.1-.19-.2-.39-.31-.59-.1-.2-.22-.41-.33-.62l-1.85-3.47c-.07-.12-.13-.23-.19-.31-.06-.08-.12-.15-.19-.19-.07-.05-.14-.08-.22-.1-.08-.02-.18-.03-.3-.03h-.52c-.11,0-.21.03-.3.1-.09.07-.14.19-.14.35v7.28s0,.05.02.08c.02.03.05.05.08.06"/>
      <path class="cls-2" d="M45.76,100.32c-.3-.14-.67-.21-1.1-.21-.4,0-.77.07-1.09.21-.32.14-.6.34-.83.6-.23.26-.41.58-.53.96-.12.38-.18.8-.18,1.27,0,.5.06.93.18,1.3.12.37.29.69.52.93.23.25.52.44.86.56.34.12.73.19,1.19.19.26,0,.51-.02.74-.06.23-.04.43-.08.61-.13.17-.05.32-.1.43-.15.11-.05.17-.09.2-.11.02-.02.04-.05.06-.07.01-.02.03-.05.03-.08,0-.03,0-.07.02-.11,0-.04,0-.08,0-.14,0-.07,0-.13,0-.19,0-.05-.01-.09-.03-.12-.01-.03-.03-.05-.05-.06-.02-.01-.05-.02-.08-.02-.05,0-.12.02-.22.06-.1.04-.22.09-.37.14-.15.05-.33.1-.53.14-.2.04-.44.06-.7.06-.33,0-.61-.05-.84-.14-.23-.09-.41-.23-.56-.4-.14-.18-.24-.38-.31-.63-.06-.24-.09-.52-.09-.82h3.62c.1,0,.19-.03.27-.1.08-.07.12-.18.12-.34v-.18c0-.36-.05-.69-.14-1.01-.09-.32-.24-.59-.43-.83-.2-.23-.45-.42-.75-.56M43.07,102.6c0-.22.05-.44.12-.64.07-.2.17-.39.29-.54.13-.15.28-.28.47-.37.19-.09.41-.14.66-.14.49,0,.85.15,1.1.45.25.3.36.72.35,1.24h-3Z"/>
      <path class="cls-2" d="M49.5,107.84c.2.13.45.23.77.31.31.08.69.11,1.13.11s.86-.05,1.2-.15c.34-.1.62-.24.83-.41.22-.17.38-.37.48-.6.11-.23.16-.47.16-.72,0-.24-.05-.45-.14-.63-.09-.18-.22-.33-.39-.46-.17-.12-.36-.22-.59-.29-.23-.07-.48-.1-.75-.11l-1.43-.06c-.22,0-.4-.06-.53-.15-.13-.09-.2-.21-.2-.35,0-.12.02-.23.07-.32.05-.09.11-.18.18-.25.11.09.27.16.47.22.2.06.41.09.64.09.32,0,.6-.04.87-.13.26-.09.49-.22.67-.39.19-.17.33-.37.44-.62.1-.25.15-.52.15-.84,0-.19-.03-.37-.08-.55-.06-.18-.16-.34-.3-.48h.79c.06,0,.11-.03.15-.09.04-.06.06-.16.06-.31s-.02-.24-.05-.31c-.03-.07-.08-.1-.15-.1h-1.66c-.13-.03-.26-.06-.41-.08-.14-.02-.3-.03-.47-.03-.31,0-.6.05-.86.14-.26.09-.49.22-.67.39-.19.17-.33.38-.44.63-.1.25-.16.53-.16.84,0,.27.04.5.11.69.07.19.17.36.3.51-.15.16-.28.33-.38.52-.1.19-.15.42-.15.66,0,.18.05.34.14.5.09.15.24.28.44.38-.13.1-.24.2-.35.31-.1.1-.18.21-.25.33-.07.11-.12.23-.15.36-.03.12-.05.25-.05.39,0,.21.04.41.13.59.09.18.23.34.43.47M50.29,101.65c.05-.15.12-.28.21-.39.1-.11.22-.2.36-.27.14-.06.31-.1.51-.1.38,0,.67.1.88.31.21.21.31.5.31.88,0,.16-.02.31-.07.46-.05.15-.12.28-.21.39-.1.11-.22.2-.36.26-.15.06-.32.09-.52.09-.37,0-.66-.1-.86-.31-.2-.21-.31-.49-.31-.85,0-.16.02-.32.07-.47ZM49.95,106.43c.02-.08.05-.16.1-.25.05-.08.12-.17.2-.26.08-.09.19-.19.32-.29l1.42.05c.33,0,.59.08.78.2.19.13.29.31.29.55,0,.14-.03.27-.08.4-.05.13-.15.24-.27.34-.13.1-.29.17-.5.23-.2.06-.46.09-.77.09-.48,0-.85-.07-1.12-.21-.27-.14-.4-.33-.4-.6,0-.09,0-.17.03-.25Z"/>
      <path class="cls-2" d="M59.87,100.31c-.33-.13-.73-.2-1.18-.2s-.88.08-1.23.23c-.35.15-.64.36-.87.63-.23.27-.41.6-.53.97-.11.38-.17.79-.17,1.24s.06.88.16,1.24c.11.37.28.68.5.93.22.26.5.45.84.59.34.13.73.2,1.18.2s.87-.08,1.22-.23c.35-.15.65-.36.88-.64.23-.27.41-.6.53-.97.12-.38.18-.79.18-1.24s-.06-.87-.17-1.24c-.11-.37-.28-.68-.5-.93-.22-.25-.5-.45-.84-.59M60.24,104.01c-.07.26-.17.49-.31.68-.14.19-.32.34-.54.45-.22.11-.47.16-.77.16-.32,0-.6-.06-.81-.17-.22-.12-.39-.27-.52-.47-.13-.2-.22-.43-.28-.69-.06-.26-.08-.55-.08-.85s.03-.6.1-.87c.07-.27.17-.49.31-.69.14-.19.32-.34.53-.45.22-.1.47-.16.77-.16.33,0,.6.06.81.17.22.12.39.27.52.47.13.2.22.43.28.7.05.26.08.54.08.84,0,.32-.03.61-.1.87Z"/>
      <path class="cls-2" d="M65.96,100.97c.24,0,.44.03.61.1.17.07.32.14.44.22.12.08.22.15.3.22.08.07.15.1.21.1.05,0,.1-.03.13-.09.04-.06.05-.17.05-.33,0-.07,0-.13,0-.18,0-.05-.01-.09-.03-.13-.01-.04-.03-.07-.04-.1-.02-.03-.05-.07-.1-.12-.05-.05-.13-.11-.23-.18-.11-.07-.23-.13-.37-.18-.14-.05-.29-.09-.45-.13-.16-.03-.34-.05-.51-.05-.36,0-.7.06-1.01.18-.31.12-.58.3-.81.55-.23.25-.41.57-.54.95-.13.39-.2.85-.2,1.39,0,.48.05.9.16,1.26.11.36.27.67.47.92.21.25.46.44.77.57.3.13.66.2,1.05.2.19,0,.38-.02.55-.06.18-.03.35-.08.5-.14.15-.06.29-.13.41-.2.12-.08.21-.14.26-.19.05-.05.08-.09.1-.12.01-.03.03-.06.04-.09,0-.03.02-.08.02-.13,0-.05,0-.11,0-.18,0-.08,0-.15-.01-.21,0-.06-.01-.11-.03-.14-.02-.04-.03-.07-.05-.08-.02-.02-.05-.03-.08-.03-.05,0-.12.03-.2.11-.09.07-.2.15-.32.24-.13.09-.28.17-.45.24-.17.07-.38.11-.61.11-.25,0-.46-.04-.65-.13-.19-.09-.35-.22-.48-.4-.13-.18-.23-.4-.3-.67-.07-.27-.1-.58-.1-.93,0-.71.13-1.25.39-1.62.26-.37.63-.56,1.11-.56"/>
      <path class="cls-2" d="M71.01,98.06c-.09-.08-.25-.12-.48-.12s-.41.04-.5.13c-.09.09-.13.25-.13.48s.04.39.13.47c.09.08.25.13.48.13s.4-.04.5-.13c.09-.09.13-.25.13-.48s-.04-.39-.13-.47"/>
      <path class="cls-2" d="M70.92,100.25s-.09-.03-.15-.04c-.07,0-.15-.01-.25-.01-.1,0-.18,0-.24.01-.06,0-.12.02-.15.04-.04.02-.06.04-.08.06-.02.02-.02.05-.02.08v5.49s0,.06.02.08c.01.02.04.04.08.06.04.02.09.03.15.04.07,0,.15.01.24.01.1,0,.19,0,.25-.01.06,0,.12-.02.15-.04.04-.02.06-.03.08-.06.02-.02.02-.05.02-.08v-5.49s0-.06-.02-.08c-.02-.02-.04-.04-.08-.06"/>
      <path class="cls-2" d="M77.34,105.92c.35-.15.65-.36.88-.64.24-.27.41-.6.53-.97.12-.38.18-.79.18-1.24s-.06-.87-.17-1.24c-.11-.37-.28-.68-.5-.93-.22-.25-.5-.45-.84-.58-.33-.13-.73-.2-1.18-.2s-.88.08-1.23.23c-.35.15-.64.36-.88.63-.23.27-.41.6-.52.97-.12.38-.17.79-.17,1.24s.05.88.16,1.24c.11.37.28.68.5.93.22.26.5.45.84.59.34.13.73.2,1.18.2s.87-.08,1.22-.23M74.83,104.65c-.13-.2-.22-.43-.28-.69-.05-.26-.08-.55-.08-.85,0-.31.04-.6.1-.87.07-.26.17-.49.31-.69.14-.19.31-.34.53-.45.22-.1.47-.16.77-.16.32,0,.6.06.81.18.22.12.39.27.52.47.13.2.22.43.27.7.05.26.08.54.08.84,0,.32-.03.61-.1.87-.07.26-.17.49-.31.68-.14.19-.32.34-.54.45-.22.11-.47.16-.77.16-.32,0-.59-.06-.81-.17-.22-.12-.39-.27-.52-.47Z"/>
      <path class="cls-2" d="M81.03,105.7s.12.09.21.14c.1.05.22.1.36.15.14.05.3.08.48.12.18.03.36.04.56.04.32,0,.61-.04.87-.12.26-.08.49-.19.68-.34.19-.15.34-.33.44-.56.1-.22.16-.47.16-.75,0-.23-.04-.44-.12-.61-.08-.17-.18-.32-.31-.44-.13-.12-.28-.23-.45-.31-.17-.09-.34-.16-.51-.23-.17-.07-.34-.14-.51-.2-.17-.07-.31-.14-.44-.22-.13-.08-.24-.18-.32-.28-.08-.11-.12-.24-.12-.4,0-.11.02-.22.06-.32.04-.1.11-.18.19-.25.08-.07.19-.13.32-.16.13-.04.28-.06.45-.06.19,0,.36.02.51.07.15.05.28.09.39.14.11.05.2.1.27.14.07.04.12.07.16.07.02,0,.05,0,.07-.02.02-.01.04-.04.05-.07.01-.03.02-.07.03-.12,0-.05.01-.11.01-.18,0-.06,0-.12-.01-.17,0-.04-.01-.08-.02-.11,0-.03-.02-.06-.03-.08-.01-.02-.04-.05-.08-.09-.04-.03-.11-.07-.19-.11-.08-.04-.18-.08-.3-.12-.12-.04-.25-.07-.4-.09-.15-.02-.29-.04-.44-.04-.33,0-.63.04-.87.13-.25.09-.46.21-.62.36-.17.15-.29.32-.38.52-.08.2-.13.4-.13.62,0,.24.04.45.12.63.08.17.19.33.31.45.13.13.28.23.44.32.17.09.33.17.51.24.17.07.34.14.5.2.16.06.31.14.44.22.13.08.24.17.31.28.08.11.12.24.12.39s-.03.28-.08.39c-.06.11-.13.2-.23.27-.1.07-.22.12-.36.16-.14.04-.29.06-.46.06-.23,0-.43-.03-.6-.08-.18-.05-.33-.12-.46-.18-.13-.07-.24-.13-.32-.18-.09-.06-.15-.08-.2-.08-.03,0-.05,0-.08.02-.02.02-.04.04-.05.07-.01.03-.02.07-.03.13,0,.05-.01.12-.01.19,0,.13.01.23.03.3.02.07.05.13.1.17"/>
      <path class="cls-2" d="M91.82,98.12c-.07-.01-.15-.01-.25-.01-.09,0-.17,0-.24.01-.07.01-.12.02-.17.04-.04.01-.07.03-.09.06-.02.03-.03.05-.03.08v7.58s0,.06.02.09c.02.02.04.04.08.06.04.01.1.03.17.04.07.01.15.02.25.02s.19,0,.25-.02c.06-.01.12-.02.16-.04.04-.01.07-.03.09-.06.01-.02.03-.05.03-.09v-7.58s-.01-.06-.03-.08c-.02-.02-.04-.04-.09-.06-.04-.02-.1-.03-.16-.04"/>
      <path class="cls-2" d="M98.75,105.96s.04.04.08.06c.04.02.09.03.15.04.07,0,.15.01.25.01s.18,0,.24-.01c.06,0,.11-.02.15-.04.04-.02.06-.03.08-.06.02-.02.03-.05.03-.08v-3.35c0-.39-.03-.72-.1-1-.07-.28-.18-.52-.33-.73-.15-.21-.36-.37-.6-.5-.25-.12-.56-.19-.92-.19-.31,0-.62.08-.93.24-.31.16-.61.42-.92.76v-.73s0-.06-.02-.08c-.01-.02-.04-.04-.07-.06-.03-.02-.08-.03-.14-.04-.06,0-.13,0-.22,0s-.17,0-.23,0c-.06,0-.1.02-.14.04-.04.02-.06.04-.07.06-.01.02-.02.05-.02.08v5.49s0,.06.02.08c.02.02.04.04.08.06.04.02.09.03.15.04.07,0,.15.01.24.01.1,0,.19,0,.25-.01.06,0,.12-.02.15-.04.04-.02.06-.03.08-.06.02-.02.03-.05.03-.08v-3.83c.28-.35.54-.61.79-.79.25-.18.5-.27.76-.27.2,0,.37.04.52.11.15.07.27.18.36.32.09.14.17.3.21.5.05.19.07.44.07.75v3.22s0,.06.02.08"/>
      <path class="cls-2" d="M102.52,100.31s-.02.05-.02.08v5.49s0,.06.02.08c.01.02.04.04.08.06.04.02.09.03.16.04.07,0,.15.01.24.01s.18,0,.25-.01c.07,0,.12-.02.15-.04.04-.02.06-.03.08-.06.02-.02.02-.05.02-.08v-3.84c.28-.35.53-.61.77-.79.24-.18.47-.27.7-.27.19,0,.35.04.48.11.14.07.25.18.34.32.09.14.16.3.2.49.04.19.07.4.07.63v3.34s0,.06.02.08c.01.02.04.04.08.06.04.02.09.03.16.04.07,0,.15.01.24.01s.18,0,.24-.01c.07,0,.12-.02.16-.04.04-.02.07-.03.08-.06.02-.02.03-.05.03-.08v-3.84c.28-.35.54-.61.77-.79.23-.18.47-.27.7-.27.19,0,.35.04.49.11.14.07.25.18.34.32.09.14.16.3.19.49.04.19.06.4.06.63v3.34s0,.06.03.08c.02.02.04.04.08.06.04.02.09.03.16.04.06,0,.15.01.25.01s.18,0,.24-.01c.06,0,.12-.02.15-.04.04-.02.06-.03.08-.06.02-.02.03-.05.03-.08v-3.47c0-.31-.03-.6-.1-.88-.06-.28-.17-.52-.32-.73-.15-.21-.34-.37-.58-.5-.24-.12-.54-.19-.89-.19-.15,0-.29.02-.44.06-.14.04-.29.1-.45.18-.15.09-.31.2-.48.34-.17.14-.34.31-.52.51-.07-.16-.15-.31-.24-.44-.1-.13-.22-.25-.36-.34-.14-.1-.3-.17-.48-.23-.18-.05-.39-.08-.61-.08-.3,0-.59.08-.88.24-.29.16-.59.42-.9.76v-.73s0-.06-.02-.08c-.01-.02-.04-.04-.07-.06-.03-.02-.08-.03-.14-.04-.06,0-.13,0-.22,0s-.17,0-.23,0c-.06,0-.1.02-.14.04-.04.02-.06.04-.08.06"/>
      <path class="cls-2" d="M113.73,100.98c-.23.27-.41.6-.52.97-.12.38-.17.79-.17,1.24s.06.88.16,1.24c.11.36.28.68.5.93.23.26.51.45.84.59.34.13.73.2,1.18.2s.87-.08,1.22-.23c.35-.15.64-.36.88-.64.23-.27.41-.6.53-.97.12-.38.18-.79.18-1.24s-.06-.87-.17-1.24c-.11-.37-.28-.68-.5-.93-.22-.25-.5-.45-.84-.59-.34-.13-.73-.2-1.18-.2s-.88.08-1.23.23c-.35.15-.64.36-.88.63M114.18,102.25c.07-.27.17-.49.31-.69.14-.19.32-.34.53-.45.21-.11.47-.16.77-.16.32,0,.59.06.81.17.22.12.39.27.52.47.13.2.22.43.27.7.05.26.08.54.08.84,0,.32-.03.61-.1.87-.06.26-.17.49-.31.68-.14.19-.32.34-.54.45-.22.11-.47.16-.77.16-.33,0-.6-.06-.81-.17-.22-.12-.39-.27-.52-.47-.13-.2-.22-.43-.28-.69-.06-.26-.08-.55-.08-.85s.03-.6.1-.87Z"/>
      <path class="cls-2" d="M125.99,103.06c0-.4-.04-.78-.12-1.13-.08-.36-.21-.67-.39-.94-.18-.27-.41-.48-.69-.64-.28-.16-.62-.24-1.02-.24-.16,0-.32.02-.46.05-.15.03-.29.09-.44.16-.15.07-.3.16-.45.28-.15.11-.31.26-.47.42v-3.29s0-.06-.02-.09c-.02-.02-.04-.04-.08-.06-.04-.02-.09-.03-.15-.04-.07,0-.15-.01-.25-.01s-.18,0-.24.01c-.07,0-.12.02-.15.04-.04.02-.07.03-.08.06-.01.03-.02.05-.02.09v8.15s0,.06.02.08c.01.03.04.04.07.06.04.01.08.03.14.03.06,0,.13.01.21.01.08,0,.16,0,.21-.01.05,0,.1-.02.14-.03.04-.02.06-.03.08-.06.02-.02.02-.05.02-.08v-.67c.16.17.31.31.45.43.14.12.28.21.43.29.14.08.29.14.44.17.15.03.31.05.49.05.38,0,.71-.07,1-.21.29-.14.54-.35.74-.62.2-.27.35-.59.46-.97.1-.38.15-.81.15-1.28M124.87,103.94c-.05.25-.13.48-.25.68-.11.2-.26.36-.44.48-.18.12-.4.18-.65.18-.28,0-.54-.09-.79-.26-.25-.18-.52-.43-.8-.77v-2.19c.16-.2.31-.37.45-.51.14-.14.28-.24.41-.33.13-.08.26-.15.39-.18.13-.04.26-.06.39-.06.26,0,.48.06.66.19.18.12.32.29.42.49.11.2.18.44.22.7.04.26.07.54.07.82,0,.26-.03.51-.08.76Z"/>
      <path class="cls-2" d="M128.54,106.02s.09.03.16.04c.07,0,.15.01.24.01s.19,0,.25-.01c.06,0,.12-.02.15-.04.04-.02.06-.03.08-.06.02-.02.02-.05.02-.08v-5.49s0-.05-.02-.08c-.02-.03-.04-.04-.08-.06-.03-.02-.09-.03-.15-.03-.07,0-.15-.01-.25-.01s-.18,0-.24.01c-.06,0-.12.02-.16.03-.04.02-.06.04-.08.06-.01.02-.02.05-.02.08v5.49s0,.06.02.08c.02.02.04.04.08.06"/>
      <path class="cls-2" d="M128.93,99.15c.24,0,.4-.04.5-.13.09-.09.13-.25.13-.48s-.04-.39-.13-.47c-.09-.08-.25-.13-.49-.13s-.4.04-.49.13c-.09.09-.13.25-.13.48s.04.39.13.47c.09.08.25.13.49.13"/>
      <path class="cls-2" d="M133.14,97.59s-.08-.03-.15-.04c-.07,0-.15-.01-.25-.01-.1,0-.18,0-.24.01-.07,0-.12.02-.16.04-.04.02-.07.03-.08.06-.01.03-.02.05-.02.09v8.15s0,.06.02.08c.01.02.04.04.08.06.04.02.09.03.16.04.06,0,.15.01.24.01.1,0,.18,0,.25-.01.07,0,.12-.02.15-.04.04-.02.06-.03.08-.06.02-.02.03-.05.03-.08v-8.15s0-.06-.03-.09c-.02-.02-.04-.04-.08-.06"/>
      <path class="cls-2" d="M136.95,100.25s-.09-.03-.15-.04c-.06,0-.15-.01-.25-.01s-.18,0-.24.01c-.07,0-.12.02-.16.04-.04.02-.06.04-.08.06-.01.02-.02.05-.02.08v5.49s0,.06.02.08c.02.02.04.04.08.06.04.02.09.03.16.04.06,0,.15.01.24.01s.19,0,.25-.01c.07,0,.12-.02.15-.04.04-.02.06-.03.08-.06.02-.02.02-.05.02-.08v-5.49s0-.06-.02-.08c-.02-.02-.04-.04-.08-.06"/>
      <path class="cls-2" d="M137.04,98.06c-.09-.08-.25-.12-.49-.12s-.4.04-.49.13c-.09.09-.13.25-.13.48s.04.39.13.47c.09.08.25.13.49.13s.4-.04.49-.13c.09-.09.14-.25.14-.48s-.05-.39-.13-.47"/>
      <path class="cls-2" d="M142.23,102.65c-.43,0-.81.04-1.15.11-.34.08-.63.19-.87.34-.24.15-.41.34-.54.57-.13.23-.19.49-.19.81,0,.26.05.5.14.71.09.21.22.38.38.52.16.14.36.25.6.32.23.08.49.11.78.11.33,0,.64-.07.94-.21.3-.14.56-.34.8-.6v.55s.01.08.04.11c.03.02.07.04.14.05.06.01.15.02.25.02.11,0,.19,0,.25-.02.06-.01.1-.03.13-.05.03-.02.05-.06.05-.11v-3.7c0-.34-.04-.64-.12-.9-.08-.26-.2-.47-.37-.65-.17-.17-.4-.3-.67-.39-.28-.09-.61-.13-1.01-.13-.21,0-.42.02-.63.06-.21.04-.4.09-.57.14-.17.06-.33.13-.46.2-.14.07-.23.13-.28.19-.06.05-.09.11-.1.17-.01.06-.02.14-.02.24,0,.06,0,.12.01.17,0,.05.02.09.04.12.02.03.04.06.06.07.03.02.05.03.08.03.05,0,.12-.03.22-.09.1-.06.22-.12.37-.19.15-.07.32-.14.52-.19.2-.06.42-.09.67-.09.23,0,.43.03.59.08.16.06.29.14.39.24.1.11.17.24.22.41.04.16.07.35.07.56v.43h-.76ZM142.98,104.54c-.25.28-.48.48-.71.62-.23.13-.47.2-.73.2-.33,0-.58-.08-.76-.25-.18-.17-.27-.4-.27-.68,0-.17.03-.31.09-.44.06-.13.16-.24.29-.33.14-.09.3-.16.51-.21.2-.05.44-.07.72-.07h.86v1.16Z"/>
      <path class="cls-2" d="M147.66,100.31s-.04-.04-.07-.06c-.03-.02-.08-.03-.14-.04-.06,0-.13,0-.22,0s-.17,0-.22,0c-.06,0-.1.02-.14.04-.03.02-.06.04-.07.06-.01.02-.02.05-.02.08v5.49s0,.06.02.08c.01.02.04.04.08.06.04.02.09.03.16.04.06,0,.15.01.24.01.1,0,.19,0,.25-.01.07,0,.12-.02.15-.04.04-.02.06-.03.08-.06.02-.02.02-.05.02-.08v-3.61c.14-.22.27-.41.39-.57.12-.16.23-.28.34-.37.11-.09.21-.16.31-.2.1-.04.2-.06.3-.06.08,0,.16,0,.24.03.07.02.14.03.2.05.06.02.11.04.16.06.05.02.09.03.12.03s.06,0,.08-.03c.02-.02.04-.04.05-.08.01-.03.02-.08.02-.14,0-.06,0-.14,0-.23s0-.17,0-.22c0-.05,0-.1-.01-.13,0-.03-.01-.05-.02-.07,0-.02-.03-.04-.05-.06-.02-.02-.07-.04-.13-.06-.06-.02-.12-.04-.2-.05-.07-.02-.14-.03-.21-.04-.07,0-.13,0-.18,0-.12,0-.24.01-.35.04-.12.03-.23.09-.35.17-.12.08-.24.19-.37.33-.13.14-.27.32-.42.54v-.8s0-.06-.02-.08"/>
      <path class="cls-2" d="M152.16,106.02s.09.03.15.04c.07,0,.15.01.24.01s.18,0,.25-.01c.06,0,.12-.02.15-.04.03-.02.06-.03.08-.06.02-.02.03-.05.03-.08v-5.49s0-.05-.03-.08c-.02-.03-.04-.04-.08-.06-.04-.02-.09-.03-.15-.03-.07,0-.15-.01-.25-.01s-.18,0-.24.01c-.06,0-.12.02-.15.03-.04.02-.07.04-.08.06-.01.02-.02.05-.02.08v5.49s0,.06.02.08c.01.02.04.04.08.06"/>
      <path class="cls-2" d="M152.55,99.15c.24,0,.4-.04.49-.13.09-.09.14-.25.14-.48s-.04-.39-.13-.47c-.09-.08-.25-.13-.49-.13s-.4.04-.49.13c-.09.09-.13.25-.13.48s.04.39.13.47c.09.08.25.13.49.13"/>
      <path class="cls-2" d="M159.38,105.92c.35-.15.64-.36.88-.64.23-.27.41-.6.53-.97.12-.38.18-.79.18-1.24s-.05-.87-.17-1.24c-.11-.37-.28-.68-.5-.93-.22-.25-.5-.45-.84-.58-.33-.13-.73-.2-1.18-.2s-.88.08-1.23.23c-.35.15-.64.36-.88.63-.23.27-.41.6-.52.97-.12.38-.17.79-.17,1.24s.06.88.17,1.24c.11.37.28.68.5.93.22.26.5.45.84.59.34.13.73.2,1.18.2s.87-.08,1.22-.23M156.88,104.65c-.13-.2-.22-.43-.28-.69-.05-.26-.08-.55-.08-.85,0-.31.03-.6.1-.87.07-.26.17-.49.31-.69.14-.19.32-.34.53-.45.22-.1.47-.16.77-.16.32,0,.59.06.81.18.22.12.39.27.52.47.13.2.22.43.27.7.06.26.08.54.08.84,0,.32-.03.61-.1.87-.07.26-.17.49-.31.68-.14.19-.32.34-.54.45-.22.11-.47.16-.77.16-.32,0-.6-.06-.81-.17-.22-.12-.39-.27-.52-.47Z"/>
      <path class="cls-2" d="M163.58,100.61c-.17.15-.29.32-.38.52-.08.2-.13.4-.13.62,0,.24.04.45.12.63.08.18.18.33.31.45.13.13.28.23.44.32.16.09.33.17.5.24.17.07.34.14.5.2.16.06.31.14.44.22.13.08.23.17.31.28.08.11.12.24.12.39s-.03.28-.08.39c-.05.11-.13.2-.24.27-.1.07-.22.12-.36.16-.14.04-.29.06-.46.06-.23,0-.43-.03-.61-.08-.17-.05-.33-.12-.45-.18-.13-.07-.24-.13-.32-.18-.09-.06-.16-.08-.2-.08-.03,0-.06,0-.08.02-.02.02-.04.04-.05.07-.01.03-.02.08-.03.13,0,.05-.01.12-.01.19,0,.13.01.23.03.3.02.07.05.13.1.17.05.04.12.09.21.14.1.05.22.1.36.15.14.05.3.08.48.12.18.03.36.04.56.04.32,0,.61-.04.87-.12.26-.08.49-.19.68-.34.19-.15.34-.33.44-.56.1-.22.16-.47.16-.75,0-.23-.04-.44-.12-.61-.08-.17-.18-.32-.32-.44-.13-.12-.28-.23-.45-.31-.17-.09-.34-.16-.51-.23-.17-.07-.34-.14-.51-.2-.17-.06-.31-.14-.45-.22-.13-.08-.23-.18-.32-.28-.08-.11-.12-.24-.12-.4,0-.11.02-.22.07-.32.04-.1.1-.18.19-.25.08-.07.19-.13.32-.16.13-.04.28-.06.45-.06.19,0,.36.02.51.07.15.05.28.09.39.14.11.05.2.1.27.14.07.04.12.07.16.07.03,0,.05,0,.07-.02.02-.01.04-.04.05-.07.01-.03.02-.07.03-.12,0-.05,0-.11,0-.18,0-.06,0-.12,0-.17,0-.04-.01-.08-.02-.11,0-.03-.02-.06-.03-.08-.01-.02-.04-.05-.08-.09-.04-.03-.11-.07-.19-.11-.08-.04-.19-.08-.3-.12-.12-.04-.25-.07-.4-.09-.15-.02-.29-.04-.44-.04-.33,0-.62.04-.87.13-.25.09-.46.21-.62.36"/>
    </g>
  </g>
</svg>