<?xml version="1.0" encoding="UTF-8"?>
<svg id="Capa_2" data-name="Capa 2" xmlns="http://www.w3.org/2000/svg" xmlns:xlink="http://www.w3.org/1999/xlink" viewBox="0 0 238.94 72.79">
  <defs>
    <style>
      .cls-1 {
        fill: none;
      }

      .cls-2 {
        fill: #b1b1b0;
      }

      .cls-3 {
        fill: #d9d9d9;
      }

      .cls-4 {
        fill: #ed7528;
      }

      .cls-5 {
        fill: #b1b1b1;
      }

      .cls-6 {
        fill: #706f6e;
      }

      .cls-7 {
        clip-path: url(#clippath);
      }
    </style>
    <clipPath id="clippath">
      <rect class="cls-1" x="71.48" width="167.47" height="72.79"/>
    </clipPath>
  </defs>
  <g id="Capa_1-2" data-name="Capa 1">
    <g>
      <g>
        <rect class="cls-4" y=".57" width="20.6" height="20.6"/>
        <rect class="cls-4" x="22.48" y=".57" width="20.6" height="20.6"/>
        <rect class="cls-4" x="44.96" y=".57" width="20.6" height="20.6"/>
        <rect class="cls-5" y="23.05" width="20.6" height="20.6"/>
        <rect class="cls-4" x="22.48" y="23.05" width="20.6" height="20.6"/>
        <rect class="cls-5" x="44.96" y="23.05" width="20.6" height="20.6"/>
        <rect class="cls-3" y="45.53" width="20.6" height="20.6"/>
        <rect class="cls-4" x="22.48" y="45.53" width="20.6" height="20.6"/>
        <rect class="cls-3" x="44.96" y="45.53" width="20.6" height="20.6"/>
      </g>
      <g>
        <polygon class="cls-6" points="80.7 50.25 85.07 50.25 85.07 51.43 83.57 51.43 83.57 60.22 82.25 60.22 82.25 51.43 80.7 51.43 80.7 50.25"/>
        <polygon class="cls-6" points="87.14 50.25 90.71 50.25 90.71 51.39 88.48 51.39 88.48 54.55 90.45 54.55 90.45 55.68 88.48 55.68 88.48 59.09 90.71 59.09 90.71 60.22 87.14 60.22 87.14 50.25"/>
        <g class="cls-7">
          <path class="cls-6" d="M97.17,50.41v1.21c-.34-.17-.63-.25-.87-.25-.32,0-.59.08-.82.24-.23.16-.42.4-.57.73-.15.33-.26.74-.33,1.24-.07.5-.11,1.09-.11,1.78,0,2.46.63,3.69,1.89,3.69.22,0,.48-.07.79-.21v1.23c-.32.18-.68.27-1.08.27-2.02,0-3.03-1.65-3.03-4.95,0-1.78.25-3.11.74-3.98.49-.87,1.25-1.3,2.26-1.3.37,0,.74.1,1.11.3"/>
          <path class="cls-6" d="M99.63,50.25h1.25l1.34,3.98c.39,1.12.73,2.32,1.03,3.6-.11-.77-.19-1.47-.24-2.09-.05-.62-.08-1.21-.08-1.76v-3.72h1.34v9.97h-1.26l-1.5-4.49c-.14-.42-.27-.85-.39-1.28-.12-.44-.24-.9-.34-1.38,0-.06-.02-.13-.04-.22-.02-.09-.04-.18-.07-.3.01.11.02.21.03.29,0,.08.02.15.02.2l.07,1.01.08,1.23c0,.07,0,.15.01.25,0,.1,0,.21,0,.33l.07,4.35h-1.33v-9.97Z"/>
          <path class="cls-6" d="M112.14,55.48c0,1.76-.2,3.01-.59,3.75-.39.74-1.05,1.11-1.97,1.11-.97,0-1.65-.4-2.05-1.19-.39-.78-.59-2.16-.59-4.15,0-1.77.19-3.03.58-3.76.39-.74,1.06-1.11,1.99-1.11.83,0,1.45.29,1.86.86.27.38.46.93.58,1.63.12.65.18,1.61.18,2.87M110.73,55.63c0-1.73-.08-2.87-.23-3.43-.16-.57-.47-.85-.95-.85s-.8.26-.96.78c-.15.53-.23,1.58-.23,3.16,0,1.46.08,2.47.24,3.03.17.53.48.8.94.8s.76-.25.93-.75c.17-.49.25-1.41.25-2.74"/>
          <polygon class="cls-6" points="114.79 50.25 116.13 50.25 116.13 59.09 118.33 59.09 118.33 60.22 114.79 60.22 114.79 50.25"/>
          <path class="cls-6" d="M125.48,55.48c0,1.76-.2,3.01-.59,3.75-.39.74-1.05,1.11-1.97,1.11-.97,0-1.65-.4-2.05-1.19-.39-.78-.59-2.16-.59-4.15,0-1.77.19-3.03.58-3.76.39-.74,1.05-1.11,1.99-1.11.83,0,1.45.29,1.86.86.27.38.46.93.58,1.63.12.65.18,1.61.18,2.87M124.07,55.63c0-1.73-.08-2.87-.23-3.43-.15-.57-.47-.85-.95-.85s-.8.26-.95.78c-.16.53-.23,1.58-.23,3.16,0,1.46.08,2.47.25,3.03.17.53.48.8.94.8s.76-.25.93-.75c.17-.49.25-1.41.25-2.74"/>
          <path class="cls-6" d="M130.52,54.98h2.44v.39c0,1.94-.17,3.25-.51,3.93-.34.7-.97,1.05-1.89,1.05s-1.63-.39-2.03-1.16c-.4-.77-.6-2.08-.6-3.91,0-2.09.22-3.48.66-4.18.41-.65,1.05-.98,1.9-.98.65,0,1.16.16,1.53.47.37.32.66.84.87,1.57l-1.25.52c-.06-.26-.12-.48-.19-.66-.07-.18-.14-.32-.23-.42-.16-.2-.41-.3-.74-.3-.45,0-.75.28-.92.83-.16.58-.24,1.61-.24,3.11s.08,2.53.25,3.07c.17.53.48.8.95.8.43,0,.72-.19.9-.57.18-.4.26-1.05.26-1.95v-.47h-1.17v-1.14Z"/>
          <path class="cls-6" d="M135.62,50.25h1.34v9.97h-1.34v-9.97ZM137.06,47.45l.7.78-1.61,1.13-.48-.55,1.39-1.36Z"/>
          <path class="cls-6" d="M141.24,50.25h1.05l2.14,9.97h-1.33l-.37-1.94h-1.98l-.38,1.94h-1.29l2.17-9.97ZM142.53,57.24l-.3-1.59c-.2-1.08-.36-2.23-.48-3.46-.06.6-.14,1.2-.23,1.82-.1.61-.21,1.26-.34,1.95l-.25,1.28h1.59Z"/>
          <polygon class="cls-6" points="150.59 50.25 154.16 50.25 154.16 51.39 151.94 51.39 151.94 54.55 153.91 54.55 153.91 55.68 151.94 55.68 151.94 59.09 154.16 59.09 154.16 60.22 150.59 60.22 150.59 50.25"/>
          <path class="cls-6" d="M156.72,50.25h1.25l1.34,3.98c.39,1.12.73,2.32,1.03,3.6-.11-.77-.19-1.47-.24-2.09-.05-.62-.08-1.21-.08-1.76v-3.72h1.34v9.97h-1.26l-1.5-4.49c-.14-.42-.27-.85-.39-1.28-.12-.44-.24-.9-.34-1.38,0-.06-.02-.13-.04-.22-.02-.09-.04-.18-.07-.3.01.11.02.21.03.29,0,.08.01.15.02.2l.07,1.01.08,1.23c0,.07,0,.15,0,.25,0,.1,0,.21,0,.33l.07,4.35h-1.33v-9.97Z"/>
          <path class="cls-6" d="M169.71,50.25h1.05l2.14,9.97h-1.33l-.37-1.94h-1.98l-.38,1.94h-1.29l2.17-9.97ZM170.99,57.24l-.3-1.59c-.2-1.08-.36-2.23-.48-3.46-.06.6-.14,1.2-.23,1.82-.09.61-.21,1.26-.34,1.95l-.25,1.28h1.6Z"/>
          <path class="cls-6" d="M175,50.25h1.82c1.42,0,2.14.88,2.14,2.65,0,.68-.09,1.18-.28,1.5-.19.33-.51.57-.98.74.54.22.91.49,1.1.83.2.33.3.83.3,1.5,0,1.83-.78,2.74-2.35,2.74h-1.76v-9.97ZM176.26,54.64c.52,0,.89-.12,1.09-.36.2-.25.3-.7.3-1.34,0-1.08-.39-1.61-1.17-1.61h-.16s-.06,0-.06,0v3.31ZM176.26,59.07c.55,0,.94-.12,1.15-.36.21-.24.32-.66.32-1.28s-.11-1.08-.33-1.34c-.22-.26-.59-.39-1.13-.39v3.36Z"/>
          <polygon class="cls-6" points="181.76 50.25 185.33 50.25 185.33 51.39 183.11 51.39 183.11 54.55 185.08 54.55 185.08 55.68 183.11 55.68 183.11 59.09 185.33 59.09 185.33 60.22 181.76 60.22 181.76 50.25"/>
          <path class="cls-6" d="M187.89,50.25h1.77c.73,0,1.27.17,1.63.52.45.45.68,1.14.68,2.07,0,.71-.12,1.29-.36,1.72-.24.43-.58.7-1.02.8l1.83,4.85h-1.36l-1.83-4.88v4.88h-1.34v-9.97ZM189.23,54.67c.52,0,.89-.12,1.11-.36.21-.24.32-.65.32-1.22,0-.31-.02-.58-.07-.79-.04-.22-.12-.4-.21-.54-.1-.14-.22-.24-.37-.3-.15-.06-.34-.1-.55-.1h-.23v3.31Z"/>
          <polygon class="cls-6" points="194.12 50.25 198.49 50.25 198.49 51.43 196.98 51.43 196.98 60.22 195.67 60.22 195.67 51.43 194.12 51.43 194.12 50.25"/>
          <path class="cls-6" d="M200.55,50.25h1.32v7.04c0,.72.07,1.2.19,1.43.13.24.4.36.79.36s.65-.1.78-.31c.13-.21.19-.64.19-1.28v-7.24h1.32v7.24c0,1.08-.17,1.82-.5,2.2-.4.44-1,.65-1.81.65-.9,0-1.53-.28-1.89-.84-.25-.38-.38-1.12-.38-2.21v-7.04Z"/>
          <path class="cls-6" d="M208,50.25h1.77c.73,0,1.28.17,1.63.52.45.45.68,1.14.68,2.07,0,.71-.12,1.29-.36,1.72-.24.43-.58.7-1.02.8l1.83,4.85h-1.36l-1.83-4.88v4.88h-1.34v-9.97ZM209.34,54.67c.52,0,.89-.12,1.1-.36.22-.24.32-.65.32-1.22,0-.31-.02-.58-.07-.79-.05-.22-.12-.4-.21-.54-.1-.14-.22-.24-.37-.3-.15-.06-.33-.1-.55-.1h-.23v3.31Z"/>
          <path class="cls-6" d="M216.31,50.25h1.05l2.14,9.97h-1.33l-.37-1.94h-1.98l-.38,1.94h-1.29l2.17-9.97ZM217.6,57.24l-.3-1.59c-.2-1.08-.36-2.23-.48-3.46-.06.6-.14,1.2-.23,1.82-.1.61-.21,1.26-.34,1.95l-.25,1.28h1.59Z"/>
          <path class="cls-6" d="M224.93,50.46v1.31c-.41-.29-.78-.44-1.1-.44-.35,0-.64.12-.87.37-.22.24-.34.55-.34.95,0,.35.08.65.24.9.08.13.22.31.4.52.19.21.43.46.73.76.55.56.92,1.04,1.12,1.44.2.39.3.87.3,1.44,0,.77-.22,1.41-.65,1.9-.43.49-.99.73-1.67.73-.57,0-1.06-.16-1.47-.47v-1.33c.48.35.91.52,1.3.52.37,0,.65-.12.86-.36.21-.24.31-.57.31-.99,0-.36-.08-.69-.24-.97-.08-.14-.2-.3-.34-.47-.15-.18-.33-.38-.55-.6-.34-.34-.62-.63-.84-.89-.22-.26-.39-.48-.5-.68-.21-.38-.31-.86-.31-1.43,0-.78.2-1.4.61-1.85.41-.46.96-.69,1.65-.69.48,0,.93.11,1.37.34"/>
          <path class="cls-2" d="M133.02,28.79c0,.31-.19,1.64-.24,1.85l-12.48-.04c.47,2.03.52,2.03,1.7,3.3,1.2,1.27,1.66,1.1,3.59,1.23,1,.07,1.97-.26,2.98-.73,1.16-.54,1.27-.95,1.87-1.65l2.11,2.2c-1.51,1.7-4.11,3.13-7.08,3.13-2.43,0-4.55-.9-6.02-2.53-1.48-1.63-2.18-3.86-2.18-6.52s.85-4.57,2.3-6.23c1.45-1.66,3.36-2.31,5.73-2.31s3.99.67,5.45,2.28c1.47,1.61,2.27,3.5,2.27,6.02M129.85,27.66c-.13-1.26-.61-2.27-1.44-3.03-.83-.77-1.91-1.15-3.24-1.15s-2.4.38-3.24,1.15c-.85.76-1.33,1.77-1.46,3.03h9.38Z"/>
          <path class="cls-2" d="M95.08,37.6h-2.78v-1.54c-.61.47-.62.63-2.14,1.27-.92.39-1.88.59-2.9.59-2.41,0-4.33-.82-5.76-2.45-1.44-1.64-2.15-3.78-2.15-6.42s.7-4.83,2.07-6.43c1.41-1.65,3.48-2.62,5.91-2.37,2.77.27,3.06.34,4.93,1.91v-1.71h2.82v17.15ZM92.32,31.49v-1.77c0-1.83-.4-3.32-1.19-4.47-.89-1.3-2.13-1.95-3.75-1.95-1.54,0-2.76.54-3.66,1.61-.87,1.04-1.3,2.42-1.3,4.12s.43,3.1,1.28,4.12c.89,1.08,2.11,1.61,3.67,1.61.8,0,1.53-.18,2.21-.55,1.19-.64,2.1-1.55,2.73-2.71"/>
          <path class="cls-2" d="M115.15,29.31c0,2.65-.72,4.8-2.15,6.43-1.43,1.63-3.35,2.44-5.77,2.44-1.01,0-1.98-.2-2.89-.59-1.53-.65-1.17-.53-2.09-1.25l.02,1.56-2.85-.04h0V13.46l2.88-.05v9.06c.97-.97,2.25-2.06,5.02-2.06,2.42,0,4.34.82,5.75,2.48,1.39,1.61,2.09,3.75,2.09,6.42M112.13,29.32c0-1.72-.43-3.06-1.28-4.1-.9-1.08-2.13-1.62-3.67-1.62-1.63,0-2.88.58-3.76,1.87-.78,1.15-1.17,2.65-1.17,4.5v1.78c.62,1.17,1.53,2.08,2.72,2.73.68.37,1.42.55,2.21.55,1.56,0,2.78-.54,3.67-1.61.85-1.03,1.28-2.37,1.28-4.1"/>
          <path class="cls-2" d="M145.01,21.07v2.99c.11,0-.68.1-1.74-.1-1.63-.31-2.56.12-3.5,1.3-1.02,1.29-1.23,2.96-1.23,5.09v7.66l-2.75-.09v-17.13h2.79v1.44c1.21-.82,1.64-1.42,4-1.51.19,0,.76.11,1.74.27l.69.09Z"/>
          <path class="cls-4" d="M190.76,23.69l-2.24,2.02c-.93-1.47-2.79-2.21-4.12-2.21-1.48,0-2.67.55-3.55,1.64-.84,1.06-1.26,2.45-1.26,4.16s.42,3.11,1.26,4.16c.87,1.09,2.05,1.63,3.55,1.63,1.33,0,2.99-.65,4.2-2.36l2.12,2.11c-1.74,2.31-4.07,3.26-6.2,3.26-2.36,0-4.26-.82-5.71-2.48-1.44-1.65-2.17-3.77-2.17-6.36s.73-4.73,2.17-6.38c1.44-1.66,3.35-2.48,5.71-2.48,2.17,0,4.7,1.39,6.23,3.27"/>
          <path class="cls-4" d="M174.39,28.7c0,.31-.19,1.64-.24,1.85l-12.49-.04c.48,2.03.51,2.03,1.71,3.3,1.19,1.27,1.66,1.09,3.59,1.23,1,.07,1.97-.26,2.98-.73,1.16-.54,1.27-.95,1.87-1.64l2.11,2.2c-1.51,1.7-4.11,3.13-7.08,3.13-2.43,0-4.55-.9-6.02-2.53-1.48-1.63-2.18-3.87-2.18-6.52s.85-4.57,2.3-6.23c1.45-1.66,3.37-2.31,5.73-2.31s3.99.67,5.45,2.27c1.46,1.61,2.27,3.5,2.27,6.02M171.22,27.57c-.13-1.26-.61-2.27-1.44-3.03-.83-.77-1.91-1.15-3.24-1.15s-2.41.38-3.25,1.15c-.84.76-1.33,1.77-1.45,3.03h9.38Z"/>
          <path class="cls-4" d="M208.85,37.89l-2.84-.02-.06-9.09c-.01-1.52-.16-2.82-.81-3.8-.69-1.03-1.63-1.5-2.77-1.5s-2.08.22-2.74,1.11c-.66.89-.95,2.27-.95,3.78v9.43l-1.52.04h-1.35v-17.16h2.93l-.02.88c.94-.47,1.34-1.05,3.53-1.08,2.04-.02,3.73.66,4.87,2.16,1.05,1.39,1.65,3.26,1.66,5.55l.08,9.69Z"/>
          <path class="cls-4" d="M227.71,29.32c0,2.59-.71,4.7-2.12,6.31-1.43,1.65-3.33,2.48-5.68,2.48s-4.25-.82-5.68-2.46c-1.44-1.64-2.16-3.75-2.16-6.32s.72-4.7,2.16-6.35c1.43-1.65,3.33-2.47,5.68-2.47s4.25.82,5.67,2.46c1.43,1.64,2.13,3.76,2.13,6.36M224.89,29.29c0-1.71-.44-3.08-1.31-4.14-.91-1.1-2.14-1.66-3.69-1.66s-2.79.51-3.7,1.6c-.88,1.05-1.32,2.48-1.32,4.19s.44,3.11,1.32,4.17c.91,1.08,2.14,1.62,3.7,1.62s2.77-.55,3.69-1.65c.87-1.06,1.31-2.44,1.31-4.14"/>
          <polygon class="cls-4" points="163.41 10.1 163.41 13.22 152.54 13.22 152.54 38.2 148.96 38.2 148.96 13.22 138.28 13.22 138.28 10.1 163.41 10.1"/>
          <rect class="cls-6" x="78.12" y="44.25" width="149.16" height="1.76"/>
          <path class="cls-6" d="M231.63,15.67h-.69v1.53h-.86v-4.18h1.55c.49,0,.87.11,1.14.33.27.22.4.53.4.93,0,.29-.06.52-.19.71-.12.19-.31.34-.56.45l.9,1.71v.04h-.92l-.78-1.53ZM230.94,14.97h.69c.22,0,.38-.05.5-.16.12-.11.18-.26.18-.46s-.06-.35-.17-.46c-.11-.11-.28-.17-.52-.17h-.69v1.25Z"/>
          <path class="cls-6" d="M231.58,19c-2.09,0-3.8-1.7-3.8-3.8s1.7-3.8,3.8-3.8,3.8,1.7,3.8,3.8-1.7,3.8-3.8,3.8M231.58,11.91c-1.81,0-3.29,1.48-3.29,3.29s1.48,3.29,3.29,3.29,3.29-1.48,3.29-3.29-1.48-3.29-3.29-3.29"/>
        </g>
      </g>
    </g>
  </g>
</svg>