<?xml version="1.0" encoding="UTF-8"?>
<svg id="Capa_2" data-name="Capa 2" xmlns="http://www.w3.org/2000/svg" viewBox="0 0 212.62 66.74">
  <defs>
    <style>
      .cls-1 {
        fill: #ce3d3f;
      }

      .cls-2 {
        fill: #244e65;
      }
    </style>
  </defs>
  <g id="Capa_1-2" data-name="Capa 1">
    <g>
      <g>
        <path class="cls-2" d="M11.34,1.75h-.82c-1.87,0-3.41.15-4.62.44-1.21.29-2.17.84-2.89,1.64-.72.8-1.23,1.89-1.52,3.27-.29,1.38-.44,3.19-.44,5.41H0c.08-2.03.13-3.99.15-5.9.02-1.91.07-3.86.15-5.85h28.94c.04,1.99.07,3.94.09,5.85.02,1.91.05,3.88.09,5.9h-.94c0-2.38-.16-4.28-.47-5.7-.31-1.42-.85-2.51-1.61-3.27-.76-.76-1.79-1.25-3.1-1.46-1.31-.21-2.99-.32-5.06-.32v37.01h3.98v.99H7.19v-.99h4.15V1.75Z"/>
        <path class="cls-2" d="M40.63,38.76h3.57v.99h-13.21v-.99h3.22V1.75h-3.22v-.99h16.9c1.29,0,2.55.16,3.8.47,1.25.31,2.35.83,3.3,1.55.95.72,1.73,1.68,2.34,2.86.6,1.19.91,2.68.91,4.47,0,1.36-.2,2.55-.61,3.57-.41,1.01-.96,1.88-1.67,2.6-.7.72-1.52,1.32-2.46,1.78-.94.47-1.93.82-2.98,1.05v.64c1.64.43,2.91,1.12,3.83,2.08.92.96,1.61,2.04,2.08,3.24.47,1.21.76,2.48.88,3.83.12,1.34.19,2.62.23,3.83.04.86.09,1.67.15,2.43.06.76.17,1.42.32,1.99.16.57.39,1.01.7,1.34.31.33.74.5,1.29.5.35,0,.68-.05.99-.15.31-.1.62-.2.94-.32.04,0,.08-.02.12-.06l.35.88c-.66.31-1.32.53-1.96.64-.64.12-1.3.18-1.96.18-1.72,0-3.06-.25-4.03-.76-.97-.51-1.72-1.21-2.25-2.1-.53-.9-.88-1.97-1.05-3.22-.18-1.25-.32-2.63-.44-4.15-.04-.47-.08-.95-.12-1.46-.04-.51-.1-1.03-.18-1.58-.2-1.68-.59-2.98-1.2-3.92-.6-.94-1.34-1.63-2.22-2.08-.88-.45-1.86-.72-2.95-.82-1.09-.1-2.22-.15-3.39-.15v18.82ZM40.63,1.75v17.25h1.87c1.09,0,2.17-.16,3.24-.47,1.07-.31,2.02-.81,2.84-1.49.82-.68,1.48-1.56,1.99-2.63.51-1.07.76-2.39.76-3.95,0-1.75-.23-3.2-.7-4.33-.47-1.13-1.11-2.02-1.93-2.66-.82-.64-1.77-1.09-2.86-1.34-1.09-.25-2.26-.38-3.51-.38h-1.7Z"/>
        <path class="cls-2" d="M64.72.76h14.56v.99h-4.21v37.01h4.21v.99h-14.56v-.99h3.68V1.75h-3.68v-.99Z"/>
        <path class="cls-2" d="M81.55,38.76c1.17,0,2.08-.03,2.75-.09.66-.06,1.14-.25,1.43-.58.29-.33.47-.84.53-1.52.06-.68.09-1.67.09-2.95V2.51l-.76-.76h-4.03v-.99h11.75l16.95,27.83V6.61c0-1.25-.03-2.2-.09-2.86-.06-.66-.2-1.14-.44-1.43s-.58-.46-1.02-.5c-.45-.04-1.06-.06-1.84-.06h-1.29v-.99h10.58v.99h-1.34c-.78,0-1.4.02-1.87.06-.47.04-.82.2-1.05.5s-.38.77-.44,1.43c-.06.66-.09,1.62-.09,2.86v33.44h-2.92L87.46,5.32v27.3c0,1.56.02,2.76.06,3.6.04.84.2,1.44.5,1.81.29.37.77.58,1.43.64.66.06,1.62.09,2.86.09v.99h-10.76v-.99Z"/>
        <path class="cls-2" d="M133.93,0c2.22,0,4.26.59,6.11,1.78,1.85,1.19,3.45,2.75,4.79,4.68,1.34,1.93,2.39,4.11,3.13,6.55.74,2.44,1.11,4.88,1.11,7.34s-.37,4.94-1.11,7.34c-.74,2.4-1.78,4.54-3.13,6.43-1.34,1.89-2.94,3.42-4.79,4.59-1.85,1.17-3.89,1.75-6.11,1.75s-4.33-.59-6.2-1.78c-1.87-1.19-3.47-2.76-4.79-4.71-1.33-1.95-2.36-4.15-3.1-6.61-.74-2.46-1.11-4.95-1.11-7.48s.4-4.81,1.2-7.19c.8-2.38,1.89-4.5,3.27-6.37,1.38-1.87,2.99-3.39,4.82-4.56,1.83-1.17,3.8-1.75,5.9-1.75ZM134.05.94c-1.25,0-2.32.32-3.22.96-.9.64-1.66,1.5-2.28,2.57-.62,1.07-1.12,2.28-1.49,3.62-.37,1.34-.66,2.73-.88,4.15-.21,1.42-.36,2.83-.44,4.21-.08,1.38-.12,2.62-.12,3.71s.03,2.39.09,3.77c.06,1.38.18,2.79.38,4.21.19,1.42.47,2.82.82,4.18.35,1.36.83,2.58,1.43,3.65.6,1.07,1.35,1.93,2.25,2.57.9.64,1.99.96,3.27.96s2.38-.33,3.27-.99c.9-.66,1.64-1.53,2.22-2.6.58-1.07,1.03-2.3,1.34-3.68.31-1.38.55-2.79.7-4.21.16-1.42.25-2.83.29-4.21.04-1.38.06-2.62.06-3.71,0-.97-.03-2.12-.09-3.45-.06-1.32-.19-2.69-.38-4.09-.2-1.4-.46-2.81-.79-4.21-.33-1.4-.79-2.65-1.37-3.74-.58-1.09-1.29-1.98-2.1-2.66-.82-.68-1.81-1.02-2.98-1.02Z"/>
        <path class="cls-2" d="M149.83.76h14.38v.99h-3.74l8.13,26.89c1.25-3.7,2.3-6.86,3.16-9.47.86-2.61,1.58-4.81,2.16-6.61.58-1.79,1.04-3.22,1.37-4.3.33-1.07.57-1.92.73-2.54.16-.62.25-1.08.29-1.37.04-.29.06-.54.06-.73,0-.51-.15-.89-.44-1.14-.29-.25-.66-.44-1.11-.56-.45-.12-.92-.18-1.4-.18h-1.43v-.99h10.76v.99h-.47c-.94,0-1.66.03-2.16.09-.51.06-.92.23-1.23.53-.31.29-.58.75-.82,1.37-.23.62-.53,1.48-.88,2.57l-11.46,34.96L152.93,1.75h-3.1v-.99Z"/>
        <path class="cls-2" d="M180.23,38.76c.86,0,1.56-.06,2.1-.18.55-.12.99-.33,1.34-.64.35-.31.64-.77.88-1.37.23-.6.51-1.37.82-2.31,1.68-5.69,3.37-11.37,5.09-17.04,1.71-5.67,3.43-11.35,5.14-17.04h1.99l12.45,38.58h2.57v.99h-13.97v-.99h3.92l-3.74-11.75h-10.17l-.41,1.17c-.2.58-.43,1.33-.7,2.22-.27.9-.54,1.79-.79,2.69-.25.9-.48,1.72-.67,2.46-.2.74-.29,1.25-.29,1.52,0,.47.18.82.56,1.05.37.23.81.4,1.32.5.51.1,1.02.15,1.55.15h1.37v.99h-10.35v-.99ZM188.94,26.02h9.59l-4.91-15.32-4.68,15.32Z"/>
      </g>
      <g>
        <path class="cls-1" d="M94.42,44.86c0,2.62-5.17,10.46-5.35,10.46l-.07.2c-.36,1.1-.65,1.98-.92,2.99.4-.61,2.77-4.05,4.13-4.05.26,0,.49.13.65.43.03.04.03.12.03.2,0,.48-.26,1.52-.26,2.25,0,.35.06.62.23.75.07.04.16.07.27.07.38,0,.97-.29,1.56-.58,1.01-.49,2.15-1.33,3.06-2.18.06-.06.12-.09.19-.09.14,0,.27.13.27.29,0,.07-.01.14-.07.22-.95.9-2.14,1.78-3.19,2.28-.59.29-1.16.46-1.62.46-.27,0-.52-.07-.72-.2-.39-.27-.49-.79-.49-1.36,0-.74.19-1.53.19-1.88v-.06s-.04-.04-.09-.04c-.66,0-4.41,4.51-4.7,5.64-.04.19-.16.27-.26.27-.16,0-.3-.14-.3-.32v-.07c.1-1.21.39-2.5.98-4.34.01-.06.03-.1.03-.16,0-.14-.04-.3-.04-.48,0-.1.01-.2.04-.3.09-.26.48-.62.55-.79,1.27-3.38,2.98-7.78,4.21-9.54.19-.29.71-.9,1.16-.9.12,0,.23.04.33.14.14.14.2.36.2.65ZM93.74,44.89c0-.13-.03-.22-.07-.27-.06.01-.3.14-.55.49-.97,1.34-3.14,7.17-3.67,8.6,1.46-2.25,4.29-7.46,4.29-8.82Z"/>
        <path class="cls-1" d="M98.42,54.27c-.03-.07-.03-.13-.03-.19,0-.12.04-.2.13-.27.07-.06.14-.09.23-.09.04,0,.09.01.14.03.25.1.42.33.52.72.33.36.81.66,1.78.74.51.04.97.06,1.37.06,1.52,0,2.31-.23,2.31-.25h.07c.16,0,.25.13.25.27s-.07.29-.2.33c0,0-.58.12-1.76.12-.52,0-1.16-.03-1.91-.09-.79-.07-1.3-.2-1.75-.4-.01,1.24-.48,3.19-1.56,3.96-.2.13-.45.22-.68.22-.12,0-.23-.01-.32-.06-.42-.17-.56-.59-.56-1.08,0-.66.26-1.45.43-1.84.23-.52,1.01-1.78,1.56-2.12-.01-.01-.03-.04-.03-.06ZM97.4,56.75c-.09.2-.35,1-.35,1.55,0,.25.04.43.2.49.03.01.06.01.09.01.68,0,1.52-3.11,1.52-3.9v-.09s-.07-.06-.1-.09c-.53.42-1.1,1.42-1.36,2.02Z"/>
        <path class="cls-1" d="M99.44,49.82c1.69,0,4.16-.1,7.39-.36,1.88-4.39,3.84-7.76,4.75-7.76h.03c.27.1.39.35.39.69,0,1.65-2.83,5.58-3.87,7.01,1.27-.09,9.86-.85,11.3-.85.1,0,.17,0,.2.01.06.09.09.16.09.23,0,.52-1.2.91-1.2.91-.06.03-.12.04-.17.04-.2,0-.36-.17-.36-.38,0-.06.01-.12.04-.17,0,0-6.76.29-10.12.56-1.17,1.63-4.87,10.32-4.87,14.35,0,1.18.33,1.98,1.14,2.05.17.01.25.13.25.25,0,.16-.13.33-.29.33-.03,0-.06,0-.09-.01-.84-.36-1.19-1.45-1.19-2.96,0-3.44,1.79-9.15,3.79-13.9-2.34.01-5.2.12-7.31.12-1.65,0-2.83-.07-2.92-.29-.01-.03-.03-.06-.03-.09,0-.19.32-.26.51-.26h.09c.22,0,.55.09.55.42.45.04,1.1.06,1.91.06ZM111.22,42.88c.09-.26.13-.42.13-.48,0-.01-.01-.03-.01-.03-.22,0-2.79,5.25-2.83,5.38.72-.88,2.36-3.86,2.72-4.87Z"/>
        <path class="cls-1" d="M110.68,54.63c0,1.21-1.95,1.99-2.36,2.15,0,.09-.01.19-.01.29,0,.35.06.75.23,1.01.19.29.51.42.91.42,1.99,0,5.98-3.01,6-3.02.06-.04.12-.06.17-.06.19,0,.35.17.35.35,0,.07-.04.14-.12.2-.03.01-3.92,2.82-6.29,2.82-.62,0-1.14-.19-1.46-.68-.27-.4-.38-.84-.38-1.26,0-.81.4-1.58.88-2.14.26-.3.55-.53.81-.68.2-.12.39-.17.58-.17.1,0,.2.01.29.06.2.09.35.27.38.55,0,.06.01.1.01.16ZM109.8,54.63s-.01-.04-.04-.04c-.29.04-.56.58-1.23,1.45.92-.8,1.27-1.27,1.27-1.4Z"/>
        <path class="cls-1" d="M114.19,63.08c0,.45.06.79.16,1.01.14.3.36.45.62.45,2.12,0,7.57-8.74,7.59-8.77.14-.22.3-.3.43-.3.16,0,.27.12.27.32h0s-5.72,8.96-8.34,8.96c-.39,0-.71-.2-.94-.66-.14-.3-.2-.78-.2-1.36,0-3.79,2.8-12.52,4.73-15.16.46-.79.92-1.46,1.32-1.92.45-.51.85-.79,1.18-.79h.01c.25.01.43.17.55.48.06.16.09.35.09.56,0,2.6-4.12,8.7-5.87,9.87-1.07,3.43-1.6,5.93-1.6,7.33ZM121.12,45.68c0-.07-.01-.13-.03-.17-.04-.09-.07-.13-.1-.13h-.01c-.14,0-.4.23-.74.61-.38.43-.81,1.07-1.26,1.84-.9,1.53-2.05,4.73-2.73,6.63.9-.82,4.87-7.24,4.87-8.77Z"/>
      </g>
    </g>
  </g>
</svg>