<?xml version="1.0" encoding="UTF-8"?>
<svg id="Capa_2" data-name="Capa 2" xmlns="http://www.w3.org/2000/svg" viewBox="0 0 244.58 47.93">
  <defs>
    <style>
      .cls-1 {
        fill: #244f65;
      }

      .cls-2 {
        fill: #cc3d3f;
      }
    </style>
  </defs>
  <g id="Capa_1-2" data-name="Capa 1">
    <g>
      <path class="cls-1" d="M219.94,23.55v-12.19h6.77v35.48h-6.77v-12.05l-7.86-12.32v24.38h-7.04v-16.66c0-.17-2.16-2.02-2.43-2.44.75-.93,2.22-1.76,2.42-3,.32-2.03.19-7.54.01-9.73-.09-1.16-.43-2.55-.81-3.66h7.72c2.78,3.97,4.99,8.44,7.99,12.19Z"/>
      <path class="cls-1" d="M166.85,25.98h8.4v17.2c0,.58-3.47,2.82-4.19,3.12-7.38,3.12-15.35-.47-16.12-8.82-.17-1.86.38-5.49-.06-6.98-.19-.63-2.65-2.51-2.65-2.76.48-.73,2.44-2.07,2.65-2.76.28-.94-.04-2.63.06-3.73.66-7.04,5.67-10.59,12.59-9.89,1.53.16,7.06,2.7,6.79,4.34-.07.44-2.46,4.59-2.72,4.59-3.86-5.61-9.34-5.15-9.9,2.3-.28,3.73-.24,9.55,0,13.3.22,3.43,1.15,6.66,5.27,6.05.36-.05,1.21-.23,1.39-.5.24-.36.18-6.24.14-7.2-.15-2.88-.54-5.58-1.64-8.25Z"/>
      <path class="cls-1" d="M36.83,11.36v6.5c-.71-.52-2.26-1.35-3.11-1.35h-6.09v9.48h7.31v5.15h-7.31v8.94c5.92.57,13.3,2.96,18.28-1.35,2.89,3.04,1.08,9.26-3.51,9.21-4.29-.04-10.6-1.91-15.21-2.41-2.19-.24-4.4-.36-6.6-.3v-14.49c0-.71-1.64-1.31-1.64-1.89,0-.32,1.22-1.66,1.43-2.38.67-2.27.16-9.77-.06-12.51-.07-.87-.41-1.72-.54-2.58h17.06Z"/>
      <path class="cls-1" d="M152.22,11.36v6.5c-.87-.2-2.24-1.35-3.11-1.35h-6.64v9.48h7.58v5.42h-7.58v10.29h6.64c.72,0,2.36-1.06,3.11-1.35v6.5h-16.52c-.4-9.77.53-19.95.01-29.67-.1-1.89-.41-3.97-.82-5.81h17.34Z"/>
      <path class="cls-1" d="M43.6,11.36v22.89c0,.55,1.52.91,1.58.99.19.21-.04,1.43.04,1.86-3.67-.12-5.9,0-6.24-4.19-.5-6.26.52-13.26.02-19.52-.06-.76-.2-1.35-.55-2.02h5.15Z"/>
      <path class="cls-1" d="M190.86,0c.48-.08,4.2,4.12,4.15,4.42-.82.72-7.48,4.82-7.94,4.73-.43-.08-1.58-1.65-2.06-1.99L190.86,0Z"/>
      <path class="cls-2" d="M4.23,24.92c.51-.09,3.72,3.64,4.43,4.18l-4.23,4.18c-.51.09-3.72-3.64-4.43-4.18l4.23-4.18Z"/>
      <path class="cls-2" d="M240.15,24.92c.51-.09,3.72,3.64,4.43,4.18l-4.23,4.18c-.51.09-3.72-3.64-4.43-4.18l4.23-4.18Z"/>
      <path class="cls-1" d="M62.29,46.84v-17.2c0-.22-1.65-1.28-1.64-1.9s1.45-.77,1.65-2.43c.29-2.53.2-7.96-.01-10.57-.09-1.08-.37-2.39-.81-3.39h13.41c1.36,0,4.31,1.85,5.13,3,1.75,2.43,1.99,7.78,1.1,10.54-.21.64-1.41,2.32-1.4,2.57.01.2,1.81,2.59,2.13,3.47,1.07,3.01.86,10.38-1.13,13.05-.83,1.11-3.68,2.84-5.01,2.84h-13.41ZM73.81,41.69c1.28,0,1.68-1.54,1.77-2.56.14-1.5.19-5.36-.03-6.77-.09-.61-.91-1.78-1.47-1.78h-4.74v11.11h4.47ZM73.54,25.17c1.56,0,1.47-6.46,1.01-7.52-.71-1.67-3.73-1.04-5.21-1.15v8.67h4.2Z"/>
      <path class="cls-1" d="M111.59,46.84v-16.93c0-.15-1.91-1.79-2.16-2.17.53-.73,2-1.6,2.16-2.44.34-1.78.17-8.24,0-10.28-.1-1.24-.49-2.47-.81-3.66h14.22c.28,0,2.14.77,2.54.98,2.88,1.48,3.87,4.16,4.1,7.27.39,5.22.34,13.46,0,18.71-.2,3.13-1.04,6.13-4.07,7.58-.54.26-2.38.94-2.85.94h-13.14ZM118.36,16.91v24.38s.38.41.41.41h4.33c1.37,0,1.66-2.07,1.76-3.12.44-4.94.35-13.42.02-18.43-.07-1.01-.4-3.64-1.77-3.64h-4.33c-.09.14-.41.33-.41.41Z"/>
      <path class="cls-1" d="M188.19,11.43c5.1-.62,9.94,1.15,11.84,6.16,1.43,3.77,1.3,15.29.96,19.64-1.06,13.59-20.47,13.72-21.67.26-.15-1.73.35-5.05-.06-6.44-.23-.76-2.44-2.22-2.9-3.07-.1-.6,2.54-2.38,2.84-3.33.35-1.13.03-2.84.19-4.14.59-4.71,4.05-8.49,8.81-9.07ZM186.16,21.59c-.36,2.97-.45,14.89.33,17.4,1.38,4.45,6.23,4.15,7.38-.48.7-2.81.68-15.7-.05-18.5-.46-1.77-1.97-3.68-4.01-3.46-2.38.27-3.41,2.98-3.65,5.04Z"/>
      <path class="cls-1" d="M88.93,44.58c-1.73-1.7-2.9-4.67-3.08-7.07-.15-1.9.4-5.75-.05-7.27-.22-.74-2.12-1.76-2.12-2.49s1.09-1.05,1.48-1.51c1.2-1.42.52-3.98.73-5.77,1.43-12.33,20.59-12.85,21.65,1.31.32,4.22.46,15.53-.88,19.18-2.58,6.98-12.68,8.59-17.72,3.62ZM92.64,21.79c-.28,2.99-.38,14.78.4,17.19,1.1,3.39,5.01,4.46,6.74,1.06,1.45-2.84,1.28-15.86.71-19.34-.48-2.95-3.33-5.85-6.14-3.29-.98.89-1.59,3.09-1.71,4.38Z"/>
    </g>
  </g>
</svg>