<?xml version="1.0" encoding="UTF-8"?>
<svg id="Capa_2" data-name="Capa 2" xmlns="http://www.w3.org/2000/svg" viewBox="0 0 246.9 64.99">
  <defs>
    <style>
      .cls-1, .cls-2, .cls-3, .cls-4, .cls-5, .cls-6, .cls-7, .cls-8, .cls-9, .cls-10, .cls-11 {
        fill-rule: evenodd;
      }

      .cls-1, .cls-12 {
        fill: #575756;
      }

      .cls-2 {
        fill: #009592;
      }

      .cls-3 {
        fill: #f6d145;
      }

      .cls-4 {
        fill: #c28e1b;
      }

      .cls-5 {
        fill: #006159;
      }

      .cls-6 {
        fill: #dd2760;
      }

      .cls-7 {
        fill: #e0426c;
      }

      .cls-13 {
        fill: none;
        stroke: #ae254d;
        stroke-miterlimit: 22.93;
        stroke-width: .07px;
      }

      .cls-8 {
        fill: #ae254d;
      }

      .cls-9 {
        fill: #f0c115;
      }

      .cls-10 {
        fill: #007c75;
      }

      .cls-11 {
        fill: #00a6a5;
      }
    </style>
  </defs>
  <g id="Capa_1-2" data-name="Capa 1">
    <g>
      <path class="cls-1" d="M191.32,33.36V11.96h-6.36V1.55h24.16v10.41h-6.36v18.85c0,1.4-1.15,2.55-2.55,2.55h-8.88ZM165.73,33.36V11.96h-6.36v-6.96c.23-1.93,1.89-3.44,3.88-3.44h.95s19.33,0,19.33,0v10.41h-6.36v21.4h-11.43ZM93.86,30.65l3.65-8.91c1.64,1.14,3.09,1.98,4.38,2.51,1.28.53,2.48.79,3.6.79.79,0,1.4-.15,1.85-.44.45-.3.67-.7.67-1.21,0-.88-1.12-1.56-3.37-2.02-.73-.16-1.29-.28-1.7-.37-2.37-.58-4.19-1.61-5.45-3.09-1.26-1.48-1.89-3.31-1.89-5.52,0-3.42,1.22-6.2,3.67-8.34,2.45-2.14,5.66-3.22,9.63-3.22,1.83,0,3.63.24,5.39.72,1.77.47,3.55,1.2,5.35,2.17l-3.48,8.32c-1.1-.81-2.2-1.43-3.32-1.86-1.11-.42-2.18-.64-3.23-.64-.79,0-1.41.13-1.85.4-.44.27-.65.65-.65,1.12,0,.9,1.59,1.69,4.76,2.37.5.12.9.21,1.17.27,2.19.49,3.91,1.5,5.17,3.02,1.26,1.52,1.89,3.36,1.89,5.52,0,3.52-1.27,6.39-3.81,8.63-2.54,2.23-5.85,3.34-9.92,3.34-2.08,0-4.17-.3-6.25-.89-2.09-.59-4.18-1.48-6.26-2.67ZM66.67,30.65l3.65-8.91c1.64,1.14,3.09,1.98,4.38,2.51,1.28.53,2.48.79,3.6.79.79,0,1.4-.15,1.85-.44.45-.3.67-.7.67-1.21,0-.88-1.12-1.56-3.37-2.02-.73-.16-1.29-.28-1.7-.37-2.37-.58-4.19-1.61-5.45-3.09-1.26-1.48-1.89-3.31-1.89-5.52,0-3.42,1.22-6.2,3.67-8.34,2.45-2.14,5.66-3.22,9.63-3.22,1.83,0,3.63.24,5.39.72,1.77.47,3.55,1.2,5.35,2.17l-3.48,8.32c-1.1-.81-2.2-1.43-3.32-1.86-1.11-.42-2.18-.64-3.23-.64-.79,0-1.41.13-1.85.4-.44.27-.65.65-.65,1.12,0,.9,1.59,1.69,4.76,2.37.5.12.9.21,1.17.27,2.19.49,3.91,1.5,5.17,3.02,1.26,1.52,1.89,3.36,1.89,5.52,0,3.52-1.27,6.39-3.81,8.63-2.54,2.23-5.85,3.34-9.92,3.34-2.08,0-4.17-.3-6.25-.89-2.09-.59-4.18-1.48-6.26-2.67ZM0,33.36V7.32h.04c-.03-.18-.04-.36-.04-.54h0v-1.32C0,3.31,1.76,1.55,3.91,1.55h10.48c4.17,0,7.36.92,9.56,2.76,2.2,1.84,3.3,4.49,3.3,7.95,0,2.26-.56,4.12-1.66,5.58-1.11,1.47-2.6,2.32-4.49,2.57l8.49,12.95h-12.82l-5.56-10.49v10.49H0ZM11.21,9.74v6.21h1.78c1.09,0,1.92-.27,2.51-.79.59-.53.88-1.28.88-2.27s-.3-1.79-.88-2.34c-.59-.54-1.42-.82-2.51-.82h-1.78Z"/>
      <path class="cls-12" d="M241.48,40.77c.24,0,.47.02.69.07.22.04.44.11.66.2.21.09.41.2.6.32.19.13.37.28.53.44h0s0,0,0,0h0s.09.09.13.14c.04.05.08.09.12.15.2.25.37.53.49.84h0c.09.21.15.43.19.65.04.22.07.45.07.69h0c0,.24-.02.47-.06.69h0c-.04.22-.11.44-.19.65h0s0,0,0,0h0c-.02.06-.05.12-.08.17h0c-.03.06-.06.11-.09.17-.15.28-.35.54-.59.77h0s0,0,0,0h0s-.1.09-.15.14c-.05.04-.1.09-.15.13h0c-.26.21-.55.38-.86.51h0s0,0,0,0c-.06.02-.12.05-.18.07-.06.02-.13.04-.18.06h0c-.31.09-.63.14-.96.14-.23,0-.46-.02-.68-.07-.22-.04-.43-.11-.65-.2h0c-.21-.09-.41-.2-.6-.33-.19-.13-.37-.28-.53-.44h0c-.17-.17-.31-.34-.44-.53-.13-.19-.24-.39-.32-.6-.09-.21-.15-.43-.2-.65-.04-.22-.07-.45-.07-.68s.02-.46.07-.68h0c.04-.22.11-.44.2-.65.09-.21.2-.42.33-.61.13-.19.28-.37.44-.54h0s0,0,0,0h0s.09-.09.14-.13h0s.1-.08.14-.12c.25-.2.53-.37.83-.49h0c.06-.03.12-.05.18-.07h0c.06-.02.12-.04.18-.06.31-.09.64-.13.98-.13M244.36,44.26c0-.39-.07-.76-.22-1.11h0s0,0,0,0h0s-.04-.09-.06-.14c-.02-.05-.05-.09-.07-.14h0c-.13-.23-.29-.45-.48-.64h0s0,0,0,0c-.04-.04-.08-.08-.12-.11-.04-.04-.08-.07-.12-.1-.21-.17-.45-.31-.7-.41-.18-.07-.36-.13-.54-.16-.19-.04-.38-.05-.57-.05h0c-.19,0-.38.02-.57.05h0s0,0,0,0c-.04,0-.07.01-.09.02-.15.03-.3.08-.44.14h0c-.17.07-.34.16-.49.26-.15.1-.3.22-.43.35h0c-.14.14-.26.29-.37.45-.11.16-.2.33-.27.5h0c-.02.06-.04.11-.06.15h0c-.02.05-.03.1-.05.15-.08.26-.11.52-.11.79h0s0,0,0,0c0,.19.02.37.06.55l.02.09c.04.15.08.3.14.44h0s0,0,0,0h0c.02.05.04.1.07.14.02.05.05.09.07.14.13.23.3.45.49.65.14.14.28.26.44.36.16.11.32.19.5.27h0c.18.08.35.13.53.17.18.04.37.05.56.05h0c.19,0,.37-.02.56-.06.02,0,.05-.01.09-.02.15-.04.3-.09.45-.15h0s0,0,0,0c.05-.02.1-.04.15-.07.05-.02.1-.05.14-.07h0c.24-.13.46-.3.66-.5h0c.14-.13.26-.28.36-.43.1-.15.19-.31.26-.48.07-.17.12-.35.16-.53.04-.18.05-.37.05-.57ZM241.58,42.13h0c.28,0,.53.02.74.07.03,0,.07.02.1.02h0c.17.05.32.11.44.19h0c.15.1.26.23.34.39h0c.07.15.11.33.11.54h0s0,0,0,0c0,.15-.02.29-.07.42,0,.02-.02.04-.03.06h0c-.05.11-.11.2-.19.29h0s0,0,0,0h0s-.06.06-.08.08h0s-.06.05-.09.07h0c-.12.08-.25.14-.4.18l.8,1.64.09.19h-.9l-.04-.08-.8-1.65h-.76v1.73h-.8v-4.16h1.54ZM241.48,42.76h-.64v1.16h.64c.22,0,.39-.01.54-.04.13-.02.23-.06.3-.1h0s0,0,0,0h0s.03-.02.05-.04h0s.03-.03.04-.05c.07-.09.1-.22.1-.38h0s0,0,0,0c0-.09-.02-.18-.06-.24h0s-.01-.02-.02-.03c-.03-.05-.08-.1-.14-.13h0s0,0,0,0c-.02-.01-.05-.02-.07-.04-.03-.01-.06-.02-.09-.03h0c-.16-.05-.38-.08-.65-.08h0Z"/>
      <path class="cls-1" d="M232.13,52.4c0,.28.06.51.18.69.12.18.28.33.48.44.2.11.43.2.7.28.27.07.54.14.82.19.39.09.76.18,1.1.29.35.1.67.26.96.47.3.21.53.5.71.85.18.36.27.82.27,1.39,0,.52-.1.98-.3,1.38-.2.4-.49.74-.86,1.01-.37.27-.81.48-1.32.62-.51.14-1.08.21-1.69.21-.38,0-.72-.02-1.02-.06-.31-.04-.58-.09-.82-.15-.23-.06-.43-.12-.6-.19-.17-.07-.31-.13-.41-.18v-1.39c.43.17.85.31,1.27.41.42.1.88.15,1.39.15.4,0,.76-.04,1.08-.11.32-.07.6-.18.82-.32.23-.14.41-.32.54-.54.12-.21.18-.46.18-.74s-.06-.53-.17-.71c-.11-.19-.27-.34-.46-.47-.19-.13-.41-.23-.67-.3-.26-.08-.52-.15-.8-.22-.36-.08-.73-.17-1.11-.28-.37-.11-.71-.26-1.02-.46-.31-.2-.55-.46-.74-.8-.19-.34-.28-.77-.28-1.3s.1-1.01.29-1.41c.2-.4.46-.73.8-.98.33-.26.72-.46,1.16-.58.44-.13.91-.2,1.4-.2.57,0,1.1.05,1.59.16.49.11.93.24,1.33.41v1.41c-.43-.16-.85-.29-1.29-.39-.44-.1-.88-.16-1.34-.16-.39,0-.72.04-1,.12-.27.08-.5.19-.68.33-.18.14-.31.31-.39.5-.08.19-.12.4-.12.64M211.89,55.43c-.31-.09-.68-.17-1.1-.25-.43-.08-.9-.12-1.41-.13-.71,0-1.27.15-1.68.45-.4.31-.61.77-.61,1.41,0,.32.05.6.15.84.1.24.24.44.42.59.17.16.38.27.63.35.24.08.5.11.77.11.36,0,.7-.05,1.01-.16.31-.1.58-.23.83-.37.24-.14.45-.29.62-.44.17-.14.3-.26.37-.34v-2.06ZM211.98,58.81h-.04c-.14.17-.31.35-.52.52-.21.17-.46.32-.73.45-.28.14-.58.24-.9.32-.33.08-.67.12-1.04.12-.5,0-.96-.07-1.37-.22-.42-.15-.78-.37-1.08-.65-.3-.28-.53-.63-.7-1.04-.17-.41-.25-.88-.25-1.39s.09-.97.28-1.38c.18-.4.44-.75.78-1.03.33-.28.73-.5,1.2-.65.47-.15.98-.23,1.55-.23.54,0,1.03.06,1.49.14.46.09.86.2,1.21.33h.04v-.71c0-.28-.02-.53-.06-.75-.03-.21-.1-.41-.18-.57-.19-.35-.49-.63-.9-.86-.41-.23-.97-.34-1.67-.34-.52,0-1.01.05-1.47.14-.46.1-.91.23-1.37.39v-1.39c.17-.09.38-.17.61-.24.24-.07.48-.14.74-.19.26-.06.53-.1.83-.12.29-.03.58-.04.87-.04,1.04,0,1.89.18,2.55.55.66.37,1.14.86,1.43,1.47.11.23.18.48.23.76.05.28.07.58.07.92v6.87h-1.41l-.18-1.14ZM186.79,59.95v-10.3h1.69v10.3h-1.69ZM170.78,51.03h-.13c-.4,0-.79.04-1.17.11-.38.07-.74.19-1.08.33-.34.15-.64.33-.91.54-.27.22-.5.47-.68.77v7.17h-1.69v-10.3h1.31l.33,1.64h.03c.17-.27.37-.51.61-.74.24-.23.51-.43.82-.61.3-.17.64-.31,1-.41.36-.1.74-.14,1.14-.14.07,0,.15,0,.22,0,.08,0,.14.01.2.02v1.62ZM144.85,58.75c.55,0,1.06-.04,1.52-.13.46-.09.92-.21,1.37-.38v1.39c-.37.18-.82.32-1.37.43-.54.1-1.12.16-1.75.16-.74,0-1.43-.09-2.08-.28-.65-.19-1.21-.49-1.68-.91-.47-.42-.84-.97-1.11-1.64-.27-.67-.4-1.49-.4-2.44s.13-1.75.39-2.44c.26-.69.61-1.27,1.04-1.73.43-.46.93-.81,1.49-1.04.56-.23,1.15-.35,1.76-.35.58,0,1.12.1,1.62.29.5.19.94.49,1.31.91.37.41.66.94.87,1.59.21.65.32,1.43.32,2.34v.22c0,.06,0,.2-.01.42h-7.12c0,.65.1,1.21.3,1.67.2.46.47.83.81,1.11.34.28.74.49,1.21.62.46.13.96.2,1.5.2ZM143.97,50.83c-.39,0-.75.08-1.09.23-.33.15-.63.36-.87.62-.25.26-.45.57-.61.92-.15.35-.25.72-.28,1.12h5.28c0-.41-.05-.78-.16-1.13-.11-.35-.26-.66-.47-.92-.2-.26-.46-.47-.76-.61-.3-.15-.65-.22-1.04-.22ZM124.07,51.03h-.13c-.4,0-.79.04-1.17.11-.38.07-.74.19-1.08.33-.34.15-.64.33-.91.54-.27.22-.5.47-.68.77v7.17h-1.69v-10.3h1.31l.33,1.64h.03c.17-.27.37-.51.61-.74.24-.23.51-.43.82-.61.3-.17.64-.31,1-.41.36-.1.74-.14,1.14-.14.07,0,.15,0,.22,0,.08,0,.14.01.2.02v1.62ZM96.9,60.22c-.54,0-1.02-.06-1.45-.17-.43-.11-.8-.28-1.12-.49-.32-.21-.6-.46-.82-.75-.22-.29-.4-.61-.53-.96-.1-.26-.17-.54-.21-.85-.04-.31-.07-.65-.07-1.02v-6.32h1.69v6.32c0,.57.08,1.05.23,1.43.17.43.45.77.84,1.02.39.25.88.37,1.48.37.64,0,1.15-.14,1.54-.41.39-.28.67-.64.83-1.11.12-.35.18-.79.18-1.31v-6.32h1.69v6.33c0,.34-.02.67-.06.97-.04.3-.1.58-.19.83-.13.36-.31.68-.54.98-.23.3-.51.56-.84.77-.33.22-.72.38-1.16.51-.44.12-.93.18-1.48.18ZM76.44,59.97c-.14.06-.37.11-.66.16-.3.05-.65.08-1.06.08-.54,0-1.01-.07-1.41-.2-.4-.13-.73-.33-1-.57-.26-.25-.46-.55-.59-.91-.13-.36-.2-.75-.2-1.18v-6.26h-1.98v-1.44h1.98v-2.82h1.69v2.82h3.08v1.44h-3.08v6c0,.24.03.46.1.66.07.2.18.38.33.53.15.15.34.26.57.34.23.09.51.13.83.13.23,0,.46-.02.71-.06.25-.03.48-.08.69-.14v1.41ZM46.79,51.08h.03c.19-.24.4-.46.63-.67.23-.2.48-.38.77-.54.28-.16.59-.28.93-.36.34-.08.7-.13,1.1-.13.47,0,.91.07,1.32.2.41.13.77.34,1.07.63.3.29.54.67.72,1.13.18.47.27,1.04.27,1.72v6.89h-1.69v-6.62c0-.89-.17-1.52-.51-1.92-.34-.39-.84-.58-1.5-.58-.58,0-1.14.16-1.68.48-.54.32-1.01.76-1.4,1.32v7.32h-1.69v-10.3h1.3l.33,1.43ZM25.97,47.26v-1.86h1.69v1.86h-1.69ZM26.01,59.95v-10.3h1.69v10.3h-1.69ZM9.12,54.68c0,.71-.07,1.35-.21,1.9-.14.55-.33,1.03-.56,1.45-.23.41-.5.75-.81,1.03-.31.28-.63.5-.97.67-.33.17-.67.29-1.01.37-.34.08-.67.11-.97.11-.63,0-1.18-.1-1.64-.31-.46-.21-.88-.51-1.25-.92h-.03v6H0v-15.34h1.27l.36,1.17h.03c.1-.14.21-.28.36-.42.15-.14.35-.28.6-.44.25-.16.55-.29.9-.4.35-.11.73-.17,1.14-.17.58,0,1.14.1,1.68.29.54.2,1.01.51,1.42.93.41.43.74.97.99,1.64.25.67.37,1.48.37,2.43ZM7.37,54.71c0-.6-.06-1.14-.19-1.62-.13-.47-.31-.88-.57-1.22-.26-.34-.57-.6-.94-.78-.37-.18-.8-.27-1.28-.27-.35,0-.67.05-.95.14-.28.09-.54.21-.78.36-.23.14-.43.3-.6.47-.17.16-.3.31-.4.44v5.39c.36.36.76.65,1.21.86.46.21.94.32,1.47.32.32,0,.66-.06,1.01-.18.36-.12.68-.33.98-.64.3-.31.55-.73.75-1.25.2-.53.29-1.2.29-2.02Z"/>
      <path class="cls-1" d="M48.62,1.12c9.25,0,16.74,7.5,16.74,16.74s-7.5,16.74-16.74,16.74-16.74-7.5-16.74-16.74S39.38,1.12,48.62,1.12"/>
      <path class="cls-11" d="M40.21,5.44c1.45.66-3.4,3.03-4.49,4.53.46.8-.08,1.45-.45,2.34-1.12,2.64-1.35,5.76-.82,8.52.53,2.74,1.8,4.47,3.34,6.55.48.65.77.9,1.38,1.45l.83.38.04-.73c-3.35-3.85-5.2-5.89-4.8-11.54.29-4.17,2.51-8.11,6.03-10.4,2.29-3.14,11.82-2.81,14.44-.07-5.63-1.69-9.66-2.31-14.23,2.21-3.39,3.34-4.95,9.5-2.98,13.91,10.07,9.25,9.07,4.52,16.25,1.98,7.67-2.71,1.66-18.21,1.87-18.56-1.95-1.21-5.21-2.68-7.56-2.68-3.54,0-5.32.38-8.84,2.12"/>
      <path class="cls-2" d="M38.49,22.59v1.1c.95.37,1.87,2.31,2.75,3.21,3.72,3.87,9.39,4.26,13.1,2.57,5.99-2.7,5.45-14.15,7.02-15.72.53,1.23.11,1.62,1.17,2.17.03-.16.05-.34.06-.52-.55-2.64-3.26-8.36-5.98-9.39-.21.35,5.8,15.84-1.87,18.56-7.18,2.54-6.18,7.28-16.25-1.98"/>
      <path class="cls-10" d="M40.03,28.48c3.8,1.42,4.51,3.34,9.66,2.76-3.3.43-11.28-3.87-11.21-7.55-2.16-.82-1.7-7.56-1.15-9.57,1.18-4.28,3.52-4.78,4.88-7.35l-.96-.23c-3.52,2.29-5.74,6.22-6.03,10.4-.39,5.65,1.45,7.69,4.8,11.54"/>
      <path class="cls-5" d="M52.97,32.3c-3.95-.2-6.15,1.84-13.02-2.51l-.98-.94c-.62-.55-.91-.81-1.39-1.47-1.56-2.1-2.84-3.85-3.37-6.62-.53-2.79-.3-5.93.83-8.6.38-.89.92-1.55.45-2.36-1.36,2.63-2.55,6.39-2.45,9.44.07,1.78,1.34,6.43,3.03,8.44,1.1,1.32,5.45,4.27,7.14,4.85,1,.35,3.86,1.2,4.87,1.04.63-.1.39-.15,1.3-.32.4-.08.89-.11,1.3-.17,1.09-.13,1.61-.15,2.27-.78"/>
      <path class="cls-10" d="M54.88,31.98c1.5-.36,2.79-1.2,4.03-2.12-.61-.93-3.37.77-4.03,2.12"/>
      <path class="cls-10" d="M38.48,23.69c-.08,3.69,7.91,7.98,11.21,7.55-5.15.58-5.86-1.34-9.66-2.76l-.04.73-.83-.38.97.93c6.8,4.3,8.98,2.29,12.89,2.49l.93-.31c1.01-2,2.14-1.53,4.47-3.66.83-.76,1.57-1.62,2.19-2.57.22-.36.45-.75.69-1.18.34-.61.74-1.57,1.07-2.65.33-1.18.51-2.42.51-3.71,0-.66-.05-1.3-.14-1.93-.06-.12-.13-.23-.21-.33-1.05-.55-.64-.93-1.17-2.17-1.58,1.57-1.03,13.02-7.02,15.72-3.71,1.69-9.38,1.29-13.1-2.57-.88-.9-1.8-2.84-2.76-3.21"/>
      <path class="cls-10" d="M41.26,6.54l.96.23c-1.36,2.56-3.7,3.06-4.88,7.35-.56,2.01-1.01,8.76,1.15,9.57v-1.1c-1.96-4.4-.4-10.57,2.99-13.91,4.57-4.51,8.6-3.9,14.23-2.21-2.62-2.74-12.15-3.07-14.44.07"/>
      <path class="cls-12" d="M60.98,5.42c-3.17-3.17-7.56-5.14-12.4-5.14s-9.23,1.96-12.4,5.14c-3.17,3.17-5.14,7.56-5.14,12.4s1.96,9.22,5.14,12.4c3.17,3.17,7.56,5.14,12.4,5.14s9.22-1.96,12.4-5.14c3.17-3.17,5.14-7.56,5.14-12.4s-1.96-9.23-5.14-12.4M48.58,0c4.92,0,9.37,1.99,12.6,5.22,3.22,3.22,5.22,7.68,5.22,12.6s-1.99,9.37-5.22,12.6c-3.22,3.22-7.68,5.22-12.6,5.22s-9.37-1.99-12.6-5.22c-3.22-3.22-5.22-7.68-5.22-12.6s1.99-9.37,5.22-12.6c3.22-3.22,7.68-5.22,12.6-5.22Z"/>
      <path class="cls-11" d="M37.35,7.04c1.27-.3,1.45-.16,2.19-.68,1-.71-1-1.78-2.19.68"/>
      <path class="cls-1" d="M140.53,1.12c9.25,0,16.74,7.5,16.74,16.74s-7.5,16.74-16.74,16.74-16.74-7.5-16.74-16.74,7.5-16.74,16.74-16.74"/>
      <path class="cls-3" d="M132.12,5.44c1.45.66-3.4,3.03-4.49,4.53.46.8-.08,1.45-.45,2.34-1.12,2.64-1.35,5.76-.82,8.52.53,2.74,1.8,4.47,3.34,6.55.48.65.77.9,1.38,1.45l.83.38.04-.73c-3.35-3.85-5.2-5.89-4.8-11.54.29-4.17,2.51-8.11,6.03-10.4,2.29-3.14,11.82-2.81,14.44-.07-5.63-1.69-9.66-2.31-14.23,2.21-3.39,3.34-4.95,9.5-2.98,13.91,10.07,9.25,9.07,4.52,16.25,1.98,7.67-2.71,1.66-18.21,1.87-18.56-1.95-1.21-5.21-2.68-7.56-2.68-3.54,0-5.32.38-8.84,2.12"/>
      <path class="cls-9" d="M130.4,22.59v1.1c.95.37,1.87,2.31,2.75,3.21,3.72,3.87,9.39,4.26,13.1,2.57,5.99-2.7,5.45-14.15,7.02-15.72.53,1.23.11,1.62,1.17,2.17.03-.16.05-.34.06-.52-.55-2.64-3.26-8.36-5.98-9.39-.21.35,5.8,15.84-1.87,18.56-7.18,2.54-6.18,7.28-16.25-1.98"/>
      <path class="cls-4" d="M131.94,28.48c3.8,1.42,4.51,3.34,9.66,2.76-3.3.43-11.28-3.87-11.21-7.55-2.16-.82-1.7-7.56-1.15-9.57,1.18-4.28,3.52-4.78,4.88-7.35l-.96-.23c-3.52,2.29-5.74,6.22-6.03,10.4-.39,5.65,1.45,7.69,4.8,11.54"/>
      <path class="cls-9" d="M144.88,32.3c-3.95-.2-6.15,1.84-13.02-2.51l-.98-.94c-.62-.55-.91-.81-1.39-1.47-1.56-2.1-2.84-3.85-3.37-6.62-.53-2.79-.3-5.93.83-8.6.38-.89.92-1.55.45-2.36-1.36,2.63-2.55,6.39-2.45,9.44.07,1.78,1.34,6.43,3.03,8.44,1.1,1.32,5.45,4.27,7.14,4.85,1,.35,3.86,1.2,4.87,1.04.63-.1.39-.15,1.3-.32.4-.08.89-.11,1.3-.17,1.09-.13,1.61-.15,2.27-.78"/>
      <path class="cls-9" d="M146.79,31.98c1.5-.36,2.79-1.2,4.03-2.12-.61-.93-3.37.77-4.03,2.12"/>
      <path class="cls-4" d="M130.39,23.69c-.08,3.69,7.9,7.98,11.21,7.55-5.15.58-5.86-1.34-9.66-2.76l-.04.73-.83-.38.97.93c6.8,4.3,8.98,2.29,12.89,2.49l.93-.31c1.01-2,2.14-1.53,4.47-3.66.83-.76,1.57-1.62,2.19-2.57.22-.36.45-.75.69-1.18.34-.61.74-1.57,1.07-2.65.33-1.18.51-2.42.51-3.71,0-.66-.05-1.3-.14-1.93-.06-.12-.13-.23-.21-.33-1.05-.55-.64-.93-1.17-2.17-1.58,1.57-1.03,13.02-7.02,15.72-3.71,1.69-9.38,1.29-13.1-2.57-.88-.9-1.8-2.84-2.76-3.21"/>
      <path class="cls-4" d="M133.17,6.54l.96.23c-1.36,2.56-3.7,3.06-4.88,7.35-.56,2.01-1.01,8.76,1.15,9.57v-1.1c-1.96-4.4-.4-10.57,2.99-13.91,4.57-4.51,8.6-3.9,14.23-2.21-2.62-2.74-12.15-3.07-14.44.07"/>
      <path class="cls-12" d="M152.89,5.42c-3.17-3.17-7.56-5.14-12.4-5.14s-9.23,1.96-12.4,5.14c-3.17,3.17-5.14,7.56-5.14,12.4s1.96,9.22,5.14,12.4c3.17,3.17,7.56,5.14,12.4,5.14s9.22-1.96,12.4-5.14c3.17-3.17,5.14-7.56,5.14-12.4s-1.96-9.23-5.14-12.4M140.49,0c4.92,0,9.37,1.99,12.6,5.22,3.22,3.22,5.22,7.68,5.22,12.6s-1.99,9.37-5.22,12.6c-3.22,3.22-7.68,5.22-12.6,5.22s-9.37-1.99-12.6-5.22c-3.22-3.22-5.22-7.68-5.22-12.6s1.99-9.37,5.22-12.6c3.22-3.22,7.68-5.22,12.6-5.22Z"/>
      <path class="cls-9" d="M129.26,7.04c1.27-.3,1.45-.16,2.19-.68,1-.71-1-1.78-2.19.68"/>
      <path class="cls-1" d="M229.12,1.12c9.25,0,16.74,7.5,16.74,16.74s-7.5,16.74-16.74,16.74-16.74-7.5-16.74-16.74,7.5-16.74,16.74-16.74"/>
      <path class="cls-7" d="M220.71,5.44c1.45.66-3.4,3.03-4.49,4.53.46.8-.08,1.45-.45,2.34-1.12,2.64-1.35,5.76-.82,8.52.53,2.74,1.8,4.47,3.34,6.55.48.65.77.9,1.38,1.45l.83.38.04-.73c-3.35-3.85-5.2-5.89-4.8-11.54.29-4.17,2.51-8.11,6.03-10.4,2.29-3.14,11.82-2.81,14.44-.07-5.63-1.69-9.66-2.31-14.23,2.21-3.39,3.34-4.95,9.5-2.98,13.91,10.07,9.25,9.07,4.52,16.25,1.98,7.67-2.71,1.66-18.21,1.87-18.56-1.95-1.21-5.21-2.68-7.56-2.68-3.54,0-5.32.38-8.84,2.12"/>
      <path class="cls-6" d="M218.99,22.59v1.1c.95.37,1.87,2.31,2.75,3.21,3.72,3.87,9.39,4.26,13.1,2.57,5.99-2.7,5.45-14.15,7.02-15.72.53,1.23.11,1.62,1.17,2.17.03-.16.05-.34.06-.52-.55-2.64-3.26-8.36-5.98-9.39-.21.35,5.8,15.84-1.87,18.56-7.18,2.54-6.18,7.28-16.25-1.98"/>
      <path class="cls-8" d="M220.53,28.48c3.8,1.42,4.51,3.34,9.66,2.76-3.3.43-11.28-3.87-11.21-7.55-2.16-.82-1.7-7.56-1.15-9.57,1.18-4.28,3.52-4.78,4.88-7.35l-.96-.23c-3.52,2.29-5.74,6.22-6.03,10.4-.39,5.65,1.45,7.69,4.8,11.54"/>
      <path class="cls-6" d="M233.47,32.3c-3.95-.2-6.15,1.84-13.02-2.51l-.98-.94c-.62-.55-.91-.81-1.39-1.47-1.56-2.1-2.84-3.85-3.37-6.62-.53-2.79-.3-5.93.83-8.6.38-.89.92-1.55.45-2.36-1.36,2.63-2.55,6.39-2.45,9.44.07,1.78,1.34,6.43,3.03,8.44,1.1,1.32,5.45,4.27,7.14,4.85,1,.35,3.86,1.2,4.87,1.04.63-.1.39-.15,1.3-.32.4-.08.89-.11,1.3-.17,1.09-.13,1.61-.15,2.27-.78"/>
      <path class="cls-8" d="M235.38,31.98c1.5-.36,2.79-1.2,4.03-2.12-.61-.93-3.37.77-4.03,2.12"/>
      <path class="cls-8" d="M218.98,23.69c-.08,3.69,7.91,7.98,11.21,7.55-5.15.58-5.86-1.34-9.66-2.76l-.04.73-.83-.38.97.93c6.8,4.3,8.98,2.29,12.89,2.49l.93-.31c1.01-2,2.14-1.53,4.47-3.66.83-.76,1.57-1.62,2.19-2.57.22-.36.45-.75.69-1.18.34-.61.74-1.57,1.07-2.65.33-1.18.51-2.42.51-3.71,0-.66-.05-1.3-.14-1.93-.06-.12-.13-.23-.21-.33-1.05-.55-.64-.93-1.17-2.17-1.58,1.57-1.03,13.02-7.02,15.72-3.71,1.69-9.38,1.29-13.1-2.57-.88-.9-1.8-2.84-2.76-3.21Z"/>
      <path class="cls-13" d="M218.98,23.69c-.08,3.69,7.91,7.98,11.21,7.55-5.15.58-5.86-1.34-9.66-2.76l-.04.73-.83-.38.97.93c6.8,4.3,8.98,2.29,12.89,2.49l.93-.31c1.01-2,2.14-1.53,4.47-3.66.83-.76,1.57-1.62,2.19-2.57.22-.36.45-.75.69-1.18.34-.61.74-1.57,1.07-2.65.33-1.18.51-2.42.51-3.71,0-.66-.05-1.3-.14-1.93-.06-.12-.13-.23-.21-.33-1.05-.55-.64-.93-1.17-2.17-1.58,1.57-1.03,13.02-7.02,15.72-3.71,1.69-9.38,1.29-13.1-2.57-.88-.9-1.8-2.84-2.76-3.21Z"/>
      <path class="cls-8" d="M221.76,6.54l.96.23c-1.36,2.56-3.7,3.06-4.88,7.35-.56,2.01-1.01,8.76,1.15,9.57v-1.1c-1.96-4.4-.4-10.57,2.99-13.91,4.57-4.51,8.6-3.9,14.23-2.21-2.62-2.74-12.15-3.07-14.44.07"/>
      <path class="cls-12" d="M241.48,5.42c-3.17-3.17-7.56-5.14-12.4-5.14s-9.23,1.96-12.4,5.14c-3.17,3.17-5.14,7.56-5.14,12.4s1.96,9.22,5.14,12.4c3.17,3.17,7.56,5.14,12.4,5.14s9.22-1.96,12.4-5.14c3.17-3.17,5.14-7.56,5.14-12.4s-1.96-9.23-5.14-12.4M229.08,0c4.92,0,9.37,1.99,12.6,5.22,3.22,3.22,5.22,7.68,5.22,12.6s-1.99,9.37-5.22,12.6c-3.22,3.22-7.68,5.22-12.6,5.22s-9.37-1.99-12.6-5.22c-3.22-3.22-5.22-7.68-5.22-12.6s1.99-9.37,5.22-12.6c3.22-3.22,7.68-5.22,12.6-5.22Z"/>
      <path class="cls-7" d="M217.85,7.04c1.27-.3,1.45-.16,2.19-.68,1-.71-1-1.78-2.19.68"/>
      <path class="cls-9" d="M187.56,47.52c2.85-1.06,3.31-.71,4.89-2.29,2.12-2.15-2.77-4.73-4.89,2.29"/>
    </g>
  </g>
</svg>